<svg width="24" height="24" viewBox="0 0 24 24" fill="none" xmlns="http://www.w3.org/2000/svg">
    <path fill-rule="evenodd" clip-rule="evenodd" d="M12.128 5.009a4 4 0 0 0 4.593 4.927c.164.489.252 1.014.252 1.564 0 2.973.986 4.026 1.605 4.687l.145.157a.953.953 0 0 1 .281.656c-.031.531-.406 1-1.031 1H6.004c-.625 0-1-.469-1-1-.031-.219.062-.469.25-.656l.145-.157c.619-.66 1.605-1.714 1.605-4.687 0-2.406 1.687-4.344 4-4.844V6a1.007 1.007 0 0 1 1.124-.991zM10.004 19c0 1.125.875 2 2 2 1.094 0 1.969-.875 1.969-2h-3.969z" fill="#262626"/>
    <rect x="13.002" y="3" width="5.995" height="6" rx="2.997" fill="#BA1A1A"/>
</svg>
