<svg width="32" height="32" viewBox="0 0 32 32" fill="none" xmlns="http://www.w3.org/2000/svg">
<g clip-path="url(#clip0_3219_152059)">
<path fill-rule="evenodd" clip-rule="evenodd" d="M21.8024 27.5286C21.8024 25.8919 22.7394 24.432 23.9879 23.3736C26.8479 20.9491 28.668 17.2993 28.668 13.2173C28.668 5.91759 22.8477 0 15.668 0C8.48827 0 2.66797 5.91759 2.66797 13.2173C2.66797 17.692 4.85503 21.6473 8.20162 24.0386C9.50043 24.9667 10.4775 26.3682 10.4775 27.9646C10.4775 30.1934 12.2843 32.0002 14.5131 32.0002H17.3308C19.8004 32.0002 21.8024 29.9982 21.8024 27.5286Z" fill="#719CFF"/>
<path fill-rule="evenodd" clip-rule="evenodd" d="M21.7794 28H10.4766C10.4866 30.1954 12.2126 31.9748 14.3496 32H17.5094C19.7361 31.9751 21.5604 30.2305 21.7794 28Z" fill="#5A7DCC"/>
<path d="M8.95046 6.18873C10.7321 4.40714 13.1484 3.40625 15.668 3.40625C18.1875 3.40625 20.6039 4.40714 22.3855 6.18874" stroke="#8DB0FF" stroke-width="3" stroke-linecap="round"/>
<path d="M14.6366 6.64099C15.3454 5.78791 16.6546 5.78791 17.3634 6.64099C17.772 7.13283 18.4139 7.36645 19.0431 7.25234C20.1344 7.05444 21.1373 7.89601 21.1319 9.00508C21.1288 9.64452 21.4703 10.2361 22.0257 10.5531C22.9888 11.103 23.2162 12.3923 22.4992 13.2384C22.0857 13.7263 21.9671 14.399 22.1888 14.9988C22.5732 16.0391 21.9185 17.173 20.8254 17.3602C20.1951 17.4682 19.6719 17.9073 19.4561 18.5092C19.0818 19.5532 17.8515 20.001 16.8937 19.4418C16.3415 19.1194 15.6585 19.1194 15.1063 19.4418C14.1485 20.001 12.9182 19.5532 12.5439 18.5092C12.3281 17.9073 11.8049 17.4682 11.1746 17.3602C10.0815 17.173 9.42684 16.0391 9.81124 14.9988C10.0329 14.399 9.91425 13.7263 9.50085 13.2384C8.78381 12.3923 9.01116 11.103 9.97435 10.5531C10.5297 10.2361 10.8712 9.64452 10.8681 9.00508C10.8627 7.89601 11.8656 7.05444 12.9569 7.25234C13.5861 7.36645 14.228 7.13283 14.6366 6.64099Z" fill="#E3EBFF"/>
<circle cx="16" cy="13" r="3" fill="#719CFF"/>
</g>
<defs>
<clipPath id="clip0_3219_152059">
<rect width="32" height="32" fill="white"/>
</clipPath>
</defs>
</svg>
