<svg width="360" height="156" viewBox="0 0 360 156" fill="none" xmlns="http://www.w3.org/2000/svg">
    <path d="M360 0v156C308.117 39.5 126.023 152 80 0h280z" fill="url(#zthhmjvzra)" style="mix-blend-mode:multiply"/>
    <circle cx="346" cy="76.825" r="2" fill="#BAEFFF"/>
    <g filter="url(#6giz92h40b)">
        <path fill-rule="evenodd" clip-rule="evenodd" d="M322.456 88.939a.944.944 0 0 1 1.249.47l3.618 7.992c.782 1.726 2.785 2.504 4.476 1.739 1.69-.766 2.427-2.785 1.646-4.51l-3.619-7.993a.943.943 0 0 1 .47-1.248l3.383-1.532a.943.943 0 0 1 1.248.47l3.619 7.993c2.083 4.6.118 9.985-4.39 12.026-4.507 2.041-9.85-.034-11.934-4.635l-3.619-7.993a.944.944 0 0 1 .471-1.248l3.382-1.531z" fill="url(#blo9ml9w0c)"/>
        <path d="M323.705 89.409a.944.944 0 0 0-1.249-.47l-3.382 1.531a.944.944 0 0 0-.471 1.248l1.034 2.283 5.101-2.31-1.033-2.282z" fill="url(#n9j2m0hhod)"/>
        <path d="m330.859 88.92 5.101-2.31-1.033-2.283a.943.943 0 0 0-1.248-.47l-3.383 1.532a.943.943 0 0 0-.47 1.248l1.033 2.282z" fill="url(#16vg9ozwwe)"/>
        <path d="M324.738 84.8a.28.28 0 0 0-.388-.19l-1.254.568a.28.28 0 0 1-.378-.35l1.869-5.142a.28.28 0 0 1 .535.03l.785 3.318a.28.28 0 0 0 .388.19l1.254-.567a.28.28 0 0 1 .378.35l-1.869 5.142a.28.28 0 0 1-.535-.03l-.785-3.318z" fill="url(#42u0yvx4jf)"/>
    </g>
    <path d="M178.5 78.5C114 64.497 83 24.5 78 0h281.938v54.875C309.5 24.5 254.5 95 178.5 78.5z" fill="url(#g3otfgtm6g)"/>
    <g opacity=".9" filter="url(#ck5rktbkvh)">
        <path d="M152.209 47.14c.082-.202-.024-.428-.158-.6a.808.808 0 0 1-.114-.804l.137-.337a.812.812 0 0 1 1.06-.443l4.277 1.74c.416.17.618.643.449 1.057l-.137.337a.808.808 0 0 1-.643.497c-.217.029-.45.117-.532.318l-1.157 2.845a.398.398 0 0 0-.025.213l1.626 10.596c.231 1.506-1.271 2.682-2.689 2.105l-11.432-4.652c-1.414-.575-1.672-2.459-.463-3.379l8.601-6.546 1.2-2.948z" fill="url(#szc9nru4si)"/>
        <path d="M157.191 45.295a.812.812 0 0 1-1.06.443.811.811 0 0 1-.449-1.057.811.811 0 0 1 1.059-.443c.417.17.619.643.45 1.057z" fill="url(#tivswh4j4j)"/>
        <path d="M160.371 43.966a1.219 1.219 0 0 1-1.59.665 1.218 1.218 0 0 1-.674-1.586 1.218 1.218 0 0 1 1.59-.664c.625.254.927.964.674 1.585z" fill="url(#u844a940ok)"/>
    </g>
    <circle opacity=".9" cx="133.633" cy="48" r="2" fill="#D6EEFF"/>
    <defs>
        <linearGradient id="zthhmjvzra" x1="402.164" y1="156.001" x2="27.607" y2="60" gradientUnits="userSpaceOnUse">
            <stop stop-color="#fff"/>
            <stop stop-color="#E1F8FF"/>
            <stop offset=".997" stop-color="#fff"/>
            <stop offset="1" stop-color="#CDF3FF"/>
        </linearGradient>
        <linearGradient id="blo9ml9w0c" x1="323.77" y1="81.026" x2="333.689" y2="104.715" gradientUnits="userSpaceOnUse">
            <stop stop-color="#CBF2FF"/>
            <stop offset="1" stop-color="#C2F0FF"/>
        </linearGradient>
        <linearGradient id="n9j2m0hhod" x1="323.77" y1="81.026" x2="333.689" y2="104.715" gradientUnits="userSpaceOnUse">
            <stop stop-color="#CBF2FF"/>
            <stop offset="1" stop-color="#C2F0FF"/>
        </linearGradient>
        <linearGradient id="16vg9ozwwe" x1="323.77" y1="81.026" x2="333.689" y2="104.715" gradientUnits="userSpaceOnUse">
            <stop stop-color="#CBF2FF"/>
            <stop offset="1" stop-color="#C2F0FF"/>
        </linearGradient>
        <linearGradient id="42u0yvx4jf" x1="323.77" y1="81.026" x2="333.689" y2="104.715" gradientUnits="userSpaceOnUse">
            <stop stop-color="#CBF2FF"/>
            <stop offset="1" stop-color="#C2F0FF"/>
        </linearGradient>
        <linearGradient id="g3otfgtm6g" x1="53.211" y1="6.458" x2="252.733" y2="212.769" gradientUnits="userSpaceOnUse">
            <stop stop-color="#fff"/>
            <stop offset="1" stop-color="#D1ECFF"/>
        </linearGradient>
        <linearGradient id="szc9nru4si" x1="157.133" y1="41.337" x2="148.587" y2="62.338" gradientUnits="userSpaceOnUse">
            <stop stop-color="#D8EFFF"/>
            <stop offset="1" stop-color="#D5EEFF"/>
        </linearGradient>
        <linearGradient id="tivswh4j4j" x1="157.133" y1="41.337" x2="148.587" y2="62.338" gradientUnits="userSpaceOnUse">
            <stop stop-color="#D8EFFF"/>
            <stop offset="1" stop-color="#D5EEFF"/>
        </linearGradient>
        <linearGradient id="u844a940ok" x1="157.133" y1="41.337" x2="148.587" y2="62.338" gradientUnits="userSpaceOnUse">
            <stop stop-color="#D8EFFF"/>
            <stop offset="1" stop-color="#D5EEFF"/>
        </linearGradient>
        <filter id="6giz92h40b" x="316.347" y="79.501" width="25.201" height="29.974" filterUnits="userSpaceOnUse" color-interpolation-filters="sRGB">
            <feFlood flood-opacity="0" result="BackgroundImageFix"/>
            <feColorMatrix in="SourceAlpha" values="0 0 0 0 0 0 0 0 0 0 0 0 0 0 0 0 0 0 127 0" result="hardAlpha"/>
            <feOffset dy="2.172"/>
            <feGaussianBlur stdDeviation="1.086"/>
            <feComposite in2="hardAlpha" operator="out"/>
            <feColorMatrix values="0 0 0 0 0.687515 0 0 0 0 0.876821 0 0 0 0 0.943994 0 0 0 0.08 0"/>
            <feBlend in2="BackgroundImageFix" result="effect1_dropShadow_4387_491508"/>
            <feBlend in="SourceGraphic" in2="effect1_dropShadow_4387_491508" result="shape"/>
        </filter>
        <filter id="ck5rktbkvh" x="140.152" y="42.29" width="21.796" height="25.498" filterUnits="userSpaceOnUse" color-interpolation-filters="sRGB">
            <feFlood flood-opacity="0" result="BackgroundImageFix"/>
            <feColorMatrix in="SourceAlpha" values="0 0 0 0 0 0 0 0 0 0 0 0 0 0 0 0 0 0 127 0" result="hardAlpha"/>
            <feOffset dy="1.487"/>
            <feGaussianBlur stdDeviation=".743"/>
            <feComposite in2="hardAlpha" operator="out"/>
            <feColorMatrix values="0 0 0 0 0.687515 0 0 0 0 0.876821 0 0 0 0 0.943994 0 0 0 0.08 0"/>
            <feBlend in2="BackgroundImageFix" result="effect1_dropShadow_4387_491508"/>
            <feBlend in="SourceGraphic" in2="effect1_dropShadow_4387_491508" result="shape"/>
        </filter>
    </defs>
</svg>
