<svg width="288" height="132" viewBox="0 0 288 132" fill="none" xmlns="http://www.w3.org/2000/svg">
    <g clip-path="url(#afhamm75la)">
        <rect width="288" height="132" rx="8" fill="url(#cvtjfehvjb)"/>
        <circle cx="223" cy="81.847" r="38.347" fill="url(#lbvdxam5hc)"/>
        <path d="M233.613 22.77a.6.6 0 0 1 1.125 0l1.368 3.696c.06.164.19.293.354.354l3.695 1.367a.6.6 0 0 1 0 1.126l-3.695 1.367a.598.598 0 0 0-.354.354l-1.368 3.695a.6.6 0 0 1-1.125 0l-1.367-3.695a.6.6 0 0 0-.355-.354l-3.695-1.367a.6.6 0 0 1 0-1.126l3.695-1.367a.6.6 0 0 0 .355-.354l1.367-3.695z" fill="#FDDC87"/>
        <path fill-rule="evenodd" clip-rule="evenodd" d="M246.728 32.5a5.052 5.052 0 0 0-5.052 5.052v15.156a5.052 5.052 0 0 0 5.052 5.052h.23c.439 0 .744.437.593.849l-1.147 3.138a.632.632 0 0 0 .902.768l8.344-4.674a.63.63 0 0 1 .309-.08h10.977a5.052 5.052 0 0 0 5.052-5.053V37.552a5.052 5.052 0 0 0-5.052-5.052h-20.208z" fill="url(#hwlx6lm7ud)"/>
        <circle cx="248.16" cy="126.025" r="3.5" stroke="#A6D9E5"/>
        <path fill-rule="evenodd" clip-rule="evenodd" d="M223.001 83.373c5.806 0 10.513-6.707 10.513-12.513s-4.707-10.512-10.513-10.512-10.513 4.706-10.513 10.513c0 5.805 4.707 12.512 10.513 12.512zm-9.026 1.103c-6.628 0-12 5.372-12 12v3.871a2 2 0 0 0 2 2h38.051a2 2 0 0 0 2-2v-3.871c0-6.628-5.373-12-12-12h-18.051z" fill="url(#mtxqi98yve)"/>
        <circle cx="185.892" cy="75.108" r="13.761" fill="url(#l1a06w0i3f)"/>
        <path fill-rule="evenodd" clip-rule="evenodd" d="M172.881 55.958a.75.75 0 0 0-1.5 0v2.25h-2.25a.75.75 0 0 0 0 1.5h2.25v2.25a.75.75 0 0 0 1.5 0v-2.25h2.25a.75.75 0 0 0 0-1.5h-2.25v-2.25z" fill="#B8FBB5"/>
        <path d="m190.941 68.085-.01 2.006c0-1.031-.951-1.8-1.959-1.583l-5.378 1.156a2.491 2.491 0 0 0-1.967 2.421v4.89c0 .136-.132.232-.265.205a2.5 2.5 0 1 0 1.999 2.56l.001-.001v-.041l.001-.067-.001-.068v-7.715a.5.5 0 0 1 .383-.486l4.843-1.167a.5.5 0 0 1 .617.486v4.138c0 .136-.132.232-.265.205a2.5 2.5 0 1 0 1.986 2.721c.001-.003.004-.006.008-.006a.007.007 0 0 0 .007-.007V68.085z" fill="#F2FFFA"/>
        <rect x="250.77" y="94.925" width="24.221" height="24.221" rx="3" fill="url(#y67hdt19ug)"/>
        <path d="M266.618 106.222a.94.94 0 0 1 0 1.627l-6.542 3.777a.94.94 0 0 1-1.409-.814v-7.553a.94.94 0 0 1 1.409-.814l6.542 3.777z" fill="#D6E2FF"/>
        <rect x="191.475" y="114.642" width="4" height="4" rx=".978" transform="rotate(17.172 191.475 114.642)" fill="#DBAEFF"/>
        <circle cx="268.418" cy="83.55" r="1.5" fill="#7DE4F3"/>
        <circle cx="250.77" cy="45.518" r="2.031" fill="#FFFBFB"/>
        <circle cx="256.832" cy="45.518" r="2.031" fill="#FFFBFB"/>
        <circle cx="262.895" cy="45.518" r="2.031" fill="#FFFBFB"/>
        <path d="M15.2 27.024a.933.933 0 0 1-.304.704 1.024 1.024 0 0 1-.704.272c-.299 0-.539-.09-.72-.272a.987.987 0 0 1-.272-.704v-9.248c0-.277.096-.507.288-.688a.997.997 0 0 1 .736-.288c.256 0 .48.096.672.288.203.181.304.41.304.688v9.248zm6.822-7.744c.79 0 1.387.165 1.792.496.416.33.699.773.848 1.328.16.544.24 1.152.24 1.824v4.096c0 .277-.09.512-.272.704a.932.932 0 0 1-.688.272.932.932 0 0 1-.688-.272.987.987 0 0 1-.272-.704v-4.096c0-.352-.048-.667-.144-.944a1.273 1.273 0 0 0-.48-.688c-.234-.17-.57-.256-1.008-.256-.426 0-.79.085-1.088.256-.288.17-.512.4-.672.688-.15.277-.224.592-.224.944v4.096c0 .277-.09.512-.272.704a.933.933 0 0 1-.688.272.932.932 0 0 1-.688-.272.987.987 0 0 1-.272-.704v-6.608c0-.277.09-.507.272-.688a.906.906 0 0 1 .688-.288c.278 0 .507.096.688.288.182.181.272.41.272.688v.688l-.24-.048c.096-.181.235-.373.416-.576.182-.213.395-.41.64-.592.246-.181.523-.325.832-.432a2.82 2.82 0 0 1 1.008-.176zm5.052.32h3.791c.257 0 .47.085.64.256.171.17.257.384.257.64a.85.85 0 0 1-.256.624.9.9 0 0 1-.64.24h-3.793a.868.868 0 0 1-.64-.256.868.868 0 0 1-.256-.64c0-.245.086-.448.256-.608a.868.868 0 0 1 .64-.256zm1.711-2c.278 0 .502.096.672.288.182.181.273.41.273.688v7.12c0 .15.026.272.08.368a.56.56 0 0 0 .24.208.939.939 0 0 0 .688 0 .813.813 0 0 1 .367-.08c.15 0 .283.07.4.208.129.139.193.33.193.576 0 .299-.166.544-.497.736-.32.192-.666.288-1.04.288-.224 0-.474-.016-.752-.048a2.284 2.284 0 0 1-.767-.272 1.751 1.751 0 0 1-.593-.672c-.16-.299-.24-.71-.24-1.232v-7.2a.958.958 0 0 1 .976-.976zm8.693 10.56c-.906 0-1.696-.187-2.368-.56a4.048 4.048 0 0 1-1.536-1.552c-.352-.65-.528-1.387-.528-2.208 0-.96.192-1.776.576-2.448.395-.683.907-1.205 1.536-1.568a3.944 3.944 0 0 1 2-.544c.544 0 1.056.112 1.536.336.49.224.923.533 1.296.928.374.384.667.832.88 1.344.224.512.336 1.056.336 1.632a.822.822 0 0 1-.304.624c-.192.16-.416.24-.672.24h-6.112l-.48-1.6h5.872l-.352.32v-.432a1.434 1.434 0 0 0-.336-.832 1.973 1.973 0 0 0-.736-.576 1.987 1.987 0 0 0-.928-.224c-.32 0-.618.043-.896.128-.277.085-.517.23-.72.432-.202.203-.362.475-.48.816-.117.341-.176.773-.176 1.296 0 .576.118 1.067.352 1.472.246.395.555.699.928.912.384.203.79.304 1.216.304.395 0 .71-.032.944-.096.235-.064.422-.139.56-.224.15-.096.283-.176.4-.24a1.22 1.22 0 0 1 .544-.144c.235 0 .427.08.576.24.16.16.24.347.24.56 0 .288-.15.55-.448.784-.277.235-.666.443-1.168.624a4.783 4.783 0 0 1-1.552.256zm6.366-.16a.932.932 0 0 1-.688-.272.987.987 0 0 1-.272-.704v-6.608c0-.277.09-.507.272-.688a.906.906 0 0 1 .688-.288c.277 0 .506.096.688.288.181.181.272.41.272.688v1.504l-.112-1.072c.117-.256.266-.48.448-.672a2.58 2.58 0 0 1 .64-.496c.234-.139.485-.24.752-.304.266-.064.533-.096.8-.096.32 0 .586.09.8.272.224.181.336.395.336.64 0 .352-.09.608-.272.768a.913.913 0 0 1-.592.224c-.203 0-.39-.037-.56-.112a1.378 1.378 0 0 0-1.152.032 1.613 1.613 0 0 0-.544.416c-.16.192-.294.432-.4.72a3.042 3.042 0 0 0-.144.992v3.792c0 .277-.09.512-.272.704a.933.933 0 0 1-.688.272zm12.798-8.72c.277 0 .506.09.688.272.181.181.272.416.272.704v6.768c0 .277-.09.512-.272.704a.933.933 0 0 1-.688.272.932.932 0 0 1-.688-.272.987.987 0 0 1-.272-.704v-.784l.352.144c0 .139-.075.31-.224.512-.15.192-.352.384-.608.576-.256.192-.56.357-.912.496a3.166 3.166 0 0 1-1.12.192 3.697 3.697 0 0 1-2-.56 4.131 4.131 0 0 1-1.424-1.568c-.342-.672-.512-1.44-.512-2.304 0-.875.17-1.643.512-2.304.352-.672.821-1.195 1.408-1.568a3.489 3.489 0 0 1 1.952-.576 3.696 3.696 0 0 1 2.256.736c.288.213.506.432.656.656.16.213.24.395.24.544l-.576.208v-1.168c0-.277.09-.507.272-.688a.906.906 0 0 1 .688-.288zM53.41 26.4c.47 0 .88-.117 1.232-.352a2.32 2.32 0 0 0 .816-.96 3 3 0 0 0 .304-1.36c0-.512-.102-.97-.304-1.376a2.32 2.32 0 0 0-.816-.96 2.169 2.169 0 0 0-1.232-.352 2.14 2.14 0 0 0-1.216.352c-.352.235-.63.555-.832.96a3.176 3.176 0 0 0-.288 1.376c0 .501.096.955.288 1.36.202.405.48.725.832.96a2.14 2.14 0 0 0 1.216.352zm10.079-7.12c.608 0 1.136.064 1.584.192.458.128.81.31 1.056.544.256.224.384.496.384.816 0 .213-.064.416-.192.608-.128.181-.315.272-.56.272-.171 0-.315-.021-.432-.064a1.356 1.356 0 0 1-.288-.192 1.68 1.68 0 0 0-.304-.208c-.107-.064-.272-.112-.496-.144a2.692 2.692 0 0 0-.48-.064c-.544 0-1.008.117-1.392.352a2.353 2.353 0 0 0-.864.96c-.203.395-.304.853-.304 1.376 0 .512.101.97.304 1.376.213.395.501.71.864.944.373.235.8.352 1.28.352.266 0 .496-.016.688-.048.192-.032.352-.08.48-.144.149-.085.282-.176.4-.272.117-.096.293-.144.528-.144.277 0 .49.09.64.272.149.17.224.384.224.64 0 .267-.15.512-.448.736-.299.213-.694.39-1.184.528a6.072 6.072 0 0 1-1.568.192c-.843 0-1.574-.192-2.192-.576a4.018 4.018 0 0 1-1.44-1.6c-.331-.672-.496-1.424-.496-2.256 0-.875.176-1.643.528-2.304a3.978 3.978 0 0 1 1.488-1.568c.64-.384 1.37-.576 2.192-.576zm4.6.32h3.792c.256 0 .47.085.64.256.17.17.256.384.256.64a.85.85 0 0 1-.256.624.9.9 0 0 1-.64.24H68.09a.868.868 0 0 1-.64-.256.869.869 0 0 1-.256-.64c0-.245.085-.448.256-.608a.868.868 0 0 1 .64-.256zm1.712-2c.278 0 .501.096.672.288.181.181.272.41.272.688v7.12c0 .15.027.272.08.368a.56.56 0 0 0 .24.208.939.939 0 0 0 .688 0 .813.813 0 0 1 .368-.08c.15 0 .283.07.4.208.128.139.192.33.192.576 0 .299-.165.544-.496.736-.32.192-.666.288-1.04.288-.224 0-.475-.016-.752-.048a2.286 2.286 0 0 1-.768-.272 1.752 1.752 0 0 1-.592-.672c-.16-.299-.24-.71-.24-1.232v-7.2a.958.958 0 0 1 .976-.976zm6.547 9.424c0 .277-.09.512-.272.704a.933.933 0 0 1-.688.272.933.933 0 0 1-.688-.272.987.987 0 0 1-.272-.704v-6.608c0-.277.09-.507.272-.688a.906.906 0 0 1 .688-.288c.277 0 .507.096.688.288.181.181.272.41.272.688v6.608zm-.976-8.624c-.363 0-.619-.059-.768-.176-.15-.117-.224-.325-.224-.624v-.304c0-.31.08-.517.24-.624.17-.117.427-.176.768-.176.373 0 .635.059.784.176.15.117.224.325.224.624v.304c0 .31-.08.523-.24.64-.16.107-.421.16-.784.16zm3.333 1.04c.203 0 .39.053.56.16a.89.89 0 0 1 .384.448l2.352 5.376-.352.16 2.4-5.52c.182-.427.464-.63.848-.608.267 0 .48.085.64.256.17.16.256.363.256.608a.685.685 0 0 1-.048.24 1.593 1.593 0 0 1-.08.24l-2.992 6.592c-.17.384-.442.587-.816.608a.9.9 0 0 1-.592-.112 1.017 1.017 0 0 1-.416-.496L77.873 20.8a10.253 10.253 0 0 1-.08-.208 1.262 1.262 0 0 1-.032-.304c0-.192.086-.379.256-.56.17-.192.4-.288.688-.288zm12.555 8.72c-.907 0-1.697-.187-2.369-.56a4.05 4.05 0 0 1-1.535-1.552c-.352-.65-.528-1.387-.528-2.208 0-.96.191-1.776.575-2.448.395-.683.907-1.205 1.536-1.568a3.944 3.944 0 0 1 2-.544c.545 0 1.057.112 1.537.336.49.224.922.533 1.296.928.373.384.666.832.88 1.344.224.512.335 1.056.335 1.632a.822.822 0 0 1-.303.624c-.192.16-.416.24-.672.24H87.9l-.48-1.6h5.871l-.352.32v-.432a1.433 1.433 0 0 0-.335-.832 1.972 1.972 0 0 0-.736-.576 1.987 1.987 0 0 0-.928-.224c-.32 0-.62.043-.897.128s-.517.23-.72.432c-.202.203-.362.475-.48.816-.117.341-.175.773-.175 1.296 0 .576.117 1.067.351 1.472.246.395.555.699.928.912.385.203.79.304 1.216.304.395 0 .71-.032.945-.096.234-.064.42-.139.56-.224.149-.096.282-.176.4-.24a1.22 1.22 0 0 1 .544-.144c.234 0 .426.08.576.24.16.16.24.347.24.56 0 .288-.15.55-.448.784-.278.235-.667.443-1.169.624a4.783 4.783 0 0 1-1.552.256zm13.649 0c-.746 0-1.418-.09-2.016-.272-.597-.192-1.168-.523-1.712-.992a1.277 1.277 0 0 1-.32-.4 1.003 1.003 0 0 1-.112-.448c0-.245.086-.459.256-.64a.89.89 0 0 1 .672-.288c.203 0 .384.064.544.192.406.33.806.581 1.2.752.406.17.902.256 1.488.256a3.23 3.23 0 0 0 1.088-.176c.331-.128.598-.293.8-.496.203-.213.304-.453.304-.72 0-.32-.096-.592-.288-.816-.192-.224-.485-.41-.88-.56-.394-.16-.896-.283-1.504-.368a7.028 7.028 0 0 1-1.52-.384 3.868 3.868 0 0 1-1.104-.672 2.81 2.81 0 0 1-.656-.96 3.34 3.34 0 0 1-.224-1.248c0-.693.176-1.285.528-1.776.363-.49.848-.864 1.456-1.12a5.145 5.145 0 0 1 2.016-.384c.694 0 1.334.107 1.92.32.598.203 1.083.464 1.456.784.31.245.464.528.464.848 0 .235-.09.448-.272.64a.851.851 0 0 1-.64.288.702.702 0 0 1-.432-.144c-.17-.15-.4-.288-.688-.416a5.159 5.159 0 0 0-.912-.336 3.125 3.125 0 0 0-.896-.144c-.458 0-.848.059-1.168.176-.309.117-.544.277-.704.48-.16.203-.24.437-.24.704 0 .32.091.587.272.8.192.203.464.368.816.496.352.117.774.224 1.264.32.64.117 1.2.256 1.68.416.491.16.896.368 1.216.624.32.245.56.56.72.944.16.373.24.832.24 1.376 0 .693-.192 1.29-.576 1.792-.384.501-.89.885-1.52 1.152-.618.267-1.29.4-2.016.4zm9.595-8.88c.608 0 1.136.064 1.584.192.459.128.811.31 1.056.544.256.224.384.496.384.816 0 .213-.064.416-.192.608-.128.181-.314.272-.56.272-.17 0-.314-.021-.432-.064a1.387 1.387 0 0 1-.288-.192 1.649 1.649 0 0 0-.304-.208c-.106-.064-.272-.112-.496-.144a2.685 2.685 0 0 0-.48-.064c-.544 0-1.008.117-1.392.352a2.357 2.357 0 0 0-.864.96c-.202.395-.304.853-.304 1.376 0 .512.102.97.304 1.376.214.395.502.71.864.944.374.235.8.352 1.28.352.267 0 .496-.016.688-.048.192-.032.352-.08.48-.144.15-.085.283-.176.4-.272.118-.096.294-.144.528-.144.278 0 .491.09.64.272.15.17.224.384.224.64 0 .267-.149.512-.448.736-.298.213-.693.39-1.184.528a6.069 6.069 0 0 1-1.568.192c-.842 0-1.573-.192-2.192-.576a4.027 4.027 0 0 1-1.44-1.6c-.33-.672-.496-1.424-.496-2.256 0-.875.176-1.643.528-2.304a3.982 3.982 0 0 1 1.488-1.568c.64-.384 1.371-.576 2.192-.576zm5.465 8.72a.931.931 0 0 1-.688-.272.984.984 0 0 1-.272-.704v-6.608a.93.93 0 0 1 .272-.688.904.904 0 0 1 .688-.288c.277 0 .506.096.688.288.181.181.272.41.272.688v1.504l-.112-1.072c.117-.256.266-.48.448-.672.192-.203.405-.368.64-.496.234-.139.485-.24.752-.304.266-.064.533-.096.8-.096.32 0 .586.09.8.272.224.181.336.395.336.64 0 .352-.091.608-.272.768a.914.914 0 0 1-.592.224c-.203 0-.39-.037-.56-.112a1.376 1.376 0 0 0-1.152.032 1.607 1.607 0 0 0-.544.416c-.16.192-.294.432-.4.72a3.042 3.042 0 0 0-.144.992v3.792a.989.989 0 0 1-.272.704.934.934 0 0 1-.688.272zm13.922-4.272c0 .875-.197 1.648-.592 2.32a4.136 4.136 0 0 1-1.568 1.552c-.651.373-1.381.56-2.192.56a4.411 4.411 0 0 1-2.208-.56 4.289 4.289 0 0 1-1.568-1.552c-.384-.672-.576-1.445-.576-2.32 0-.875.192-1.643.576-2.304a4.252 4.252 0 0 1 1.568-1.568 4.315 4.315 0 0 1 2.208-.576c.811 0 1.541.192 2.192.576a4.103 4.103 0 0 1 1.568 1.568c.395.661.592 1.43.592 2.304zm-1.92 0c0-.544-.112-1.013-.336-1.408a2.352 2.352 0 0 0-.88-.944 2.268 2.268 0 0 0-1.216-.336c-.448 0-.859.112-1.232.336a2.505 2.505 0 0 0-.88.944c-.213.395-.32.864-.32 1.408 0 .533.107 1.003.32 1.408.224.395.517.704.88.928.373.224.784.336 1.232.336.448 0 .853-.112 1.216-.336.373-.224.667-.533.88-.928.224-.405.336-.875.336-1.408zm5.68 3.296a.958.958 0 0 1-.976.976.915.915 0 0 1-.672-.272.989.989 0 0 1-.272-.704v-9.888a.958.958 0 0 1 .976-.976c.278 0 .502.096.672.288a.93.93 0 0 1 .272.688v9.888zm4.313 0a.958.958 0 0 1-.976.976.912.912 0 0 1-.672-.272.984.984 0 0 1-.272-.704v-9.888a.957.957 0 0 1 .976-.976c.277 0 .501.096.672.288.181.181.272.41.272.688v9.888zm1.736-.352c-.106-.15-.154-.341-.144-.576.011-.235.15-.437.416-.608a.829.829 0 0 1 .544-.128c.192.01.379.107.56.288.31.31.635.55.976.72.342.17.768.256 1.28.256.16-.01.336-.032.528-.064.192-.043.358-.128.496-.256.15-.139.224-.347.224-.624a.703.703 0 0 0-.24-.56 2.004 2.004 0 0 0-.64-.352 9.279 9.279 0 0 0-.864-.272c-.33-.096-.672-.203-1.024-.32a4.533 4.533 0 0 1-.944-.448 2.274 2.274 0 0 1-.704-.752c-.181-.31-.272-.699-.272-1.168 0-.533.15-.987.448-1.36a2.942 2.942 0 0 1 1.152-.864 3.83 3.83 0 0 1 1.504-.304c.331 0 .678.043 1.04.128.363.075.71.203 1.04.384.331.17.608.4.832.688.118.16.187.352.208.576.022.224-.08.427-.304.608a.801.801 0 0 1-.56.176.885.885 0 0 1-.528-.224 1.872 1.872 0 0 0-.736-.56 2.442 2.442 0 0 0-1.04-.208c-.16 0-.336.021-.528.064a.937.937 0 0 0-.48.24c-.138.117-.208.31-.208.576 0 .245.08.443.24.592.16.139.374.256.64.352.278.085.571.17.88.256.32.085.646.187.976.304.331.117.635.272.912.464.278.192.502.443.672.752.171.299.256.683.256 1.152 0 .544-.16 1.008-.48 1.392a3.11 3.11 0 0 1-1.2.88c-.48.192-.97.288-1.472.288a5.855 5.855 0 0 1-1.888-.32 3.32 3.32 0 0 1-1.568-1.168zM13.28 42h3.56c.113 0 .21.037.29.11.08.073.12.167.12.28 0 .113-.04.207-.12.28a.438.438 0 0 1-.29.1h-3.22l.09-.17v2.53l-.1-.11h2.78c.113 0 .21.037.29.11.08.073.12.167.12.28 0 .113-.04.207-.12.28a.438.438 0 0 1-.29.1h-2.75l.07-.09v2.59l-.06-.07h3.19c.113 0 .21.04.29.12a.373.373 0 0 1 0 .55.414.414 0 0 1-.29.11h-3.56a.395.395 0 0 1-.29-.12.414.414 0 0 1-.11-.29V42.4a.395.395 0 0 1 .4-.4zm5.113 1.77a.39.39 0 0 1 .32.17l3.48 4.44c.053.073.08.153.08.24 0 .113-.04.21-.12.29a.384.384 0 0 1-.28.12c-.127 0-.236-.06-.33-.18l-3.48-4.43a.4.4 0 0 1-.08-.24c0-.12.04-.217.12-.29a.418.418 0 0 1 .29-.12zm0 5.25a.426.426 0 0 1-.26-.1.313.313 0 0 1-.13-.26c0-.087.034-.17.1-.25l1.64-2.07.42.66-1.45 1.86a.38.38 0 0 1-.32.16zm3.48-5.25c.113 0 .203.037.27.11.073.073.11.157.11.25 0 .04-.01.083-.03.13a.352.352 0 0 1-.07.13l-1.63 2.09-.42-.61 1.44-1.92c.094-.12.204-.18.33-.18zm3.655-.07c.34 0 .647.037.92.11.274.073.49.173.65.3.16.127.24.27.24.43 0 .087-.03.17-.09.25-.06.08-.14.12-.24.12a.47.47 0 0 1-.23-.05.91.91 0 0 1-.16-.13.591.591 0 0 0-.2-.14 1.082 1.082 0 0 0-.35-.11 2.678 2.678 0 0 0-.46-.04c-.366 0-.69.087-.97.26-.273.173-.49.407-.65.7-.16.293-.24.627-.24 1s.077.707.23 1a1.736 1.736 0 0 0 1.59.96c.234 0 .42-.02.56-.06.14-.04.257-.087.35-.14.12-.067.21-.133.27-.2a.351.351 0 0 1 .26-.1c.114 0 .2.037.26.11.067.073.1.163.1.27 0 .12-.083.247-.25.38a2.155 2.155 0 0 1-.68.34c-.28.093-.6.14-.96.14-.506 0-.95-.117-1.33-.35a2.497 2.497 0 0 1-.89-.97 3.042 3.042 0 0 1-.31-1.38c0-.507.107-.963.32-1.37.22-.407.524-.73.91-.97.387-.24.837-.36 1.35-.36zm3.656 4.89c0 .113-.04.21-.12.29a.363.363 0 0 1-.28.12.375.375 0 0 1-.29-.12.414.414 0 0 1-.11-.29v-4.44a.395.395 0 0 1 .4-.4c.113 0 .207.04.28.12.08.073.12.167.12.28v4.44zm-.4-5.51c-.167 0-.29-.033-.37-.1-.08-.067-.12-.17-.12-.31v-.14c0-.14.043-.243.13-.31.087-.067.21-.1.37-.1s.28.033.36.1c.08.067.12.17.12.31v.14c0 .14-.044.243-.13.31-.08.067-.2.1-.36.1zm1.637.78h2.35c.106 0 .193.037.26.11.073.073.11.16.11.26a.367.367 0 0 1-.11.27.352.352 0 0 1-.26.1h-2.35a.356.356 0 0 1-.26-.11.367.367 0 0 1-.11-.27c0-.1.037-.183.11-.25a.356.356 0 0 1 .26-.11zm1.05-1.36c.113 0 .206.04.28.12a.38.38 0 0 1 .11.28v4.83c0 .16.023.28.07.36a.4.4 0 0 0 .18.17c.08.027.157.04.23.04.066 0 .123-.01.17-.03a.396.396 0 0 1 .18-.04c.066 0 .127.033.18.1.06.06.09.14.09.24 0 .12-.07.223-.21.31a.93.93 0 0 1-.47.12 3.82 3.82 0 0 1-.35-.02 1.042 1.042 0 0 1-.4-.13.89.89 0 0 1-.34-.36c-.087-.173-.13-.413-.13-.72V42.9c0-.113.04-.207.12-.28.08-.08.177-.12.29-.12zm3.553 6.09c0 .113-.04.21-.12.29a.363.363 0 0 1-.28.12.375.375 0 0 1-.29-.12.414.414 0 0 1-.11-.29v-4.44a.395.395 0 0 1 .4-.4c.113 0 .206.04.28.12.08.073.12.167.12.28v4.44zm-.4-5.51c-.167 0-.29-.033-.37-.1-.08-.067-.12-.17-.12-.31v-.14c0-.14.043-.243.13-.31.086-.067.21-.1.37-.1s.28.033.36.1c.08.067.12.17.12.31v.14c0 .14-.044.243-.13.31-.08.067-.2.1-.36.1zm4.407.62c.453 0 .81.093 1.07.28.26.187.443.437.55.75.113.313.17.663.17 1.05v2.81c0 .113-.04.21-.12.29a.363.363 0 0 1-.28.12.395.395 0 0 1-.29-.12.414.414 0 0 1-.11-.29V45.8c0-.253-.04-.48-.12-.68a.958.958 0 0 0-.38-.49c-.174-.127-.414-.19-.72-.19-.28 0-.537.063-.77.19a1.48 1.48 0 0 0-.56.49c-.14.2-.21.427-.21.68v2.79c0 .113-.04.21-.12.29a.363.363 0 0 1-.28.12.395.395 0 0 1-.29-.12.414.414 0 0 1-.11-.29v-4.36a.395.395 0 0 1 .4-.4c.12 0 .216.04.29.12a.38.38 0 0 1 .11.28v.71l-.2.22c.033-.173.11-.347.23-.52.12-.18.27-.34.45-.48.18-.14.38-.25.6-.33.22-.087.45-.13.69-.13zm5.44 0c.286 0 .553.05.8.15.246.093.46.217.64.37.186.153.33.313.43.48.106.167.16.323.16.47l-.19-.12v-.87a.38.38 0 0 1 .11-.28c.073-.08.17-.12.29-.12.113 0 .206.04.28.12.08.073.12.167.12.28v4.38c0 .547-.117 1-.35 1.36-.227.36-.534.63-.92.81-.387.18-.82.27-1.3.27-.2 0-.42-.027-.66-.08a3.62 3.62 0 0 1-.64-.2c-.187-.073-.307-.15-.36-.23a.439.439 0 0 1-.19-.23.266.266 0 0 1 .05-.23c.06-.093.136-.14.23-.14.1 0 .223.03.37.09.06.02.153.053.28.1.133.047.28.087.44.12.166.04.33.06.49.06.566 0 1-.15 1.3-.45.306-.293.46-.683.46-1.17v-.93l.11.05c-.04.187-.124.36-.25.52-.12.16-.27.303-.45.43-.174.12-.367.217-.58.29-.214.067-.43.1-.65.1-.467 0-.887-.117-1.26-.35a2.523 2.523 0 0 1-.89-.96 2.948 2.948 0 0 1-.32-1.39c0-.527.106-.993.32-1.4.22-.407.513-.723.88-.95a2.31 2.31 0 0 1 1.25-.35zm.1.74c-.34 0-.647.087-.92.26a1.754 1.754 0 0 0-.63.69 2.23 2.23 0 0 0-.22 1.01c0 .367.073.7.22 1 .153.293.363.527.63.7.273.173.58.26.92.26.346 0 .653-.083.92-.25.266-.173.476-.407.63-.7.153-.293.23-.63.23-1.01a2.17 2.17 0 0 0-.23-1.02 1.752 1.752 0 0 0-.63-.69 1.699 1.699 0 0 0-.92-.25zm6.483 3.74a.413.413 0 0 1-.08-.27c.006-.1.063-.187.17-.26a.343.343 0 0 1 .23-.06.37.37 0 0 1 .25.13c.186.22.4.397.64.53.24.127.533.19.88.19.16-.007.32-.033.48-.08a.874.874 0 0 0 .4-.24.657.657 0 0 0 .17-.47.575.575 0 0 0-.17-.44 1.202 1.202 0 0 0-.44-.27 4.38 4.38 0 0 0-.59-.19c-.22-.06-.437-.127-.65-.2a2.947 2.947 0 0 1-.58-.29 1.518 1.518 0 0 1-.41-.44 1.32 1.32 0 0 1-.15-.65c0-.3.08-.56.24-.78.166-.22.386-.39.66-.51.28-.12.583-.18.91-.18.186 0 .38.023.58.07.206.04.406.113.6.22.193.1.363.24.51.42.06.067.093.15.1.25.006.1-.037.19-.13.27a.367.367 0 0 1-.47-.03 1.336 1.336 0 0 0-.53-.38 1.658 1.658 0 0 0-.69-.14c-.16 0-.317.023-.47.07a.877.877 0 0 0-.39.24c-.1.107-.15.257-.15.45a.63.63 0 0 0 .18.44c.113.113.266.207.46.28.193.067.406.133.64.2.213.053.416.117.61.19.2.067.38.157.54.27.16.113.286.26.38.44.093.173.14.393.14.66 0 .307-.087.573-.26.8-.174.22-.404.39-.69.51-.28.113-.584.17-.91.17-.367 0-.73-.07-1.09-.21a2.181 2.181 0 0 1-.92-.71zm7.326-4.48c.34 0 .646.037.92.11.273.073.49.173.65.3.16.127.24.27.24.43 0 .087-.03.17-.09.25-.06.08-.14.12-.24.12a.47.47 0 0 1-.23-.05.917.917 0 0 1-.16-.13.59.59 0 0 0-.2-.14 1.081 1.081 0 0 0-.35-.11 2.676 2.676 0 0 0-.46-.04c-.367 0-.69.087-.97.26-.273.173-.49.407-.65.7-.16.293-.24.627-.24 1s.076.707.23 1a1.736 1.736 0 0 0 1.59.96c.233 0 .42-.02.56-.06.14-.04.257-.087.35-.14.12-.067.21-.133.27-.2a.352.352 0 0 1 .26-.1c.113 0 .2.037.26.11.067.073.1.163.1.27 0 .12-.084.247-.25.38a2.153 2.153 0 0 1-.68.34c-.28.093-.6.14-.96.14-.507 0-.95-.117-1.33-.35a2.497 2.497 0 0 1-.89-.97 3.043 3.043 0 0 1-.31-1.38c0-.507.107-.963.32-1.37.22-.407.523-.73.91-.97.386-.24.837-.36 1.35-.36zm3.285 5.3a.395.395 0 0 1-.29-.12.414.414 0 0 1-.11-.29v-4.36a.395.395 0 0 1 .4-.4c.12 0 .217.04.29.12a.38.38 0 0 1 .11.28v1.32l-.12-.21a2.093 2.093 0 0 1 .61-1.13c.16-.16.344-.283.55-.37.207-.093.434-.14.68-.14.147 0 .28.037.4.11.127.067.19.163.19.29 0 .14-.036.243-.11.31a.361.361 0 0 1-.25.1.644.644 0 0 1-.25-.05.668.668 0 0 0-.3-.06c-.166 0-.333.047-.5.14-.16.087-.31.213-.45.38a2.282 2.282 0 0 0-.33.57c-.08.207-.12.43-.12.67v2.43c0 .113-.04.21-.12.29a.363.363 0 0 1-.28.12zm8.3-2.6c0 .52-.117.983-.35 1.39a2.523 2.523 0 0 1-2.24 1.31c-.487 0-.927-.117-1.32-.35a2.597 2.597 0 0 1-.94-.96 2.806 2.806 0 0 1-.34-1.39c0-.52.113-.983.34-1.39.233-.407.546-.727.94-.96.393-.233.833-.35 1.32-.35a2.523 2.523 0 0 1 2.24 1.31c.233.407.35.87.35 1.39zm-.8 0c0-.387-.08-.727-.24-1.02a1.73 1.73 0 0 0-.64-.69 1.68 1.68 0 0 0-.91-.25c-.34 0-.647.083-.92.25-.267.167-.48.397-.64.69-.16.293-.24.633-.24 1.02 0 .38.08.717.24 1.01.16.293.373.527.64.7.273.167.58.25.92.25.34 0 .643-.083.91-.25.273-.173.486-.407.64-.7.16-.293.24-.63.24-1.01zm2.883 2.19c0 .113-.04.21-.12.29a.395.395 0 0 1-.29.12.363.363 0 0 1-.28-.12.414.414 0 0 1-.11-.29V42a.395.395 0 0 1 .4-.4c.12 0 .216.04.29.12.073.073.11.167.11.28v6.59zm2.431 0c0 .113-.04.21-.12.29a.395.395 0 0 1-.29.12.363.363 0 0 1-.28-.12.414.414 0 0 1-.11-.29V42a.395.395 0 0 1 .4-.4c.12 0 .217.04.29.12a.38.38 0 0 1 .11.28v6.59zm1.262-.41a.413.413 0 0 1-.08-.27c.007-.1.063-.187.17-.26a.343.343 0 0 1 .23-.06.37.37 0 0 1 .25.13c.187.22.4.397.64.53.24.127.533.19.88.19.16-.007.32-.033.48-.08a.874.874 0 0 0 .4-.24.657.657 0 0 0 .17-.47.575.575 0 0 0-.17-.44 1.202 1.202 0 0 0-.44-.27 4.38 4.38 0 0 0-.59-.19c-.22-.06-.437-.127-.65-.2a2.947 2.947 0 0 1-.58-.29 1.518 1.518 0 0 1-.41-.44 1.32 1.32 0 0 1-.15-.65c0-.3.08-.56.24-.78.167-.22.387-.39.66-.51.28-.12.583-.18.91-.18.187 0 .38.023.58.07.207.04.407.113.6.22.193.1.363.24.51.42.06.067.093.15.1.25.007.1-.037.19-.13.27a.367.367 0 0 1-.47-.03 1.336 1.336 0 0 0-.53-.38 1.658 1.658 0 0 0-.69-.14c-.16 0-.317.023-.47.07a.877.877 0 0 0-.39.24c-.1.107-.15.257-.15.45a.63.63 0 0 0 .18.44c.113.113.267.207.46.28.193.067.407.133.64.2.213.053.417.117.61.19.2.067.38.157.54.27.16.113.287.26.38.44.093.173.14.393.14.66 0 .307-.087.573-.26.8-.173.22-.403.39-.69.51-.28.113-.583.17-.91.17-.367 0-.73-.07-1.09-.21a2.181 2.181 0 0 1-.92-.71zm9.94-6.56c.114 0 .23.013.35.04a.781.781 0 0 1 .32.14c.094.067.14.157.14.27a.387.387 0 0 1-.1.27.327.327 0 0 1-.24.1.904.904 0 0 1-.25-.05.933.933 0 0 0-.33-.06.67.67 0 0 0-.38.1.607.607 0 0 0-.21.27 1.02 1.02 0 0 0-.06.36v5.53c0 .113-.04.21-.12.29a.363.363 0 0 1-.28.12.375.375 0 0 1-.29-.12.414.414 0 0 1-.11-.29v-5.52c0-.447.137-.8.41-1.06.28-.26.664-.39 1.15-.39zm.28 2.29c.107 0 .197.037.27.11.074.067.11.153.11.26a.367.367 0 0 1-.11.27.387.387 0 0 1-.27.1h-2.51a.367.367 0 0 1-.27-.11.355.355 0 0 1-.11-.26c0-.113.037-.203.11-.27a.386.386 0 0 1 .27-.1h2.51zm5.976 2.49c0 .52-.117.983-.35 1.39a2.523 2.523 0 0 1-2.24 1.31c-.487 0-.927-.117-1.32-.35a2.598 2.598 0 0 1-.94-.96 2.806 2.806 0 0 1-.34-1.39c0-.52.113-.983.34-1.39.233-.407.547-.727.94-.96.393-.233.833-.35 1.32-.35a2.523 2.523 0 0 1 2.24 1.31c.233.407.35.87.35 1.39zm-.8 0c0-.387-.08-.727-.24-1.02a1.729 1.729 0 0 0-1.55-.94c-.34 0-.647.083-.92.25-.267.167-.48.397-.64.69-.16.293-.24.633-.24 1.02 0 .38.08.717.24 1.01.16.293.373.527.64.7.273.167.58.25.92.25.34 0 .643-.083.91-.25a1.8 1.8 0 0 0 .64-.7c.16-.293.24-.63.24-1.01zM93.54 49a.395.395 0 0 1-.29-.12.414.414 0 0 1-.11-.29v-4.36a.395.395 0 0 1 .4-.4c.12 0 .217.04.29.12a.38.38 0 0 1 .11.28v1.32l-.12-.21a2.093 2.093 0 0 1 .61-1.13c.16-.16.344-.283.55-.37.207-.093.434-.14.68-.14.147 0 .28.037.4.11.127.067.19.163.19.29 0 .14-.036.243-.11.31a.361.361 0 0 1-.25.1.644.644 0 0 1-.25-.05.668.668 0 0 0-.3-.06c-.166 0-.333.047-.5.14-.16.087-.31.213-.45.38a2.282 2.282 0 0 0-.33.57c-.08.207-.12.43-.12.67v2.43c0 .113-.04.21-.12.29a.363.363 0 0 1-.28.12zm11.278-2.6c0 .52-.117.983-.35 1.39a2.527 2.527 0 0 1-2.24 1.31c-.487 0-.927-.117-1.32-.35a2.598 2.598 0 0 1-.94-.96 2.806 2.806 0 0 1-.34-1.39c0-.52.113-.983.34-1.39.233-.407.547-.727.94-.96.393-.233.833-.35 1.32-.35a2.527 2.527 0 0 1 2.24 1.31c.233.407.35.87.35 1.39zm-.8 0c0-.387-.08-.727-.24-1.02a1.729 1.729 0 0 0-1.55-.94c-.34 0-.647.083-.92.25-.267.167-.48.397-.64.69-.16.293-.24.633-.24 1.02 0 .38.08.717.24 1.01.16.293.373.527.64.7.273.167.58.25.92.25.34 0 .643-.083.91-.25a1.8 1.8 0 0 0 .64-.7c.16-.293.24-.63.24-1.01zm5.873-2.57c.12 0 .217.04.29.12.074.073.11.167.11.28v2.73c0 .673-.19 1.197-.57 1.57-.373.367-.896.55-1.57.55-.666 0-1.19-.183-1.57-.55-.373-.373-.56-.897-.56-1.57v-2.73a.396.396 0 0 1 .4-.4c.12 0 .217.04.29.12.074.073.11.167.11.28v2.73c0 .453.117.797.35 1.03.234.233.56.35.98.35.434 0 .764-.117.99-.35.234-.233.35-.577.35-1.03v-2.73a.396.396 0 0 1 .4-.4zm2.282 5.17a.396.396 0 0 1-.29-.12.415.415 0 0 1-.11-.29v-4.36a.396.396 0 0 1 .4-.4c.12 0 .217.04.29.12.074.073.11.167.11.28v1.32l-.12-.21a2.1 2.1 0 0 1 .61-1.13c.16-.16.344-.283.55-.37.207-.093.434-.14.68-.14.147 0 .28.037.4.11.127.067.19.163.19.29 0 .14-.036.243-.11.31a.36.36 0 0 1-.25.1.647.647 0 0 1-.25-.05.668.668 0 0 0-.3-.06c-.166 0-.333.047-.5.14-.16.087-.31.213-.45.38a2.3 2.3 0 0 0-.33.57c-.08.207-.12.43-.12.67v2.43c0 .113-.04.21-.12.29a.362.362 0 0 1-.28.12zM15.04 58.7c.34 0 .647.037.92.11.273.073.49.173.65.3.16.127.24.27.24.43 0 .087-.03.17-.09.25-.06.08-.14.12-.24.12a.47.47 0 0 1-.23-.05.914.914 0 0 1-.16-.13.59.59 0 0 0-.2-.14 1.082 1.082 0 0 0-.35-.11 2.677 2.677 0 0 0-.46-.04c-.367 0-.69.087-.97.26-.273.173-.49.407-.65.7-.16.293-.24.627-.24 1s.077.707.23 1a1.736 1.736 0 0 0 1.59.96c.233 0 .42-.02.56-.06.14-.04.257-.087.35-.14.12-.067.21-.133.27-.2a.352.352 0 0 1 .26-.1c.113 0 .2.037.26.11.067.073.1.163.1.27 0 .12-.083.247-.25.38a2.154 2.154 0 0 1-.68.34c-.28.093-.6.14-.96.14-.507 0-.95-.117-1.33-.35a2.497 2.497 0 0 1-.89-.97 3.042 3.042 0 0 1-.31-1.38c0-.507.107-.963.32-1.37.22-.407.523-.73.91-.97s.837-.36 1.35-.36zm7.796 2.7c0 .52-.117.983-.35 1.39a2.522 2.522 0 0 1-2.24 1.31c-.487 0-.927-.117-1.32-.35a2.598 2.598 0 0 1-.94-.96 2.807 2.807 0 0 1-.34-1.39c0-.52.113-.983.34-1.39.233-.407.546-.727.94-.96.393-.233.833-.35 1.32-.35a2.522 2.522 0 0 1 2.24 1.31c.233.407.35.87.35 1.39zm-.8 0c0-.387-.08-.727-.24-1.02a1.728 1.728 0 0 0-1.55-.94c-.34 0-.647.083-.92.25-.267.167-.48.397-.64.69-.16.293-.24.633-.24 1.02 0 .38.08.717.24 1.01.16.293.373.527.64.7.273.167.58.25.92.25.34 0 .643-.083.91-.25a1.8 1.8 0 0 0 .64-.7c.16-.293.24-.63.24-1.01zm4.573-2.7c.453 0 .81.093 1.07.28.26.187.443.437.55.75.113.313.17.663.17 1.05v2.81c0 .113-.04.21-.12.29a.363.363 0 0 1-.28.12.395.395 0 0 1-.29-.12.414.414 0 0 1-.11-.29V60.8c0-.253-.04-.48-.12-.68a.958.958 0 0 0-.38-.49c-.174-.127-.413-.19-.72-.19-.28 0-.537.063-.77.19a1.48 1.48 0 0 0-.56.49c-.14.2-.21.427-.21.68v2.79c0 .113-.04.21-.12.29a.363.363 0 0 1-.28.12.395.395 0 0 1-.29-.12.414.414 0 0 1-.11-.29v-4.36a.395.395 0 0 1 .4-.4c.12 0 .216.04.29.12.073.073.11.167.11.28v.71l-.2.22c.033-.173.11-.347.23-.52.12-.18.27-.34.45-.48.18-.14.38-.25.6-.33.22-.087.45-.13.69-.13zm7.53.1c.113 0 .206.04.28.12.08.073.12.167.12.28v6.39c0 .113-.04.21-.12.29a.363.363 0 0 1-.28.12.375.375 0 0 1-.29-.12.414.414 0 0 1-.11-.29v-2.95l.19-.07c0 .16-.05.33-.15.51a1.98 1.98 0 0 1-.41.49 2.21 2.21 0 0 1-.62.38c-.234.1-.487.15-.76.15-.447 0-.854-.117-1.22-.35a2.503 2.503 0 0 1-.86-.96 3.025 3.025 0 0 1-.31-1.39c0-.527.103-.993.31-1.4.213-.407.5-.723.86-.95.36-.233.76-.35 1.2-.35.28 0 .543.047.79.14.246.093.46.22.64.38.186.16.333.337.44.53.106.193.16.387.16.58l-.26-.06V59.2c0-.113.036-.207.11-.28.073-.08.17-.12.29-.12zm-2.06 4.56c.333 0 .626-.083.88-.25.26-.173.46-.407.6-.7.146-.3.22-.637.22-1.01 0-.38-.074-.717-.22-1.01a1.637 1.637 0 0 0-.6-.69 1.521 1.521 0 0 0-.88-.26c-.327 0-.62.087-.88.26a1.733 1.733 0 0 0-.6.69c-.147.293-.22.63-.22 1.01 0 .367.073.7.22 1 .146.293.346.527.6.7.26.173.553.26.88.26zm7.812-4.53c.12 0 .217.04.29.12a.38.38 0 0 1 .11.28v2.73c0 .673-.19 1.197-.57 1.57-.373.367-.896.55-1.57.55-.666 0-1.19-.183-1.57-.55-.373-.373-.56-.897-.56-1.57v-2.73a.395.395 0 0 1 .4-.4c.12 0 .217.04.29.12a.38.38 0 0 1 .11.28v2.73c0 .453.117.797.35 1.03.234.233.56.35.98.35.434 0 .764-.117.99-.35.234-.233.35-.577.35-1.03v-2.73a.395.395 0 0 1 .4-.4zm4.272 5.27c-.533 0-1-.113-1.4-.34a2.47 2.47 0 0 1-.94-.93c-.22-.4-.33-.86-.33-1.38 0-.58.113-1.073.34-1.48.233-.413.534-.727.9-.94a2.29 2.29 0 0 1 1.18-.33 2.4 2.4 0 0 1 .89.17c.287.113.54.28.76.5.22.213.397.473.53.78.133.3.203.637.21 1.01 0 .107-.04.197-.12.27a.401.401 0 0 1-.28.11h-3.95l-.18-.69h3.85l-.16.14v-.22a1.263 1.263 0 0 0-.28-.7 1.529 1.529 0 0 0-.57-.46 1.584 1.584 0 0 0-.7-.16c-.2 0-.4.037-.6.11-.193.067-.37.18-.53.34-.153.153-.28.353-.38.6a2.52 2.52 0 0 0-.14.89c0 .387.077.727.23 1.02.16.293.38.527.66.7.28.167.607.25.98.25.233 0 .437-.03.61-.09s.323-.133.45-.22c.127-.093.233-.187.32-.28.087-.06.17-.09.25-.09.1 0 .18.033.24.1.067.067.1.147.1.24 0 .113-.053.213-.16.3a2.54 2.54 0 0 1-.76.55c-.32.153-.66.23-1.02.23zm3.743-.1a.395.395 0 0 1-.29-.12.414.414 0 0 1-.11-.29v-4.36a.395.395 0 0 1 .4-.4c.12 0 .216.04.29.12.073.073.11.167.11.28v1.32l-.12-.21a2.093 2.093 0 0 1 .61-1.13c.16-.16.343-.283.55-.37.206-.093.433-.14.68-.14.146 0 .28.037.4.11.126.067.19.163.19.29 0 .14-.037.243-.11.31a.361.361 0 0 1-.25.1.645.645 0 0 1-.25-.05.668.668 0 0 0-.3-.06c-.167 0-.334.047-.5.14-.16.087-.31.213-.45.38a2.282 2.282 0 0 0-.33.57c-.08.207-.12.43-.12.67v2.43c0 .113-.04.21-.12.29a.363.363 0 0 1-.28.12zm8.299-2.6c0 .52-.117.983-.35 1.39a2.523 2.523 0 0 1-2.24 1.31c-.487 0-.927-.117-1.32-.35a2.598 2.598 0 0 1-.94-.96 2.806 2.806 0 0 1-.34-1.39c0-.52.113-.983.34-1.39.233-.407.546-.727.94-.96.393-.233.833-.35 1.32-.35a2.523 2.523 0 0 1 2.24 1.31c.233.407.35.87.35 1.39zm-.8 0c0-.387-.08-.727-.24-1.02a1.729 1.729 0 0 0-1.55-.94c-.34 0-.647.083-.92.25-.267.167-.48.397-.64.69-.16.293-.24.633-.24 1.02 0 .38.08.717.24 1.01.16.293.373.527.64.7.273.167.58.25.92.25.34 0 .643-.083.91-.25a1.8 1.8 0 0 0 .64-.7c.16-.293.24-.63.24-1.01zm2.403 2.6a.395.395 0 0 1-.29-.12.414.414 0 0 1-.11-.29v-4.36a.395.395 0 0 1 .4-.4c.12 0 .217.04.29.12a.38.38 0 0 1 .11.28v1.32l-.12-.21a2.09 2.09 0 0 1 .61-1.13c.16-.16.343-.283.55-.37.207-.093.433-.14.68-.14.147 0 .28.037.4.11.127.067.19.163.19.29 0 .14-.037.243-.11.31a.362.362 0 0 1-.25.1.644.644 0 0 1-.25-.05.668.668 0 0 0-.3-.06c-.167 0-.333.047-.5.14-.16.087-.31.213-.45.38a2.276 2.276 0 0 0-.33.57c-.08.207-.12.43-.12.67v2.43c0 .113-.04.21-.12.29a.363.363 0 0 1-.28.12zm4.654.02c0 .193-.057.383-.17.57-.107.193-.244.35-.41.47a.836.836 0 0 1-.51.19.293.293 0 0 1-.18-.07c-.06-.04-.09-.113-.09-.22 0-.113.036-.18.11-.2.073-.02.153-.05.24-.09.1-.053.176-.12.23-.2.06-.073.09-.16.09-.26 0-.08-.03-.147-.09-.2a.293.293 0 0 0-.2-.07.623.623 0 0 0-.15.02.338.338 0 0 0-.12.06.514.514 0 0 1-.12-.12.303.303 0 0 1-.05-.18c.006-.147.08-.27.22-.37a.77.77 0 0 1 .48-.16c.213 0 .386.08.52.24.133.16.2.357.2.59zm6.47-5.32c.454 0 .86.117 1.22.35.36.227.644.54.85.94.214.4.32.863.32 1.39 0 .527-.106.993-.32 1.4-.206.407-.49.73-.85.97a2.13 2.13 0 0 1-1.2.35 2.2 2.2 0 0 1-.7-.11 2.614 2.614 0 0 1-.59-.31 2.451 2.451 0 0 1-.44-.43 1.75 1.75 0 0 1-.26-.47l.22-.14v1c0 .113-.036.21-.11.29a.375.375 0 0 1-.29.12.414.414 0 0 1-.29-.11.427.427 0 0 1-.11-.3v-6.63c0-.113.037-.21.11-.29.08-.08.177-.12.29-.12.12 0 .217.04.29.12.074.08.11.177.11.29v3.08l-.15-.08c.047-.167.127-.327.24-.48.12-.16.264-.3.43-.42.174-.127.364-.227.57-.3.214-.073.434-.11.66-.11zm-.09.74c-.333 0-.63.083-.89.25a1.733 1.733 0 0 0-.6.69c-.14.293-.21.627-.21 1s.07.71.21 1.01c.147.3.347.537.6.71.26.173.557.26.89.26.334 0 .627-.087.88-.26.254-.173.454-.41.6-.71.147-.3.22-.637.22-1.01s-.073-.707-.22-1a1.734 1.734 0 0 0-.6-.69 1.564 1.564 0 0 0-.88-.25zm7.553-.61c.12 0 .217.04.29.12a.38.38 0 0 1 .11.28v2.73c0 .673-.19 1.197-.57 1.57-.373.367-.896.55-1.57.55-.666 0-1.19-.183-1.57-.55-.373-.373-.56-.897-.56-1.57v-2.73a.395.395 0 0 1 .4-.4c.12 0 .217.04.29.12a.38.38 0 0 1 .11.28v2.73c0 .453.117.797.35 1.03.234.233.56.35.98.35.433 0 .763-.117.99-.35.234-.233.35-.577.35-1.03v-2.73a.395.395 0 0 1 .4-.4zm1.682.03h2.35c.107 0 .193.037.26.11.073.073.11.16.11.26a.367.367 0 0 1-.11.27.352.352 0 0 1-.26.1h-2.35a.356.356 0 0 1-.26-.11.367.367 0 0 1-.11-.27c0-.1.037-.183.11-.25a.356.356 0 0 1 .26-.11zm1.05-1.36c.113 0 .207.04.28.12a.38.38 0 0 1 .11.28v4.83c0 .16.023.28.07.36a.4.4 0 0 0 .18.17c.08.027.157.04.23.04a.43.43 0 0 0 .17-.03.396.396 0 0 1 .18-.04c.067 0 .127.033.18.1.06.06.09.14.09.24 0 .12-.07.223-.21.31a.93.93 0 0 1-.47.12c-.093 0-.21-.007-.35-.02a1.043 1.043 0 0 1-.4-.13.891.891 0 0 1-.34-.36c-.087-.173-.13-.413-.13-.72V57.9c0-.113.04-.207.12-.28.08-.08.177-.12.29-.12zm5.337 1.36h2.35c.107 0 .193.037.26.11.073.073.11.16.11.26a.367.367 0 0 1-.11.27.351.351 0 0 1-.26.1h-2.35a.356.356 0 0 1-.26-.11.367.367 0 0 1-.11-.27c0-.1.037-.183.11-.25a.356.356 0 0 1 .26-.11zm1.05-1.36c.113 0 .207.04.28.12.073.073.11.167.11.28v4.83c0 .16.023.28.07.36a.4.4 0 0 0 .18.17c.08.027.157.04.23.04a.43.43 0 0 0 .17-.03.397.397 0 0 1 .18-.04c.067 0 .127.033.18.1.06.06.09.14.09.24 0 .12-.07.223-.21.31a.93.93 0 0 1-.47.12c-.093 0-.21-.007-.35-.02a1.044 1.044 0 0 1-.4-.13.892.892 0 0 1-.34-.36c-.087-.173-.13-.413-.13-.72V57.9c0-.113.04-.207.12-.28.08-.08.176-.12.29-.12zm5.283 1.25c.44 0 .786.097 1.04.29.26.187.443.44.55.76.113.313.17.663.17 1.05v2.74c0 .113-.04.21-.12.29a.363.363 0 0 1-.28.12.395.395 0 0 1-.29-.12.414.414 0 0 1-.11-.29v-2.74c0-.253-.037-.48-.11-.68a.976.976 0 0 0-.37-.49c-.167-.127-.397-.19-.69-.19-.274 0-.524.063-.75.19-.227.12-.407.283-.54.49-.134.2-.2.427-.2.68v2.74c0 .113-.04.21-.12.29a.363.363 0 0 1-.28.12.395.395 0 0 1-.29-.12.414.414 0 0 1-.11-.29V57a.395.395 0 0 1 .4-.4c.12 0 .216.04.29.12.073.073.11.167.11.28v2.99l-.2.22c.033-.173.106-.347.22-.52.113-.18.256-.34.43-.48.173-.14.366-.25.58-.33.213-.087.436-.13.67-.13zm4.012 4.84c0 .113-.04.21-.12.29a.363.363 0 0 1-.28.12.375.375 0 0 1-.29-.12.414.414 0 0 1-.11-.29v-4.44a.395.395 0 0 1 .4-.4c.113 0 .206.04.28.12.08.073.12.167.12.28v4.44zm-.4-5.51c-.167 0-.29-.033-.37-.1-.08-.067-.12-.17-.12-.31v-.14c0-.14.043-.243.13-.31.086-.067.21-.1.37-.1s.28.033.36.1c.08.067.12.17.12.31v.14c0 .14-.043.243-.13.31-.08.067-.2.1-.36.1zm1.547 5.1a.413.413 0 0 1-.08-.27c.006-.1.063-.187.17-.26a.342.342 0 0 1 .23-.06.37.37 0 0 1 .25.13c.187.22.4.397.64.53.24.127.533.19.88.19.16-.007.32-.033.48-.08a.874.874 0 0 0 .4-.24.657.657 0 0 0 .17-.47.575.575 0 0 0-.17-.44 1.203 1.203 0 0 0-.44-.27 4.38 4.38 0 0 0-.59-.19c-.22-.06-.437-.127-.65-.2a2.945 2.945 0 0 1-.58-.29 1.516 1.516 0 0 1-.41-.44 1.32 1.32 0 0 1-.15-.65c0-.3.08-.56.24-.78.166-.22.386-.39.66-.51.28-.12.583-.18.91-.18.187 0 .38.023.58.07.207.04.407.113.6.22.193.1.363.24.51.42.06.067.093.15.1.25.007.1-.037.19-.13.27a.368.368 0 0 1-.47-.03 1.336 1.336 0 0 0-.53-.38 1.658 1.658 0 0 0-.69-.14c-.16 0-.317.023-.47.07a.876.876 0 0 0-.39.24c-.1.107-.15.257-.15.45a.63.63 0 0 0 .18.44c.113.113.267.207.46.28.193.067.406.133.64.2.213.053.416.117.61.19.2.067.38.157.54.27.16.113.287.26.38.44.093.173.14.393.14.66 0 .307-.087.573-.26.8-.174.22-.404.39-.69.51-.28.113-.584.17-.91.17-.367 0-.73-.07-1.09-.21a2.18 2.18 0 0 1-.92-.71zm7.58-4.32h2.35c.107 0 .193.037.26.11.073.073.11.16.11.26a.368.368 0 0 1-.11.27.352.352 0 0 1-.26.1h-2.35a.355.355 0 0 1-.26-.11.368.368 0 0 1-.11-.27c0-.1.037-.183.11-.25a.355.355 0 0 1 .26-.11zm1.05-1.36c.113 0 .207.04.28.12a.38.38 0 0 1 .11.28v4.83c0 .16.023.28.07.36.047.08.107.137.18.17.08.027.157.04.23.04a.43.43 0 0 0 .17-.03.395.395 0 0 1 .18-.04c.067 0 .127.033.18.1.06.06.09.14.09.24 0 .12-.07.223-.21.31a.931.931 0 0 1-.47.12c-.093 0-.21-.007-.35-.02a1.043 1.043 0 0 1-.4-.13.891.891 0 0 1-.34-.36c-.087-.173-.13-.413-.13-.72V57.9c0-.113.04-.207.12-.28.08-.08.177-.12.29-.12zm3.553 6.09c0 .113-.04.21-.12.29a.363.363 0 0 1-.28.12.374.374 0 0 1-.29-.12.415.415 0 0 1-.11-.29v-4.44a.396.396 0 0 1 .4-.4c.113 0 .207.04.28.12.08.073.12.167.12.28v4.44zm-.4-5.51c-.167 0-.29-.033-.37-.1-.08-.067-.12-.17-.12-.31v-.14c0-.14.043-.243.13-.31.087-.067.21-.1.37-.1s.28.033.36.1c.08.067.12.17.12.31v.14c0 .14-.043.243-.13.31-.08.067-.2.1-.36.1zm4.307.67c.453 0 .82.117 1.1.35.287.227.477.55.57.97h-.15l.07-.18c.08-.187.217-.367.41-.54.193-.173.417-.317.67-.43.253-.113.517-.17.79-.17.44 0 .787.097 1.04.29.253.187.433.44.54.76.113.313.17.667.17 1.06v2.73c0 .113-.04.21-.12.29a.363.363 0 0 1-.28.12.374.374 0 0 1-.29-.12.415.415 0 0 1-.11-.29v-2.71c0-.26-.04-.493-.12-.7a.974.974 0 0 0-.37-.5c-.167-.127-.397-.19-.69-.19-.273 0-.523.063-.75.19a1.39 1.39 0 0 0-.54.5c-.133.207-.2.44-.2.7v2.71c0 .113-.037.21-.11.29a.374.374 0 0 1-.29.12.396.396 0 0 1-.29-.12.415.415 0 0 1-.11-.29v-2.74c0-.253-.037-.48-.11-.68a.942.942 0 0 0-.35-.49c-.167-.127-.397-.19-.69-.19-.267 0-.51.063-.73.19-.22.12-.397.283-.53.49a1.2 1.2 0 0 0-.2.68v2.74c0 .113-.04.21-.12.29a.363.363 0 0 1-.28.12.396.396 0 0 1-.29-.12.415.415 0 0 1-.11-.29v-4.36a.396.396 0 0 1 .4-.4c.12 0 .217.04.29.12a.38.38 0 0 1 .11.28v.76l-.22.24c.027-.173.093-.347.2-.52a2.228 2.228 0 0 1 1.01-.83c.213-.087.44-.13.68-.13zm9.08 5.35c-.533 0-1-.113-1.4-.34a2.472 2.472 0 0 1-.94-.93c-.22-.4-.33-.86-.33-1.38 0-.58.113-1.073.34-1.48.233-.413.533-.727.9-.94a2.29 2.29 0 0 1 1.18-.33 2.4 2.4 0 0 1 .89.17c.287.113.54.28.76.5.22.213.397.473.53.78.133.3.203.637.21 1.01 0 .107-.04.197-.12.27a.4.4 0 0 1-.28.11h-3.95l-.18-.69h3.85l-.16.14v-.22a1.265 1.265 0 0 0-.28-.7 1.524 1.524 0 0 0-.57-.46 1.583 1.583 0 0 0-.7-.16c-.2 0-.4.037-.6.11-.193.067-.37.18-.53.34-.153.153-.28.353-.38.6-.093.247-.14.543-.14.89 0 .387.077.727.23 1.02.16.293.38.527.66.7.28.167.607.25.98.25.233 0 .437-.03.61-.09s.323-.133.45-.22c.127-.093.233-.187.32-.28.087-.06.17-.09.25-.09.1 0 .18.033.24.1.067.067.1.147.1.24 0 .113-.053.213-.16.3-.187.207-.44.39-.76.55-.32.153-.66.23-1.02.23zM18.84 73.74c.107 0 .197.037.27.11.08.073.12.17.12.29a.46.46 0 0 1-.01.09.178.178 0 0 1-.02.08l-1.54 4.43a.385.385 0 0 1-.17.2.38.38 0 0 1-.24.06c-.153-.007-.27-.093-.35-.26l-1.26-3.16.2.03-1.14 3.13c-.073.167-.19.253-.35.26a.422.422 0 0 1-.25-.06.34.34 0 0 1-.16-.2l-1.57-4.43a.538.538 0 0 1-.03-.17c0-.107.037-.2.11-.28a.387.387 0 0 1 .3-.12c.08 0 .153.02.22.06a.32.32 0 0 1 .14.19l1.35 3.94-.21-.01 1.17-3a.368.368 0 0 1 .37-.25c.093 0 .167.023.22.07.06.04.103.1.13.18l1.22 3-.25.02 1.35-3.95c.06-.167.187-.25.38-.25zm2.238 4.85c0 .113-.04.21-.12.29a.363.363 0 0 1-.28.12.375.375 0 0 1-.29-.12.414.414 0 0 1-.11-.29v-4.44a.395.395 0 0 1 .4-.4c.114 0 .207.04.28.12.08.073.12.167.12.28v4.44zm-.4-5.51c-.166 0-.29-.033-.37-.1-.08-.067-.12-.17-.12-.31v-.14c0-.14.044-.243.13-.31.087-.067.21-.1.37-.1s.28.033.36.1c.08.067.12.17.12.31v.14c0 .14-.043.243-.13.31-.08.067-.2.1-.36.1zm1.637.78h2.35c.107 0 .194.037.26.11.074.073.11.16.11.26a.367.367 0 0 1-.11.27.352.352 0 0 1-.26.1h-2.35a.356.356 0 0 1-.26-.11.367.367 0 0 1-.11-.27c0-.1.037-.183.11-.25a.356.356 0 0 1 .26-.11zm1.05-1.36c.114 0 .207.04.28.12a.38.38 0 0 1 .11.28v4.83c0 .16.024.28.07.36a.4.4 0 0 0 .18.17c.08.027.157.04.23.04a.43.43 0 0 0 .17-.03.396.396 0 0 1 .18-.04c.067 0 .127.033.18.1.06.06.09.14.09.24 0 .12-.07.223-.21.31a.93.93 0 0 1-.47.12c-.093 0-.21-.007-.35-.02a1.043 1.043 0 0 1-.4-.13.891.891 0 0 1-.34-.36c-.086-.173-.13-.413-.13-.72V72.9c0-.113.04-.207.12-.28.08-.08.177-.12.29-.12zm5.283 1.25c.44 0 .787.097 1.04.29.26.187.444.44.55.76.114.313.17.663.17 1.05v2.74c0 .113-.04.21-.12.29a.363.363 0 0 1-.28.12.395.395 0 0 1-.29-.12.414.414 0 0 1-.11-.29v-2.74c0-.253-.037-.48-.11-.68a.976.976 0 0 0-.37-.49c-.166-.127-.396-.19-.69-.19-.273 0-.523.063-.75.19a1.42 1.42 0 0 0-.54.49c-.133.2-.2.427-.2.68v2.74c0 .113-.04.21-.12.29a.363.363 0 0 1-.28.12.395.395 0 0 1-.29-.12.414.414 0 0 1-.11-.29V72a.395.395 0 0 1 .4-.4c.12 0 .217.04.29.12a.38.38 0 0 1 .11.28v2.99l-.2.22c.034-.173.107-.347.22-.52.113-.18.257-.34.43-.48.174-.14.367-.25.58-.33.213-.087.437-.13.67-.13zm10.256.03c.114 0 .207.04.28.12.08.073.12.167.12.28v4.41c0 .113-.04.21-.12.29a.363.363 0 0 1-.28.12.375.375 0 0 1-.29-.12.414.414 0 0 1-.11-.29v-.95l.19-.02c0 .147-.05.307-.15.48a1.98 1.98 0 0 1-.41.49 2.35 2.35 0 0 1-.62.37c-.233.093-.486.14-.76.14-.453 0-.86-.117-1.22-.35a2.583 2.583 0 0 1-.86-.97 3.025 3.025 0 0 1-.31-1.39c0-.527.104-.99.31-1.39.214-.407.5-.723.86-.95.36-.233.76-.35 1.2-.35.287 0 .554.047.8.14.247.093.46.22.64.38.187.16.33.337.43.53.107.193.16.387.16.58l-.26-.06v-1.09a.38.38 0 0 1 .11-.28c.074-.08.17-.12.29-.12zm-2.06 4.58c.334 0 .627-.087.88-.26.26-.173.46-.407.6-.7.147-.3.22-.637.22-1.01 0-.367-.073-.697-.22-.99-.14-.3-.34-.533-.6-.7a1.52 1.52 0 0 0-.88-.26c-.326 0-.62.083-.88.25a1.734 1.734 0 0 0-.6.69c-.146.293-.22.63-.22 1.01 0 .373.07.71.21 1.01.147.293.347.527.6.7.26.173.557.26.89.26zm7.577.23c0 .113-.04.21-.12.29a.395.395 0 0 1-.29.12.363.363 0 0 1-.28-.12.414.414 0 0 1-.11-.29V72a.395.395 0 0 1 .4-.4c.12 0 .216.04.29.12a.38.38 0 0 1 .11.28v6.59zm2.321 0c0 .113-.04.21-.12.29a.363.363 0 0 1-.28.12.375.375 0 0 1-.29-.12.414.414 0 0 1-.11-.29v-4.44a.395.395 0 0 1 .4-.4c.114 0 .207.04.28.12.08.073.12.167.12.28v4.44zm-.4-5.51c-.166 0-.29-.033-.37-.1-.08-.067-.12-.17-.12-.31v-.14c0-.14.044-.243.13-.31.087-.067.21-.1.37-.1s.28.033.36.1c.08.067.12.17.12.31v.14c0 .14-.043.243-.13.31-.08.067-.2.1-.36.1zm1.638.78h2.35c.106 0 .193.037.26.11.073.073.11.16.11.26a.367.367 0 0 1-.11.27.352.352 0 0 1-.26.1h-2.35a.356.356 0 0 1-.26-.11.367.367 0 0 1-.11-.27c0-.1.036-.183.11-.25a.356.356 0 0 1 .26-.11zm1.05-1.36c.113 0 .206.04.28.12a.38.38 0 0 1 .11.28v4.83c0 .16.023.28.07.36a.4.4 0 0 0 .18.17c.08.027.156.04.23.04.066 0 .123-.01.17-.03a.396.396 0 0 1 .18-.04c.066 0 .126.033.18.1.06.06.09.14.09.24 0 .12-.07.223-.21.31a.93.93 0 0 1-.47.12 3.82 3.82 0 0 1-.35-.02 1.042 1.042 0 0 1-.4-.13.89.89 0 0 1-.34-.36c-.087-.173-.13-.413-.13-.72V72.9c0-.113.04-.207.12-.28.08-.08.176-.12.29-.12zm2.582 1.36h2.35c.107 0 .194.037.26.11.074.073.11.16.11.26a.367.367 0 0 1-.11.27.352.352 0 0 1-.26.1h-2.35a.356.356 0 0 1-.26-.11.367.367 0 0 1-.11-.27c0-.1.037-.183.11-.25a.356.356 0 0 1 .26-.11zm1.05-1.36c.114 0 .207.04.28.12a.38.38 0 0 1 .11.28v4.83c0 .16.024.28.07.36a.4.4 0 0 0 .18.17c.08.027.157.04.23.04.067 0 .124-.01.17-.03a.396.396 0 0 1 .18-.04c.067 0 .127.033.18.1.06.06.09.14.09.24 0 .12-.07.223-.21.31a.93.93 0 0 1-.47.12 3.82 3.82 0 0 1-.35-.02 1.042 1.042 0 0 1-.4-.13.89.89 0 0 1-.34-.36c-.086-.173-.13-.413-.13-.72V72.9c0-.113.04-.207.12-.28.08-.08.177-.12.29-.12zm3.663 6.09c0 .113-.04.21-.12.29a.395.395 0 0 1-.29.12.363.363 0 0 1-.28-.12.414.414 0 0 1-.11-.29V72a.395.395 0 0 1 .4-.4c.12 0 .217.04.29.12a.38.38 0 0 1 .11.28v6.59zm3.844.51c-.533 0-1-.113-1.4-.34a2.47 2.47 0 0 1-.94-.93c-.22-.4-.33-.86-.33-1.38 0-.58.113-1.073.34-1.48.233-.413.533-.727.9-.94.373-.22.767-.33 1.18-.33a2.4 2.4 0 0 1 .89.17c.287.113.54.28.76.5.22.213.397.473.53.78.133.3.203.637.21 1.01 0 .107-.04.197-.12.27a.402.402 0 0 1-.28.11h-3.95l-.18-.69h3.85l-.16.14v-.22a1.263 1.263 0 0 0-.28-.7 1.53 1.53 0 0 0-.57-.46 1.584 1.584 0 0 0-.7-.16c-.2 0-.4.037-.6.11-.193.067-.37.18-.53.34-.153.153-.28.353-.38.6-.093.247-.14.543-.14.89 0 .387.077.727.23 1.02.16.293.38.527.66.7.28.167.607.25.98.25.233 0 .437-.03.61-.09s.323-.133.45-.22c.127-.093.233-.187.32-.28.087-.06.17-.09.25-.09.1 0 .18.033.24.1.067.067.1.147.1.24 0 .113-.053.213-.16.3a2.54 2.54 0 0 1-.76.55c-.32.153-.66.23-1.02.23zm8.256-7.48c.114 0 .23.013.35.04a.78.78 0 0 1 .32.14c.094.067.14.157.14.27a.386.386 0 0 1-.1.27.327.327 0 0 1-.24.1.905.905 0 0 1-.25-.05.933.933 0 0 0-.33-.06.671.671 0 0 0-.38.1.608.608 0 0 0-.21.27 1.02 1.02 0 0 0-.06.36v5.53c0 .113-.04.21-.12.29a.363.363 0 0 1-.28.12.375.375 0 0 1-.29-.12.414.414 0 0 1-.11-.29v-5.52c0-.447.137-.8.41-1.06.28-.26.664-.39 1.15-.39zm.28 2.29c.107 0 .197.037.27.11.074.067.11.153.11.26a.367.367 0 0 1-.11.27.386.386 0 0 1-.27.1h-2.51a.367.367 0 0 1-.27-.11.356.356 0 0 1-.11-.26c0-.113.037-.203.11-.27a.386.386 0 0 1 .27-.1h2.51zm5.288-.08c.12 0 .217.04.29.12a.38.38 0 0 1 .11.28v2.73c0 .673-.19 1.197-.57 1.57-.373.367-.897.55-1.57.55-.667 0-1.19-.183-1.57-.55-.374-.373-.56-.897-.56-1.57v-2.73a.395.395 0 0 1 .4-.4c.12 0 .216.04.29.12a.38.38 0 0 1 .11.28v2.73c0 .453.117.797.35 1.03.233.233.56.35.98.35.433 0 .763-.117.99-.35.233-.233.35-.577.35-1.03v-2.73a.395.395 0 0 1 .4-.4zm4.452-.13c.453 0 .81.093 1.07.28.26.187.443.437.55.75.113.313.17.663.17 1.05v2.81c0 .113-.04.21-.12.29a.363.363 0 0 1-.28.12.395.395 0 0 1-.29-.12.414.414 0 0 1-.11-.29V75.8c0-.253-.04-.48-.12-.68a.959.959 0 0 0-.38-.49c-.174-.127-.414-.19-.72-.19-.28 0-.537.063-.77.19a1.48 1.48 0 0 0-.56.49c-.14.2-.21.427-.21.68v2.79c0 .113-.04.21-.12.29a.363.363 0 0 1-.28.12.395.395 0 0 1-.29-.12.414.414 0 0 1-.11-.29v-4.36a.395.395 0 0 1 .4-.4c.12 0 .216.04.29.12a.38.38 0 0 1 .11.28v.71l-.2.22c.033-.173.11-.347.23-.52.12-.18.27-.34.45-.48.18-.14.38-.25.6-.33.22-.087.45-.13.69-.13zm3.6 3.26c-.16 0-.247-.09-.26-.27l-.17-4.17a.542.542 0 0 1 .1-.37c.073-.1.18-.15.32-.15.146 0 .256.05.33.15a.542.542 0 0 1 .1.37l-.17 4.17c-.014.18-.097.27-.25.27zm-.05 2.04c-.14 0-.247-.04-.32-.12a.509.509 0 0 1-.11-.34v-.2c0-.14.036-.25.11-.33.073-.08.18-.12.32-.12h.09c.14 0 .246.04.32.12.073.08.11.19.11.33v.2c0 .14-.037.253-.11.34-.074.08-.18.12-.32.12h-.09z" fill="#262626"/>
        <g filter="url(#5tomyphyih)">
            <rect x="12" y="99" width="88" height="24" rx="12" fill="#fff" shape-rendering="crispEdges"/>
            <path d="M27.15 115a.644.644 0 0 1-.46-.17.599.599 0 0 1-.18-.44v-5.8h1.3v5.8c0 .173-.064.32-.19.44a.658.658 0 0 1-.47.17zm-2.21-5.85a.637.637 0 0 1-.44-.16.551.551 0 0 1-.17-.42.52.52 0 0 1 .17-.41.637.637 0 0 1 .44-.16h4.44c.173 0 .316.053.43.16.12.107.18.247.18.42s-.06.313-.18.42a.626.626 0 0 1-.43.15h-4.44zm6.003 5.85a.584.584 0 0 1-.43-.17.617.617 0 0 1-.17-.44v-4.13c0-.173.057-.317.17-.43a.566.566 0 0 1 .43-.18c.174 0 .317.06.43.18.114.113.17.257.17.43v.94l-.07-.67c.074-.16.167-.3.28-.42.12-.127.254-.23.4-.31.147-.087.304-.15.47-.19.167-.04.334-.06.5-.06.2 0 .367.057.5.17.14.113.21.247.21.4 0 .22-.056.38-.17.48a.572.572 0 0 1-.37.14.858.858 0 0 1-.35-.07.861.861 0 0 0-.72.02c-.12.053-.233.14-.34.26-.1.12-.183.27-.25.45a1.9 1.9 0 0 0-.09.62v2.37c0 .173-.056.32-.17.44a.584.584 0 0 1-.43.17zm7.706-5.35c.174 0 .317.06.43.18.114.113.17.257.17.43v4.25c0 .613-.116 1.1-.35 1.46-.226.367-.533.63-.92.79-.386.16-.82.24-1.3.24-.213 0-.44-.017-.68-.05a2.265 2.265 0 0 1-.59-.15c-.2-.087-.34-.197-.42-.33a.489.489 0 0 1-.04-.41c.06-.193.157-.327.29-.4a.512.512 0 0 1 .42-.02c.107.033.247.083.42.15.174.073.374.11.6.11.307 0 .56-.043.76-.13.207-.08.36-.22.46-.42.107-.193.16-.46.16-.8v-.67l.21.24c-.113.22-.256.403-.43.55a1.72 1.72 0 0 1-.6.32c-.233.073-.5.11-.8.11-.353 0-.663-.08-.93-.24a1.722 1.722 0 0 1-.61-.68 2.205 2.205 0 0 1-.22-1v-2.92c0-.173.057-.317.17-.43a.566.566 0 0 1 .43-.18c.174 0 .317.06.43.18.114.113.17.257.17.43v2.56c0 .433.094.74.28.92.194.173.46.26.8.26.234 0 .43-.043.59-.13a.935.935 0 0 0 .37-.4c.087-.18.13-.397.13-.65v-2.56c0-.173.057-.317.17-.43a.566.566 0 0 1 .43-.18zM48.761 108c.16 0 .29.053.39.16.1.107.15.24.15.4v5.83a.599.599 0 0 1-.61.61.969.969 0 0 1-.27-.04.496.496 0 0 1-.2-.13l-3.93-4.99.26-.16v4.76c0 .16-.053.293-.16.4a.521.521 0 0 1-.4.16.509.509 0 0 1-.39-.16.563.563 0 0 1-.15-.4v-5.83a.598.598 0 0 1 .61-.61c.093 0 .19.02.29.06.1.033.174.087.22.16l3.81 4.86-.17.12v-4.64c0-.16.05-.293.15-.4.1-.107.233-.16.4-.16zm7.134 4.33c0 .547-.124 1.03-.37 1.45-.24.413-.567.737-.98.97-.407.233-.864.35-1.37.35-.507 0-.967-.117-1.38-.35a2.68 2.68 0 0 1-.98-.97c-.24-.42-.36-.903-.36-1.45 0-.547.12-1.027.36-1.44.246-.42.573-.747.98-.98.413-.24.873-.36 1.38-.36.506 0 .963.12 1.37.36.413.233.74.56.98.98.246.413.37.893.37 1.44zm-1.2 0c0-.34-.07-.633-.21-.88a1.472 1.472 0 0 0-1.31-.8c-.28 0-.537.07-.77.21a1.57 1.57 0 0 0-.55.59c-.134.247-.2.54-.2.88 0 .333.066.627.2.88.14.247.323.44.55.58.233.14.49.21.77.21s.533-.07.76-.21c.233-.14.416-.333.55-.58.14-.253.21-.547.21-.88zm8.41-2.68c.153 0 .287.06.4.18.113.113.17.26.17.44a.559.559 0 0 1-.04.23l-1.53 4.12a.575.575 0 0 1-.25.31.582.582 0 0 1-.38.07c-.227-.013-.397-.14-.51-.38l-.99-2.85.26.01-.93 2.84c-.113.24-.283.367-.51.38a.597.597 0 0 1-.38-.07.576.576 0 0 1-.25-.31l-1.53-4.12a.668.668 0 0 1 .12-.66.544.544 0 0 1 .44-.19c.127 0 .24.03.34.09.1.06.17.157.21.29l1.21 3.28-.25-.02.91-2.47c.107-.247.29-.37.55-.37.147 0 .257.033.33.1.08.06.143.15.19.27l.91 2.47-.3.04 1.23-3.3c.08-.253.273-.38.58-.38z" fill="#004FE6"/>
            <path d="M70.5 111h10m0 0-3.75-3.75M80.5 111l-3.75 3.75" stroke="#004FE6" stroke-linecap="round" stroke-linejoin="round"/>
        </g>
    </g>
    <defs>
        <linearGradient id="cvtjfehvjb" x1="0" y1="0" x2="99.994" y2="218.169" gradientUnits="userSpaceOnUse">
            <stop stop-color="#BAE8FF"/>
            <stop offset="1" stop-color="#53A1F3"/>
        </linearGradient>
        <linearGradient id="hwlx6lm7ud" x1="256.832" y1="32.5" x2="256.832" y2="62.598" gradientUnits="userSpaceOnUse">
            <stop stop-color="#FF99AC"/>
            <stop offset="1" stop-color="#F53D81"/>
        </linearGradient>
        <linearGradient id="mtxqi98yve" x1="223" y1="61.348" x2="223" y2="102.347" gradientUnits="userSpaceOnUse">
            <stop stop-color="#9B99FF"/>
            <stop offset="1" stop-color="#6865F8"/>
        </linearGradient>
        <linearGradient id="l1a06w0i3f" x1="185.892" y1="61.348" x2="185.892" y2="88.869" gradientUnits="userSpaceOnUse">
            <stop stop-color="#9EFAF5"/>
            <stop offset="1" stop-color="#47D6CE"/>
        </linearGradient>
        <linearGradient id="y67hdt19ug" x1="262.88" y1="94.925" x2="262.88" y2="119.146" gradientUnits="userSpaceOnUse">
            <stop stop-color="#5284F8"/>
            <stop offset="1" stop-color="#145AFC"/>
        </linearGradient>
        <radialGradient id="lbvdxam5hc" cx="0" cy="0" r="1" gradientUnits="userSpaceOnUse" gradientTransform="rotate(69.537 48.343 197.79) scale(39.3294)">
            <stop stop-color="#D2E8FF"/>
            <stop offset="1" stop-color="#8BC7FF"/>
        </radialGradient>
        <clipPath id="afhamm75la">
            <path fill="#fff" d="M0 0h288v132H0z"/>
        </clipPath>
        <filter id="5tomyphyih" x="10" y="99" width="92" height="30" filterUnits="userSpaceOnUse" color-interpolation-filters="sRGB">
            <feFlood flood-opacity="0" result="BackgroundImageFix"/>
            <feColorMatrix in="SourceAlpha" values="0 0 0 0 0 0 0 0 0 0 0 0 0 0 0 0 0 0 127 0" result="hardAlpha"/>
            <feOffset dy="4"/>
            <feGaussianBlur stdDeviation="1"/>
            <feComposite in2="hardAlpha" operator="out"/>
            <feColorMatrix values="0 0 0 0 0.231373 0 0 0 0 0.607843 0 0 0 0 0.945098 0 0 0 0.2 0"/>
            <feBlend in2="BackgroundImageFix" result="effect1_dropShadow_5343_532801"/>
            <feBlend in="SourceGraphic" in2="effect1_dropShadow_5343_532801" result="shape"/>
        </filter>
    </defs>
</svg>
