<svg width="178" height="31" viewBox="0 0 178 31" fill="none" xmlns="http://www.w3.org/2000/svg">
    <path d="M35.767 29.232 35.572 29c-1.036 0-2.085-.061-3.11-.159-.841-.085-1.67-.195-2.487-.39-1.598-.378-3.025-.817-4.683-.866-1.89-.048-3.805.171-5.61.756l-.05.05c-.511.524-1.426.524-1.926 0l-.048-.05c-1.805-.585-3.72-.804-5.61-.756-1.66.05-3.086.488-4.683.866-.817.195-1.66.305-2.488.39a33.046 33.046 0 0 1-3.11.159l-.341.402 16.073-.22c.06 0 .207.135.268.172.11.06.22.097.342.122a2.57 2.57 0 0 0 1.097.024c.28-.061.5-.183.67-.305l16.062.22-.17-.183h-.001zM41.756 5.329h3.975l6.317 8.086V5.329h4.208v15.293h-3.732l-6.55-8.378v8.39h-4.206V5.329h-.012zM65.17 5.22h4.098l6.537 15.402h-4.561l-1.122-2.732h-5.927l-1.098 2.732h-4.475L65.17 5.22zm3.732 9.378-1.707-4.354-1.732 4.354h3.44-.001zm9.28-9.269h7.269c2.354 0 3.976.61 5 1.659.902.878 1.366 2.049 1.366 3.56v.05c0 2.341-1.256 3.89-3.16 4.695l3.66 5.329h-4.915l-3.097-4.634h-1.866v4.634h-4.256V5.329zm7.06 7.342c1.453 0 2.282-.695 2.282-1.817v-.05c0-1.206-.878-1.816-2.305-1.816h-2.78v3.67h2.805v.013h-.001zm14.61-7.451h4.099l6.536 15.402h-4.56l-1.122-2.732h-5.928l-1.097 2.732h-4.475L99.853 5.22zm3.733 9.378-1.707-4.354-1.732 4.354h3.439zm11.305.304-5.842-9.573h4.854l3.159 5.573 3.183-5.573H125l-5.842 9.5v5.793h-4.28v-5.72h.012zm15.207-9.682h4.098l6.536 15.402h-4.56l-1.123-2.732h-5.926l-1.098 2.732h-4.476l6.55-15.402h-.001zm3.732 9.378-1.707-4.354-1.732 4.354h3.439zm9.28-9.269h3.976l6.317 8.086V5.329h4.207v15.293h-3.731l-6.561-8.39v8.39h-4.208V5.329zm23.403-.109h4.097l6.538 15.402h-4.561l-1.122-2.732h-5.927l-1.097 2.732h-4.476l6.548-15.402zm3.732 9.378-1.708-4.354-1.731 4.354h3.439z" fill="#087FBC"/>
    <path d="M41.756 29.878v-6.146h4.622v1.207h-3.293v1.244h2.89v1.208h-2.89v1.292h3.329v1.208h-4.658v-.013zm11.305-1.853a2.845 2.845 0 0 1-.671.975c-.293.28-.634.488-1.037.647a3.568 3.568 0 0 1-1.317.231h-2.39v-6.146h2.39c.477 0 .916.073 1.318.232.403.158.744.366 1.037.646.293.28.512.598.67.976.16.366.232.768.232 1.207v.012c.013.44-.073.842-.231 1.22h-.001zm-1.171-1.208c0-.268-.05-.512-.134-.743a1.638 1.638 0 0 0-.378-.586 1.638 1.638 0 0 0-.586-.378 2.141 2.141 0 0 0-.756-.134h-1.05v3.683h1.05c.269 0 .525-.049.756-.134.232-.086.427-.22.586-.378.158-.159.28-.354.378-.586.085-.22.134-.475.134-.744zm7.683 1.61a2.312 2.312 0 0 1-.537.866 2.065 2.065 0 0 1-.853.512c-.33.11-.708.171-1.11.171-.83 0-1.476-.232-1.951-.683-.476-.451-.708-1.134-.708-2.049v-3.512h1.354v3.476c0 .5.122.878.354 1.134.23.256.56.378.975.378.415 0 .744-.122.976-.366.232-.244.354-.61.354-1.11V23.72h1.329v3.463c0 .488-.061.903-.183 1.244zm6.475.915c-.17.134-.353.256-.56.341a2.985 2.985 0 0 1-.66.22 4.095 4.095 0 0 1-.804.073c-.451 0-.866-.085-1.256-.244a3 3 0 0 1-1-.67c-.28-.281-.5-.623-.66-1a3.218 3.218 0 0 1-.23-1.232v-.013c0-.439.085-.853.23-1.231.16-.378.379-.72.66-1.012a3.07 3.07 0 0 1 1.012-.683c.39-.171.83-.256 1.293-.256.293 0 .549.024.78.073.232.049.452.11.647.195s.366.183.536.293c.159.121.317.243.45.39l-.864.988a3.36 3.36 0 0 0-.732-.513 1.857 1.857 0 0 0-.842-.183c-.256 0-.5.05-.72.147-.22.097-.401.232-.56.414-.16.171-.28.378-.366.61a2.132 2.132 0 0 0-.134.744v.012c0 .269.049.512.134.744.085.232.207.44.366.61.159.17.34.317.56.415.22.097.464.158.72.158.354 0 .647-.06.89-.195.245-.134.489-.305.72-.524l.854.865c-.134.183-.293.33-.464.464zm6.135.536-.561-1.378h-2.598l-.56 1.378h-1.38l2.635-6.181h1.244l2.634 6.18h-1.414v.001zm-1.854-4.56-.817 2h1.634l-.817-2zm7-.33v4.89h-1.354v-4.902h-1.866v-1.244h5.086v1.244h-1.866v.012zm2.963 4.89v-6.146h1.354v6.146h-1.354zm8.903-1.829c-.16.378-.39.72-.683 1.012a3.179 3.179 0 0 1-1.037.683 3.33 3.33 0 0 1-1.317.256c-.475 0-.914-.085-1.305-.256a3.363 3.363 0 0 1-1.036-.67 2.945 2.945 0 0 1-.671-1 3.164 3.164 0 0 1-.244-1.232v-.012c0-.44.085-.854.244-1.232.159-.378.39-.72.683-1.012a3.344 3.344 0 0 1 2.354-.939c.475 0 .914.085 1.304.256.403.17.744.39 1.037.67.293.281.512.623.67 1 .16.379.245.793.245 1.232v.012c0 .44-.086.842-.244 1.232zm-1.17-1.232c0-.268-.05-.512-.135-.743a1.684 1.684 0 0 0-.39-.61 1.898 1.898 0 0 0-2.098-.427c-.22.098-.415.232-.573.415-.16.17-.293.378-.378.61a2.122 2.122 0 0 0-.134.743v.012c0 .269.049.513.134.744.085.232.22.44.39.61.17.17.366.317.586.415.219.097.475.158.756.158.268 0 .512-.048.744-.146.23-.098.426-.232.585-.415.158-.17.28-.378.378-.61a1.88 1.88 0 0 0 .134-.743v-.013zm6.926 3.061-2.976-3.902v3.902h-1.33v-6.146h1.245l2.878 3.781v-3.781h1.329v6.146H94.95zm7.195 0-.561-1.378h-2.598l-.56 1.378h-1.38l2.636-6.181h1.244l2.634 6.182h-1.415v-.001zm-1.854-4.56-.817 1.987h1.634l-.817-1.988v.001zm4.22 4.56v-6.146h1.354v4.927h3.061v1.219h-4.415zm8.122 0v-6.146h1.353v6.146h-1.353zm7.195 0-2.976-3.902v3.902h-1.329v-6.146h1.244l2.878 3.781v-3.781h1.329v6.146h-1.146zm6.902-1c-.11.232-.268.44-.463.598-.195.159-.439.28-.707.366a3.04 3.04 0 0 1-.915.122 4.17 4.17 0 0 1-1.378-.244 3.494 3.494 0 0 1-1.232-.744l.793-.951c.28.232.573.414.866.549.292.134.622.207.963.207.28 0 .5-.049.659-.159a.47.47 0 0 0 .231-.426v-.013a.469.469 0 0 0-.048-.231.436.436 0 0 0-.183-.183 1.404 1.404 0 0 0-.378-.171 4.74 4.74 0 0 0-.634-.183 6.193 6.193 0 0 1-.842-.256 2.67 2.67 0 0 1-.646-.342 1.42 1.42 0 0 1-.415-.512 1.805 1.805 0 0 1-.146-.768v-.012c0-.28.049-.537.158-.756.11-.22.256-.415.44-.586.194-.158.414-.292.682-.378.256-.085.549-.134.866-.134a3.52 3.52 0 0 1 2.281.793l-.708 1.012a5.193 5.193 0 0 0-.805-.439 2.036 2.036 0 0 0-.792-.159c-.269 0-.464.05-.598.159a.453.453 0 0 0-.195.378v.012a.56.56 0 0 0 .061.256c.037.074.11.134.207.195.098.061.232.11.415.171.17.049.39.11.659.183.304.085.585.17.829.28.244.098.451.22.61.366.17.147.292.318.378.5.085.196.122.427.122.696v.012c.036.28-.025.56-.135.792zm4.122-3.89v4.89H129.5v-4.902h-1.866v-1.244h5.085v1.244h-1.866v.012zm2.964 4.89v-6.146h1.353v6.146h-1.353zm5.67-4.89v4.89h-1.353v-4.902h-1.866v-1.244h5.085v1.244h-1.866v.012zm7.976 3.439a2.323 2.323 0 0 1-.536.866 2.075 2.075 0 0 1-.854.512c-.33.11-.707.171-1.11.171-.83 0-1.476-.232-1.951-.683-.476-.451-.707-1.134-.707-2.049v-3.512h1.353v3.476c0 .5.122.878.354 1.134.232.256.56.378.975.378.415 0 .744-.122.976-.366.232-.244.354-.61.354-1.11V23.72h1.353v3.463a4 4 0 0 1-.207 1.244zm4.354-3.439v4.89h-1.354v-4.902h-1.866v-1.244h5.086v1.244h-1.866v.012zm2.963 4.89v-6.146h1.354v6.146h-1.354zm8.903-1.829c-.159.378-.39.72-.683 1.012a3.179 3.179 0 0 1-1.037.683 3.33 3.33 0 0 1-1.317.256 3.23 3.23 0 0 1-1.305-.256 3.363 3.363 0 0 1-1.036-.67 2.931 2.931 0 0 1-.671-1 3.164 3.164 0 0 1-.244-1.232v-.012a3.135 3.135 0 0 1 1.963-2.927c.403-.17.842-.256 1.317-.256.476 0 .915.085 1.305.256.403.17.744.39 1.037.67.293.281.512.623.67 1 .16.379.245.793.245 1.232v.012c0 .44-.086.842-.244 1.232zm-1.171-1.232c0-.268-.049-.512-.134-.743a1.697 1.697 0 0 0-.39-.61 1.898 1.898 0 0 0-2.098-.427c-.22.098-.415.232-.573.415-.159.17-.293.378-.378.61a2.1 2.1 0 0 0-.134.743v.012c0 .269.048.513.134.744.085.232.22.44.39.61.17.17.366.317.585.415.22.097.476.158.756.158.269 0 .513-.048.744-.146.232-.098.427-.232.586-.415.158-.17.28-.378.378-.61a1.88 1.88 0 0 0 .134-.743v-.013zm6.927 3.061-2.976-3.902v3.902h-1.341v-6.146h1.244l2.878 3.781v-3.781h1.329v6.146h-1.134zm6.89-1c-.11.232-.268.44-.463.598a2.18 2.18 0 0 1-.708.366 3.028 3.028 0 0 1-.914.122c-.464 0-.927-.086-1.378-.244a3.485 3.485 0 0 1-1.232-.744l.793-.951c.28.232.573.414.865.549.293.134.622.207.964.207.28 0 .5-.049.658-.159a.469.469 0 0 0 .232-.426v-.013a.458.458 0 0 0-.049-.231.425.425 0 0 0-.183-.183 1.39 1.39 0 0 0-.378-.171 4.695 4.695 0 0 0-.634-.183 6.177 6.177 0 0 1-.841-.256 2.678 2.678 0 0 1-.647-.342 1.418 1.418 0 0 1-.414-.512c-.098-.207-.147-.463-.147-.768v-.012c0-.28.05-.537.159-.756.11-.22.256-.415.439-.586.195-.158.415-.292.683-.378.256-.085.549-.134.866-.134a3.502 3.502 0 0 1 2.28.793l-.707 1.012a5.24 5.24 0 0 0-.805-.439 2.038 2.038 0 0 0-.793-.159c-.268 0-.463.05-.597.159a.453.453 0 0 0-.195.378v.012c0 .098.024.183.06.256.037.074.11.134.208.195.097.061.232.11.415.171.17.049.39.11.658.183.305.085.585.17.83.28.243.098.45.22.61.366.17.147.292.318.377.5.086.196.122.427.122.696v.012c.037.28-.024.56-.134.792z" fill="#F17F21"/>
    <path d="M5.037 25.354c.146-.05.292-.11.439-.171a14.469 14.469 0 0 1-1.5-6.427c0-3.89 1.524-7.56 4.292-10.305a14.568 14.568 0 0 1 10.354-4.268c3.915 0 7.585 1.512 10.354 4.268a14.448 14.448 0 0 1 4.292 10.305c0 2.268-.524 4.451-1.5 6.427.147.06.293.11.44.17.255.098.512.171.768.245 1-2.074 1.56-4.39 1.56-6.842 0-8.756-7.121-15.854-15.914-15.854S2.707 10 2.707 18.756a15.7 15.7 0 0 0 1.561 6.842c.256-.074.512-.159.769-.244z" fill="#087FBC"/>
    <path d="m4.292 9.561-.342-.232a.603.603 0 0 0 .256-.122c.074-.048.135-.122.196-.195.024-.049.048-.085.06-.122a.346.346 0 0 0 .025-.097c0-.037 0-.061-.012-.086-.012-.024-.025-.048-.049-.06-.024-.025-.06-.025-.098-.025a.369.369 0 0 0-.11.024 1.42 1.42 0 0 0-.133.061c-.05.025-.098.061-.147.086-.134.085-.256.134-.366.134a.447.447 0 0 1-.317-.098.595.595 0 0 1-.17-.183.474.474 0 0 1-.05-.22c0-.085.025-.158.05-.243a.954.954 0 0 1 .134-.244c.06-.073.11-.146.158-.195a1.45 1.45 0 0 1 .16-.134l.316.22a.405.405 0 0 0-.11.048c-.037.024-.06.049-.097.073a.294.294 0 0 0-.086.086c-.024.024-.049.06-.073.085-.024.037-.049.073-.06.11a.377.377 0 0 0-.025.097c0 .037 0 .061.012.086.012.024.024.048.05.06a.164.164 0 0 0 .084.025c.024 0 .06 0 .098-.012a.46.46 0 0 0 .11-.049c.036-.024.085-.049.133-.085.074-.037.135-.074.196-.11.06-.024.121-.049.182-.061a.319.319 0 0 1 .183.012.42.42 0 0 1 .183.085.534.534 0 0 1 .183.196.488.488 0 0 1 .05.231.59.59 0 0 1-.062.244 1.543 1.543 0 0 1-.317.464.508.508 0 0 1-.195.146zm2.22-2.659-.318.354-.548-.097c-.037-.013-.074-.013-.11-.013h-.098c-.024 0-.049.013-.073.013-.024.012-.037.024-.06.036l-.074.085.524.464-.268.305-1.378-1.22.44-.488c.292-.329.572-.39.816-.17a.379.379 0 0 1 .11.134c.024.049.05.11.06.158a.38.38 0 0 1 0 .171.393.393 0 0 1-.06.17c.024-.011.05-.024.085-.036.037-.012.061-.012.098-.012h.11c.036 0 .073.012.11.012l.633.134zm-1.903-.17.39.341.122-.134a.285.285 0 0 0 .085-.207c0-.073-.036-.134-.085-.195-.122-.11-.244-.086-.378.06l-.134.135zm3.512-1.269-.34.293-.367-.22-.488.428.17.39-.34.293-.708-1.817.366-.329 1.707.963v-.001zm-.988-.097-.56-.33a.796.796 0 0 1-.135-.11l-.012.014a.554.554 0 0 1 .085.146l.256.598.366-.317v-.001zm3.22-1.403-.342.22-.597-.927c-.06-.097-.134-.207-.195-.341h-.013c.05.11.074.183.086.231l.317 1.28-.28.184-1.037-.805-.183-.183-.012.012c.11.146.195.28.268.39l.55.854-.318.207-1-1.548.512-.33.902.708c.074.06.135.122.195.183h.013c-.037-.098-.06-.183-.086-.269l-.267-1.122.5-.317.988 1.573zm2.171-1-.415.183-.293-.317-.597.269.048.426-.414.183-.147-1.95.452-.196 1.366 1.402zm-.915-.39-.44-.488c-.036-.036-.06-.085-.097-.134h-.012l.037.159.073.646.44-.183zM13.89.61l-.23 1.305.194.622-.403.122-.195-.622-.914-.964.45-.134.49.573a.912.912 0 0 1 .084.134.296.296 0 0 1 0-.146l.085-.744.44-.146zm2.183 1.427-1.085.207-.34-1.805 1.047-.195.061.329-.634.122.073.403.598-.11.061.329-.598.11.073.414.683-.121.061.317zM18.146.012l-.5 1.878-.464.037-.756-1.793.451-.036.476 1.243c.024.074.036.122.05.183h.011c0-.06.012-.122.024-.195l.293-1.292.415-.025zm2.33 1.927-.452-.024-.11-.415-.647-.037-.146.403-.45-.025.767-1.792.488.024.55 1.866zm-.635-.768-.159-.622a.656.656 0 0 1-.024-.171h-.012c-.013.049-.025.11-.037.159l-.232.61.464.024zm3.255.524c-.06.244-.158.415-.292.512-.146.098-.317.122-.524.073a.772.772 0 0 1-.256-.11l.085-.377a.41.41 0 0 0 .22.134c.182.049.304-.073.377-.342l.257-1.06.402.097-.268 1.073zm2.163 1.451L24.82 3l.013-.427-.64-.22-.265.342-.44-.146 1.294-1.5.478.17v1.927zm-.415-.902.025-.646c0-.05.013-.098.025-.171h-.012a.494.494 0 0 1-.088.134l-.415.524.465.159zm2.972.146-1.073.78-.293.586-.365-.183.291-.573.012-1.33.427.208-.049.744c0 .012-.012.06-.024.158.037-.048.073-.085.098-.11l.585-.475.39.195h.001zm1.012 2.83-.378-.257.122-.414-.548-.366-.342.268-.378-.244 1.585-1.146.415.268-.476 1.89v.001zm-.158-.976.183-.622c.012-.049.036-.098.06-.159h-.01c-.038.037-.075.086-.123.11l-.513.403.403.268zm2.585 1.061-.402-.342-.976 1.135-.317-.269.988-1.134-.39-.341.22-.256 1.11.951-.233.256zm.525 2.744-.28-.305.56-.5-.512-.561-.56.5-.282-.305 1.366-1.232.281.305-.549.488.512.561.55-.488.28.305-1.366 1.232zm1.11 1.536-.635-.902 1.512-1.049.61.866-.28.195-.366-.524-.342.231.342.488-.28.195-.342-.487-.342.243.391.561-.269.183zM7.695 24.256a12.14 12.14 0 0 1-1.317-5.5c0-3.256 1.268-6.317 3.585-8.622a12.196 12.196 0 0 1 8.66-3.573c3.267 0 6.353 1.268 8.657 3.573a12.07 12.07 0 0 1 3.586 8.622c0 1.94-.45 3.817-1.317 5.5.39.159.78.33 1.17.488a13.36 13.36 0 0 0 1.415-5.988c0-7.439-6.049-13.463-13.524-13.463-7.464 0-13.525 6.024-13.525 13.463 0 2.159.513 4.183 1.415 5.988.415-.17.805-.33 1.195-.488zm27.232 3.878c-.964-.085-1.915-.33-2.842-.61-1.646-.5-3.292-1.012-4.95-1.475-1.61-.44-3.318-.634-4.964-.256-.903.207-1.78.56-2.549 1.073-.22.146-.44.305-.646.488-.06.048-.135.17-.208.195.195-.086.39-.159.598-.22 2.414-.817 5.11-.683 7.597-.317.976.147 1.952.342 2.915.573 1.366.342 2.66.817 4.085.866.403.012.793 0 1.196-.036l-.232-.28v-.001zm-16.622-.78a4.975 4.975 0 0 0-.646-.488 7.478 7.478 0 0 0-2.55-1.073c-1.646-.378-3.353-.195-4.963.256-1.658.451-3.305.963-4.963 1.463-.927.28-1.89.525-2.854.61l-.22.28c.403.037.806.05 1.208.037 1.427-.049 2.72-.524 4.085-.854.964-.244 1.94-.426 2.915-.573 2.488-.366 5.183-.5 7.598.317.195.073.402.147.597.22-.06-.025-.146-.147-.207-.195z" fill="#087FBC"/>
    <path d="M33.867 26.768c-.56-.11-1.11-.268-1.645-.463-1.27-.464-2.477-1.085-3.77-1.5-1.536-.488-3.146-.817-4.756-.817-1.33 0-2.683.22-3.878.805-.146.073-1.037.475-1.183.731-.146-.256-1.036-.658-1.183-.731-1.195-.586-2.549-.805-3.878-.805-1.621 0-3.22.33-4.756.817-1.293.402-2.5 1.036-3.768 1.5-.537.195-1.086.354-1.647.463l-.548.72c2.44-.354 4.866-1.525 7.245-2 1.536-.305 3.133-.488 4.707-.342.732.074 1.475.22 2.158.5.317.134.634.28.915.476.122.073.61.366.744.56.012.013.012.025.024.038 0-.013.012-.025.024-.037.146-.195.634-.488.744-.561.293-.183.598-.342.915-.476.683-.28 1.415-.426 2.159-.5 1.573-.146 3.17.037 4.707.342 2.39.475 4.805 1.646 7.244 2l-.574-.72z" fill="#087FBC"/>
    <path d="M13.56 23.037a10.3 10.3 0 0 1 1.623.122v-7.183c0-1.05-.024-1.83-.085-2.342h.036c.134.268.378.67.732 1.195l5.56 8.44c.745-.171 1.5-.245 2.257-.245.488 0 .988.037 1.476.086V9.463h-3.086v8c0 .988.025 1.647.086 1.988h-.037c-.22-.39-.463-.78-.732-1.183l-5.768-8.805h-3.524v13.67c.475-.06.975-.096 1.463-.096z" fill="#F17F21"/>
    <path fill-rule="evenodd" clip-rule="evenodd" d="M11.5 11.963v-1.597a10.927 10.927 0 0 0-3.902 8.377c0 1.83.45 3.561 1.256 5.085.378-.122.756-.231 1.146-.329a9.832 9.832 0 0 1-1.232-4.756 9.77 9.77 0 0 1 2.732-6.78zm4.439-3.085.244.366c.78-.195 1.61-.305 2.45-.305 1 0 1.952.146 2.867.427V8.89h1.963a11.004 11.004 0 0 0-9.634.001h2.11V8.878zm9.817 1.5v1.598a9.748 9.748 0 0 1 2.732 6.78 9.746 9.746 0 0 1-1.232 4.756c.39.098.768.208 1.146.33a10.827 10.827 0 0 0 1.257-5.086c0-3.366-1.525-6.366-3.903-8.378z" fill="#087FBC"/>
    <path fill-rule="evenodd" clip-rule="evenodd" d="M21.488 17.366v-6.561a8.526 8.526 0 0 0-2.866-.5c-.56 0-1.122.06-1.645.159l4.511 6.902zm-9.987-3.195a8.397 8.397 0 0 0-1.354 4.585c0 1.634.476 3.17 1.28 4.464.024 0 .05-.013.074-.013V14.17zm14.255 0v9.036c.026 0 .05.013.073.013a8.338 8.338 0 0 0 1.28-4.464c0-1.695-.5-3.268-1.353-4.585zm-9.988 1.573v7.537a7.927 7.927 0 0 1 1.671.573c.146.073 1.038.475 1.183.73.146-.255 1.038-.657 1.183-.73.33-.16.67-.293 1.024-.403l-5.06-7.707z" fill="#087FBC"/>
    <path d="m1.585 11.232.574-.024.292-.476.195.524.55.135-.44.353.05.56L2.328 12l-.524.208.146-.537-.366-.44zm-1.048 3.06.548-.121.22-.524.28.487.561.037-.366.415.135.548-.513-.22-.475.294.05-.561-.44-.354zm-.5 3.196.524-.22.11-.548.378.427.55-.061-.282.475.232.512L1 17.939l-.427.378-.049-.561-.487-.268zm.061 3.22.475-.305.025-.561.44.366.535-.16-.207.525.317.464-.56-.037-.343.439-.146-.536-.536-.195zm.634 3.17.414-.378-.085-.561.488.28.512-.255-.11.56.39.403-.56.06-.257.5-.244-.511-.548-.098zM35.657 11.232l-.561-.024-.305-.476-.195.524-.55.135.44.353-.036.56.463-.304.525.208-.147-.537.366-.44zm1.049 3.06-.55-.121-.206-.524-.293.487-.561.037.366.415-.134.548.524-.22.476.294-.061-.561.439-.354zm.5 3.196-.524-.22-.11-.548-.366.427-.561-.061.293.475-.232.512.549-.134.414.378.049-.561.488-.268zm-.061 3.22-.476-.305-.012-.561-.44.366-.548-.16.208.525-.317.464.56-.037.354.439.134-.536.537-.195zm-.622 3.17-.415-.378.074-.561-.488.28-.5-.255.109.56-.402.403.56.06.269.5.232-.511.56-.098z" fill="#F17F21"/>
</svg>
