<svg width="288" height="132" viewBox="0 0 288 132" fill="none" xmlns="http://www.w3.org/2000/svg">
    <g clip-path="url(#juhydsiefa)">
        <rect width="288" height="132" rx="6" fill="url(#3r0ba2noqb)"/>
        <path d="M1-.215 288-5v20.24L79.63 56.055c-15.356 3.008-31.865-1.35-39.623-10.46L1-.215z" fill="url(#n6h80r3r6c)"/>
        <path d="M21.883 36a4 4 0 0 1 4-4h40a4 4 0 0 1 4 4v52a8 8 0 0 1-8 8h-36a4 4 0 0 1-4-4V36z" fill="url(#5ev35mm5nd)"/>
        <path d="M43.383 59h16" stroke="#FFE1F9" stroke-width="3" stroke-linecap="round"/>
        <path d="m31.883 59 1.222 1.297a1 1 0 0 0 1.388.065l4.39-3.862M31.883 48l1.222 1.297a1 1 0 0 0 1.388.065l4.39-3.862" stroke="#FFE1F9" stroke-width="3" stroke-linecap="round" stroke-linejoin="round"/>
        <path d="M43.383 48h16" stroke="#FFE1F9" stroke-width="3" stroke-linecap="round"/>
        <circle cx="64.883" cy="82" r="14" fill="#C455F9"/>
        <path fill-rule="evenodd" clip-rule="evenodd" d="M64.384 77.025c.274-.028.499.199.499.475v2.363a.5.5 0 0 0 .838.369l4.76-4.363a.5.5 0 0 0 0-.738l-4.76-4.363a.5.5 0 0 0-.838.369V73.5a.525.525 0 0 1-.5.516 8 8 0 1 0 8.484 8.484.477.477 0 0 0-.484-.5h-2a.542.542 0 0 0-.525.5 5 5 0 1 1-5.474-5.475z" fill="#FFE5F2"/>
        <path d="M102.352 30c-.299 0-.565-.09-.8-.272-.235-.192-.352-.427-.352-.704v-9.248a.958.958 0 0 1 .976-.976h4.608c.555 0 1.072.15 1.552.448.491.288.885.693 1.184 1.216.299.512.448 1.104.448 1.776 0 .405-.085.8-.256 1.184a3.48 3.48 0 0 1-.672 1.04c-.277.31-.592.55-.944.72l.016-.368c.299.16.544.352.736.576.203.213.357.448.464.704.117.245.187.512.208.8.043.267.069.501.08.704.021.203.053.373.096.512a.599.599 0 0 0 .288.32.875.875 0 0 1 .432.608.718.718 0 0 1-.176.688.816.816 0 0 1-.448.272 1.553 1.553 0 0 1-.544 0 1.81 1.81 0 0 1-.448-.16 2.337 2.337 0 0 1-.544-.464c-.181-.213-.331-.496-.448-.848-.107-.352-.16-.805-.16-1.36 0-.181-.032-.347-.096-.496a1.07 1.07 0 0 0-.272-.4 1.032 1.032 0 0 0-.448-.256 1.924 1.924 0 0 0-.64-.096h-3.232l.24-.368v3.472c0 .277-.075.512-.224.704-.149.181-.357.272-.624.272zm.624-5.728h3.728c.192 0 .379-.085.56-.256.181-.181.331-.421.448-.72.117-.31.176-.645.176-1.008 0-.47-.128-.859-.384-1.168-.245-.32-.512-.48-.8-.48h-3.696l.192-.512v4.528l-.224-.384zm13.002 5.888c-.906 0-1.696-.187-2.368-.56a4.054 4.054 0 0 1-1.536-1.552c-.352-.65-.528-1.387-.528-2.208 0-.96.192-1.776.576-2.448.395-.683.907-1.205 1.536-1.568a3.945 3.945 0 0 1 2-.544c.544 0 1.056.112 1.536.336a4.12 4.12 0 0 1 1.296.928c.374.384.667.832.88 1.344.224.512.336 1.056.336 1.632a.82.82 0 0 1-.304.624c-.192.16-.416.24-.672.24h-6.112l-.48-1.6h5.872l-.352.32v-.432a1.429 1.429 0 0 0-.336-.832 1.97 1.97 0 0 0-.736-.576 1.986 1.986 0 0 0-.928-.224c-.32 0-.618.043-.896.128a1.72 1.72 0 0 0-.72.432c-.202.203-.362.475-.48.816-.117.341-.176.773-.176 1.296 0 .576.118 1.067.352 1.472.246.395.555.699.928.912.384.203.79.304 1.216.304.395 0 .71-.032.944-.096.235-.064.422-.139.56-.224a6.9 6.9 0 0 1 .4-.24c.192-.096.374-.144.544-.144.235 0 .427.08.576.24.16.16.24.347.24.56 0 .288-.149.55-.448.784-.277.235-.666.443-1.168.624a4.778 4.778 0 0 1-1.552.256zm5.712-8.72c.202 0 .389.053.56.16.17.096.298.245.384.448l2.352 5.376-.352.16 2.4-5.52c.181-.427.464-.63.848-.608.266 0 .48.085.64.256a.8.8 0 0 1 .256.608.685.685 0 0 1-.048.24 1.663 1.663 0 0 1-.08.24l-2.992 6.592c-.171.384-.443.587-.816.608a.9.9 0 0 1-.592-.112 1.014 1.014 0 0 1-.416-.496l-2.976-6.592c-.022-.053-.048-.123-.08-.208a1.233 1.233 0 0 1-.032-.304c0-.192.085-.379.256-.56.17-.192.4-.288.688-.288zm10.408 7.584a.989.989 0 0 1-.272.704.933.933 0 0 1-.688.272.933.933 0 0 1-.688-.272.989.989 0 0 1-.272-.704v-6.608c0-.277.091-.507.272-.688a.906.906 0 0 1 .688-.288c.277 0 .507.096.688.288.181.181.272.41.272.688v6.608zm-.976-8.624c-.363 0-.619-.059-.768-.176-.149-.117-.224-.325-.224-.624v-.304c0-.31.08-.517.24-.624.171-.117.427-.176.768-.176.373 0 .635.059.784.176.149.117.224.325.224.624v.304c0 .31-.08.523-.24.64-.16.107-.421.16-.784.16zm2.453 8.272c-.106-.15-.154-.341-.144-.576.011-.235.15-.437.416-.608a.829.829 0 0 1 .544-.128c.192.01.379.107.56.288.31.31.635.55.976.72.342.17.768.256 1.28.256.16-.01.336-.032.528-.064.192-.043.358-.128.496-.256.15-.139.224-.347.224-.624a.703.703 0 0 0-.24-.56 2.004 2.004 0 0 0-.64-.352 9.279 9.279 0 0 0-.864-.272c-.33-.096-.672-.203-1.024-.32a4.533 4.533 0 0 1-.944-.448 2.274 2.274 0 0 1-.704-.752c-.181-.31-.272-.699-.272-1.168 0-.533.15-.987.448-1.36a2.942 2.942 0 0 1 1.152-.864 3.83 3.83 0 0 1 1.504-.304c.331 0 .678.043 1.04.128.363.075.71.203 1.04.384.331.17.608.4.832.688.118.16.187.352.208.576.022.224-.08.427-.304.608a.801.801 0 0 1-.56.176.885.885 0 0 1-.528-.224 1.872 1.872 0 0 0-.736-.56 2.442 2.442 0 0 0-1.04-.208c-.16 0-.336.021-.528.064a.937.937 0 0 0-.48.24c-.138.117-.208.31-.208.576 0 .245.08.443.24.592.16.139.374.256.64.352.278.085.571.17.88.256.32.085.646.187.976.304.331.117.635.272.912.464.278.192.502.443.672.752.171.299.256.683.256 1.152 0 .544-.16 1.008-.48 1.392a3.11 3.11 0 0 1-1.2.88c-.48.192-.97.288-1.472.288a5.855 5.855 0 0 1-1.888-.32 3.32 3.32 0 0 1-1.568-1.168zm12.247 1.488c-.907 0-1.696-.187-2.368-.56a4.054 4.054 0 0 1-1.536-1.552c-.352-.65-.528-1.387-.528-2.208 0-.96.192-1.776.576-2.448.395-.683.907-1.205 1.536-1.568a3.943 3.943 0 0 1 2-.544c.544 0 1.056.112 1.536.336a4.12 4.12 0 0 1 1.296.928c.373.384.667.832.88 1.344.224.512.336 1.056.336 1.632a.823.823 0 0 1-.304.624c-.192.16-.416.24-.672.24h-6.112l-.48-1.6h5.872l-.352.32v-.432a1.429 1.429 0 0 0-.336-.832 1.97 1.97 0 0 0-.736-.576 1.986 1.986 0 0 0-.928-.224c-.32 0-.619.043-.896.128a1.72 1.72 0 0 0-.72.432c-.203.203-.363.475-.48.816-.117.341-.176.773-.176 1.296 0 .576.117 1.067.352 1.472.245.395.555.699.928.912.384.203.789.304 1.216.304.395 0 .709-.032.944-.096s.421-.139.56-.224c.149-.096.283-.176.4-.24a1.22 1.22 0 0 1 .544-.144c.235 0 .427.08.576.24.16.16.24.347.24.56 0 .288-.149.55-.448.784-.277.235-.667.443-1.168.624a4.783 4.783 0 0 1-1.552.256zm18.546-11.36c.256 0 .464.085.624.256a.9.9 0 0 1 .24.64v9.328a.958.958 0 0 1-.976.976c-.139 0-.283-.021-.432-.064a.795.795 0 0 1-.32-.208l-6.288-7.984.416-.256v7.616c0 .256-.085.47-.256.64-.16.17-.373.256-.64.256a.816.816 0 0 1-.624-.256.9.9 0 0 1-.24-.64v-9.328a.958.958 0 0 1 .976-.976c.149 0 .304.032.464.096.16.053.277.139.352.256l6.096 7.776-.272.192v-7.424a.9.9 0 0 1 .24-.64c.16-.17.373-.256.64-.256zm11.414 6.928c0 .875-.198 1.648-.592 2.32a4.136 4.136 0 0 1-1.568 1.552c-.651.373-1.382.56-2.192.56a4.411 4.411 0 0 1-2.208-.56 4.281 4.281 0 0 1-1.568-1.552c-.384-.672-.576-1.445-.576-2.32 0-.875.192-1.643.576-2.304a4.245 4.245 0 0 1 1.568-1.568 4.315 4.315 0 0 1 2.208-.576c.81 0 1.541.192 2.192.576a4.103 4.103 0 0 1 1.568 1.568c.394.661.592 1.43.592 2.304zm-1.92 0c0-.544-.112-1.013-.336-1.408a2.358 2.358 0 0 0-.88-.944 2.268 2.268 0 0 0-1.216-.336c-.448 0-.859.112-1.232.336a2.505 2.505 0 0 0-.88.944c-.214.395-.32.864-.32 1.408 0 .533.106 1.003.32 1.408.224.395.517.704.88.928.373.224.784.336 1.232.336.448 0 .853-.112 1.216-.336.373-.224.666-.533.88-.928.224-.405.336-.875.336-1.408zm13.456-4.288c.245 0 .459.096.64.288a.954.954 0 0 1 .272.704c0 .075-.005.144-.016.208a.973.973 0 0 1-.048.16l-2.448 6.592a.923.923 0 0 1-.4.496.935.935 0 0 1-.608.112c-.363-.021-.635-.224-.816-.608l-1.584-4.56.416.016-1.488 4.544c-.181.384-.453.587-.816.608a.959.959 0 0 1-.608-.112.923.923 0 0 1-.4-.496l-2.448-6.592a1.06 1.06 0 0 1 .192-1.056c.171-.203.405-.304.704-.304.203 0 .384.048.544.144.16.096.272.25.336.464l1.936 5.248-.4-.032 1.456-3.952c.171-.395.464-.592.88-.592.235 0 .411.053.528.16.128.096.229.24.304.432l1.456 3.952-.48.064 1.968-5.28c.128-.405.437-.608.928-.608zm3.529 5.024c-.363 0-.56-.203-.592-.608l-.464-5.888c-.021-.33.064-.608.256-.832a1.01 1.01 0 0 1 .784-.336c.32 0 .581.112.784.336.203.224.288.501.256.832l-.448 5.888c-.032.405-.224.608-.576.608zM190.735 30c-.309 0-.549-.08-.72-.24-.16-.17-.24-.41-.24-.72v-.272c0-.31.08-.544.24-.704.171-.17.411-.256.72-.256h.208c.309 0 .544.085.704.256.171.16.256.395.256.704v.272c0 .31-.085.55-.256.72-.16.16-.395.24-.704.24h-.208zM101.608 58a.59.59 0 0 1-.396-.144.457.457 0 0 1-.156-.348V50.08a.474.474 0 0 1 .48-.48h3.312c.448 0 .852.104 1.212.312.36.2.644.48.852.84.216.352.324.76.324 1.224 0 .336-.064.652-.192.948-.128.288-.304.54-.528.756-.224.208-.48.368-.768.48l-.264-.192c.272.064.516.18.732.348a1.89 1.89 0 0 1 .744 1.5c.016.296.036.532.06.708.024.176.06.316.108.42a.563.563 0 0 0 .204.228.483.483 0 0 1 .216.288.37.37 0 0 1-.06.348.402.402 0 0 1-.204.156c-.088.024-.176.032-.264.024a.511.511 0 0 1-.228-.072 1.456 1.456 0 0 1-.372-.312c-.12-.144-.22-.348-.3-.612-.08-.264-.12-.624-.12-1.08 0-.256-.04-.468-.12-.636a1.097 1.097 0 0 0-.324-.408 1.2 1.2 0 0 0-.456-.216 2.22 2.22 0 0 0-.516-.06h-2.676l.144-.216v3.132c0 .136-.04.252-.12.348a.4.4 0 0 1-.324.144zm.3-4.272h2.94c.232-.016.448-.096.648-.24.208-.144.376-.344.504-.6a1.91 1.91 0 0 0 .204-.888c0-.424-.136-.776-.408-1.056-.264-.28-.6-.42-1.008-.42h-2.832l.096-.228v3.648l-.144-.216zm9.899 4.392c-.64 0-1.2-.136-1.68-.408a2.964 2.964 0 0 1-1.128-1.116c-.264-.48-.396-1.032-.396-1.656 0-.696.136-1.288.408-1.776.28-.496.64-.872 1.08-1.128.448-.264.92-.396 1.416-.396.368 0 .724.068 1.068.204.344.136.648.336.912.6.264.256.476.568.636.936.16.36.244.764.252 1.212a.423.423 0 0 1-.144.324.482.482 0 0 1-.336.132h-4.74l-.216-.828h4.62l-.192.168v-.264a1.515 1.515 0 0 0-.336-.84 1.835 1.835 0 0 0-.684-.552 1.9 1.9 0 0 0-.84-.192c-.24 0-.48.044-.72.132-.232.08-.444.216-.636.408a2.14 2.14 0 0 0-.456.72c-.112.296-.168.652-.168 1.068 0 .464.092.872.276 1.224.192.352.456.632.792.84.336.2.728.3 1.176.3.28 0 .524-.036.732-.108.208-.072.388-.16.54-.264.152-.112.28-.224.384-.336a.53.53 0 0 1 .3-.108c.12 0 .216.04.288.12.08.08.12.176.12.288 0 .136-.064.256-.192.36-.224.248-.528.468-.912.66a2.797 2.797 0 0 1-1.224.276zm3.952-6.432c.096 0 .188.028.276.084.088.048.152.12.192.216l1.992 4.68-.192.096L120.055 52c.088-.216.236-.32.444-.312.12 0 .224.04.312.12.088.08.132.18.132.3a.453.453 0 0 1-.024.144.428.428 0 0 1-.036.108l-2.316 5.328c-.088.2-.228.304-.42.312a.563.563 0 0 1-.3-.06.477.477 0 0 1-.192-.252l-2.316-5.316a1.43 1.43 0 0 1-.048-.108.745.745 0 0 1-.012-.144c0-.104.04-.2.12-.288a.464.464 0 0 1 .36-.144zm7.405 5.82a.474.474 0 0 1-.144.348.436.436 0 0 1-.336.144.45.45 0 0 1-.348-.144.497.497 0 0 1-.132-.348V52.18a.474.474 0 0 1 .48-.48c.136 0 .248.048.336.144.096.088.144.2.144.336v5.328zm-.48-6.612c-.2 0-.348-.04-.444-.12-.096-.08-.144-.204-.144-.372v-.168c0-.168.052-.292.156-.372.104-.08.252-.12.444-.12s.336.04.432.12c.096.08.144.204.144.372v.168c0 .168-.052.292-.156.372-.096.08-.24.12-.432.12zm1.856 6.12a.496.496 0 0 1-.096-.324c.008-.12.076-.224.204-.312a.412.412 0 0 1 .276-.072c.112.008.212.06.3.156.224.264.48.476.768.636.288.152.64.228 1.056.228a2.41 2.41 0 0 0 .576-.096c.192-.056.352-.152.48-.288a.788.788 0 0 0 .204-.564c0-.224-.068-.4-.204-.528a1.442 1.442 0 0 0-.528-.324 5.255 5.255 0 0 0-.708-.228 12.585 12.585 0 0 1-.78-.24 3.535 3.535 0 0 1-.696-.348 1.82 1.82 0 0 1-.492-.528 1.583 1.583 0 0 1-.18-.78c0-.36.096-.672.288-.936.2-.264.464-.468.792-.612.336-.144.7-.216 1.092-.216.224 0 .456.028.696.084.248.048.488.136.72.264.232.12.436.288.612.504.072.08.112.18.12.3.008.12-.044.228-.156.324a.441.441 0 0 1-.564-.036c-.168-.2-.38-.352-.636-.456a1.99 1.99 0 0 0-.828-.168c-.192 0-.38.028-.564.084a1.05 1.05 0 0 0-.468.288c-.12.128-.18.308-.18.54.008.216.08.392.216.528s.32.248.552.336c.232.08.488.16.768.24.256.064.5.14.732.228.24.08.456.188.648.324s.344.312.456.528c.112.208.168.472.168.792 0 .368-.104.688-.312.96a2.024 2.024 0 0 1-.828.612c-.336.136-.7.204-1.092.204-.44 0-.876-.084-1.308-.252a2.617 2.617 0 0 1-1.104-.852zm8.9 1.104c-.64 0-1.2-.136-1.68-.408a2.964 2.964 0 0 1-1.128-1.116c-.264-.48-.396-1.032-.396-1.656 0-.696.136-1.288.408-1.776.28-.496.64-.872 1.08-1.128.448-.264.92-.396 1.416-.396.368 0 .724.068 1.068.204.344.136.648.336.912.6.264.256.476.568.636.936.16.36.244.764.252 1.212a.423.423 0 0 1-.144.324.482.482 0 0 1-.336.132h-4.74l-.216-.828h4.62l-.192.168v-.264a1.515 1.515 0 0 0-.336-.84 1.835 1.835 0 0 0-.684-.552 1.9 1.9 0 0 0-.84-.192c-.24 0-.48.044-.72.132-.232.08-.444.216-.636.408a2.14 2.14 0 0 0-.456.72c-.112.296-.168.652-.168 1.068 0 .464.092.872.276 1.224.192.352.456.632.792.84.336.2.728.3 1.176.3.28 0 .524-.036.732-.108.208-.072.388-.16.54-.264.152-.112.28-.224.384-.336a.53.53 0 0 1 .3-.108c.12 0 .216.04.288.12.08.08.12.176.12.288 0 .136-.064.256-.192.36-.224.248-.528.468-.912.66a2.797 2.797 0 0 1-1.224.276zm8.239-.612a.474.474 0 0 1-.144.348.436.436 0 0 1-.336.144.45.45 0 0 1-.348-.144.497.497 0 0 1-.132-.348V52.18a.474.474 0 0 1 .48-.48c.136 0 .248.048.336.144.096.088.144.2.144.336v5.328zm-.48-6.612c-.2 0-.348-.04-.444-.12-.096-.08-.144-.204-.144-.372v-.168c0-.168.052-.292.156-.372.104-.08.252-.12.444-.12s.336.04.432.12c.096.08.144.204.144.372v.168c0 .168-.052.292-.156.372-.096.08-.24.12-.432.12zm5.289.744c.544 0 .972.112 1.284.336.312.224.532.524.66.9.136.376.204.796.204 1.26v3.372a.474.474 0 0 1-.144.348.436.436 0 0 1-.336.144.474.474 0 0 1-.348-.144.497.497 0 0 1-.132-.348V54.16c0-.304-.048-.576-.144-.816a1.15 1.15 0 0 0-.456-.588c-.208-.152-.496-.228-.864-.228-.336 0-.644.076-.924.228-.28.144-.504.34-.672.588-.168.24-.252.512-.252.816v3.348a.474.474 0 0 1-.144.348.436.436 0 0 1-.336.144.474.474 0 0 1-.348-.144.497.497 0 0 1-.132-.348v-5.232a.474.474 0 0 1 .48-.48.45.45 0 0 1 .348.144c.088.088.132.2.132.336v.852l-.24.264c.04-.208.132-.416.276-.624a2.45 2.45 0 0 1 .54-.576c.216-.168.456-.3.72-.396.264-.104.54-.156.828-.156zm6.683 0c.408 0 .776.044 1.104.132.328.088.588.208.78.36.192.152.288.324.288.516a.493.493 0 0 1-.108.3.342.342 0 0 1-.288.144.564.564 0 0 1-.276-.06 1.096 1.096 0 0 1-.192-.156.708.708 0 0 0-.24-.168 1.298 1.298 0 0 0-.42-.132 3.216 3.216 0 0 0-.552-.048c-.44 0-.828.104-1.164.312a2.253 2.253 0 0 0-.78.84 2.465 2.465 0 0 0-.288 1.2c0 .448.092.848.276 1.2a2.083 2.083 0 0 0 1.908 1.152c.28 0 .504-.024.672-.072.168-.048.308-.104.42-.168.144-.08.252-.16.324-.24.08-.08.184-.12.312-.12.136 0 .24.044.312.132.08.088.12.196.12.324 0 .144-.1.296-.3.456-.2.16-.472.296-.816.408-.336.112-.72.168-1.152.168-.608 0-1.14-.14-1.596-.42a2.997 2.997 0 0 1-1.068-1.164 3.65 3.65 0 0 1-.372-1.656c0-.608.128-1.156.384-1.644a3.057 3.057 0 0 1 1.092-1.164c.464-.288 1.004-.432 1.62-.432zm9.355 3.24c0 .624-.14 1.18-.42 1.668a3.028 3.028 0 0 1-1.116 1.152c-.464.28-.988.42-1.572.42-.584 0-1.112-.14-1.584-.42a3.118 3.118 0 0 1-1.128-1.152c-.272-.488-.408-1.044-.408-1.668 0-.624.136-1.18.408-1.668.28-.488.656-.872 1.128-1.152.472-.28 1-.42 1.584-.42.584 0 1.108.14 1.572.42.472.28.844.664 1.116 1.152.28.488.42 1.044.42 1.668zm-.96 0c0-.464-.096-.872-.288-1.224a2.074 2.074 0 0 0-.768-.828c-.32-.2-.684-.3-1.092-.3-.408 0-.776.1-1.104.3-.32.2-.576.476-.768.828-.192.352-.288.76-.288 1.224 0 .456.096.86.288 1.212.192.352.448.632.768.84.328.2.696.3 1.104.3.408 0 .772-.1 1.092-.3a2.16 2.16 0 0 0 .768-.84 2.49 2.49 0 0 0 .288-1.212zM164.45 58a.474.474 0 0 1-.348-.144.497.497 0 0 1-.132-.348v-5.232a.474.474 0 0 1 .48-.48.45.45 0 0 1 .348.144c.088.088.132.2.132.336v1.584l-.144-.252a2.51 2.51 0 0 1 .732-1.356c.192-.192.412-.34.66-.444a1.96 1.96 0 0 1 .816-.168c.176 0 .336.044.48.132.152.08.228.196.228.348 0 .168-.044.292-.132.372a.434.434 0 0 1-.3.12.773.773 0 0 1-.3-.06.801.801 0 0 0-.36-.072c-.2 0-.4.056-.6.168a1.887 1.887 0 0 0-.54.456c-.16.2-.292.428-.396.684a2.208 2.208 0 0 0-.144.804v2.916a.474.474 0 0 1-.144.348.436.436 0 0 1-.336.144zm4.816 0a.474.474 0 0 1-.348-.144.497.497 0 0 1-.132-.348v-5.232a.474.474 0 0 1 .48-.48.45.45 0 0 1 .348.144c.088.088.132.2.132.336v1.584l-.144-.252a2.51 2.51 0 0 1 .732-1.356c.192-.192.412-.34.66-.444a1.96 1.96 0 0 1 .816-.168c.176 0 .336.044.48.132.152.08.228.196.228.348 0 .168-.044.292-.132.372a.434.434 0 0 1-.3.12.773.773 0 0 1-.3-.06.801.801 0 0 0-.36-.072c-.2 0-.4.056-.6.168a1.887 1.887 0 0 0-.54.456c-.16.2-.292.428-.396.684a2.208 2.208 0 0 0-.144.804v2.916a.474.474 0 0 1-.144.348.436.436 0 0 1-.336.144zm6.935.12c-.64 0-1.2-.136-1.68-.408a2.964 2.964 0 0 1-1.128-1.116c-.264-.48-.396-1.032-.396-1.656 0-.696.136-1.288.408-1.776.28-.496.64-.872 1.08-1.128.448-.264.92-.396 1.416-.396.368 0 .724.068 1.068.204.344.136.648.336.912.6.264.256.476.568.636.936.16.36.244.764.252 1.212a.423.423 0 0 1-.144.324.482.482 0 0 1-.336.132h-4.74l-.216-.828h4.62l-.192.168v-.264a1.515 1.515 0 0 0-.336-.84 1.835 1.835 0 0 0-.684-.552 1.9 1.9 0 0 0-.84-.192c-.24 0-.48.044-.72.132-.232.08-.444.216-.636.408a2.14 2.14 0 0 0-.456.72c-.112.296-.168.652-.168 1.068 0 .464.092.872.276 1.224.192.352.456.632.792.84.336.2.728.3 1.176.3.28 0 .524-.036.732-.108.208-.072.388-.16.54-.264.152-.112.28-.224.384-.336a.53.53 0 0 1 .3-.108c.12 0 .216.04.288.12.08.08.12.176.12.288 0 .136-.064.256-.192.36-.224.248-.528.468-.912.66a2.797 2.797 0 0 1-1.224.276zm6.771-6.48c.408 0 .776.044 1.104.132.328.088.588.208.78.36.192.152.288.324.288.516a.493.493 0 0 1-.108.3.342.342 0 0 1-.288.144.564.564 0 0 1-.276-.06 1.096 1.096 0 0 1-.192-.156.708.708 0 0 0-.24-.168 1.298 1.298 0 0 0-.42-.132 3.216 3.216 0 0 0-.552-.048c-.44 0-.828.104-1.164.312a2.253 2.253 0 0 0-.78.84 2.465 2.465 0 0 0-.288 1.2c0 .448.092.848.276 1.2a2.083 2.083 0 0 0 1.908 1.152c.28 0 .504-.024.672-.072.168-.048.308-.104.42-.168.144-.08.252-.16.324-.24.08-.08.184-.12.312-.12.136 0 .24.044.312.132.08.088.12.196.12.324 0 .144-.1.296-.3.456-.2.16-.472.296-.816.408-.336.112-.72.168-1.152.168-.608 0-1.14-.14-1.596-.42a2.997 2.997 0 0 1-1.068-1.164 3.65 3.65 0 0 1-.372-1.656c0-.608.128-1.156.384-1.644a3.057 3.057 0 0 1 1.092-1.164c.464-.288 1.004-.432 1.62-.432zm3.223.192h2.82c.128 0 .232.044.312.132a.427.427 0 0 1 .132.312.44.44 0 0 1-.132.324.422.422 0 0 1-.312.12h-2.82a.427.427 0 0 1-.312-.132.44.44 0 0 1-.132-.324c0-.12.044-.22.132-.3a.427.427 0 0 1 .312-.132zm1.26-1.632c.136 0 .248.048.336.144.088.088.132.2.132.336v5.796c0 .192.028.336.084.432a.48.48 0 0 0 .216.204.872.872 0 0 0 .276.048c.08 0 .148-.012.204-.036a.476.476 0 0 1 .216-.048c.08 0 .152.04.216.12a.39.39 0 0 1 .108.288c0 .144-.084.268-.252.372a1.116 1.116 0 0 1-.564.144c-.112 0-.252-.008-.42-.024a1.252 1.252 0 0 1-.48-.156 1.07 1.07 0 0 1-.408-.432c-.104-.208-.156-.496-.156-.864V50.68c0-.136.048-.248.144-.336a.474.474 0 0 1 .348-.144zm4.395 7.308a.474.474 0 0 1-.144.348.474.474 0 0 1-.348.144.436.436 0 0 1-.336-.144.497.497 0 0 1-.132-.348V49.6a.474.474 0 0 1 .48-.48.45.45 0 0 1 .348.144c.088.088.132.2.132.336v7.908zm6.33-5.808c.136 0 .248.048.336.144.096.088.144.2.144.336v5.232c0 .672-.132 1.228-.396 1.668-.264.448-.62.78-1.068.996-.44.216-.94.324-1.5.324-.312 0-.612-.032-.9-.096a2.59 2.59 0 0 1-.708-.252.703.703 0 0 1-.324-.276.408.408 0 0 1-.024-.336.547.547 0 0 1 .24-.3.381.381 0 0 1 .348 0c.128.056.312.132.552.228.248.104.524.156.828.156.416 0 .772-.08 1.068-.24.296-.16.524-.396.684-.708.16-.304.24-.684.24-1.14v-.852l.144.3c-.128.248-.3.464-.516.648a2.454 2.454 0 0 1-.744.432c-.28.104-.588.156-.924.156-.456 0-.844-.096-1.164-.288a1.98 1.98 0 0 1-.72-.816 2.9 2.9 0 0 1-.24-1.212V52.18a.474.474 0 0 1 .48-.48.45.45 0 0 1 .348.144c.088.088.132.2.132.336v3.408c0 .544.12.956.36 1.236.24.272.612.408 1.116.408.32 0 .608-.072.864-.216.264-.144.472-.34.624-.588.16-.256.24-.536.24-.84V52.18c0-.136.044-.248.132-.336a.45.45 0 0 1 .348-.144zm10.675.036c.136 0 .248.048.336.144.096.088.144.2.144.336v5.292a.474.474 0 0 1-.144.348.436.436 0 0 1-.336.144.45.45 0 0 1-.348-.144.497.497 0 0 1-.132-.348v-1.14l.228-.024c0 .176-.06.368-.18.576-.12.208-.284.404-.492.588a2.822 2.822 0 0 1-.744.444c-.28.112-.584.168-.912.168-.544 0-1.032-.14-1.464-.42a3.1 3.1 0 0 1-1.032-1.164c-.248-.488-.372-1.044-.372-1.668 0-.632.124-1.188.372-1.668.256-.488.6-.868 1.032-1.14.432-.28.912-.42 1.44-.42.344 0 .664.056.96.168.296.112.552.264.768.456.224.192.396.404.516.636.128.232.192.464.192.696l-.312-.072v-1.308c0-.136.044-.248.132-.336a.45.45 0 0 1 .348-.144zm-2.472 5.496c.4 0 .752-.104 1.056-.312.312-.208.552-.488.72-.84.176-.36.264-.764.264-1.212 0-.44-.088-.836-.264-1.188a1.95 1.95 0 0 0-.72-.84 1.825 1.825 0 0 0-1.056-.312c-.392 0-.744.1-1.056.3a2.08 2.08 0 0 0-.72.828 2.675 2.675 0 0 0-.264 1.212c0 .448.084.852.252 1.212.176.352.416.632.72.84.312.208.668.312 1.068.312zm7.816-5.592c.544 0 .972.112 1.284.336.312.224.532.524.66.9.136.376.204.796.204 1.26v3.372a.474.474 0 0 1-.144.348.436.436 0 0 1-.336.144.474.474 0 0 1-.348-.144.497.497 0 0 1-.132-.348V54.16c0-.304-.048-.576-.144-.816a1.15 1.15 0 0 0-.456-.588c-.208-.152-.496-.228-.864-.228-.336 0-.644.076-.924.228-.28.144-.504.34-.672.588-.168.24-.252.512-.252.816v3.348a.474.474 0 0 1-.144.348.436.436 0 0 1-.336.144.474.474 0 0 1-.348-.144.497.497 0 0 1-.132-.348v-5.232a.474.474 0 0 1 .48-.48.45.45 0 0 1 .348.144c.088.088.132.2.132.336v.852l-.24.264c.04-.208.132-.416.276-.624a2.45 2.45 0 0 1 .54-.576c.216-.168.456-.3.72-.396.264-.104.54-.156.828-.156zm3.575 5.376a.496.496 0 0 1-.096-.324c.008-.12.076-.224.204-.312a.412.412 0 0 1 .276-.072c.112.008.212.06.3.156.224.264.48.476.768.636.288.152.64.228 1.056.228a2.41 2.41 0 0 0 .576-.096c.192-.056.352-.152.48-.288a.788.788 0 0 0 .204-.564c0-.224-.068-.4-.204-.528a1.442 1.442 0 0 0-.528-.324 5.255 5.255 0 0 0-.708-.228 12.585 12.585 0 0 1-.78-.24 3.535 3.535 0 0 1-.696-.348 1.82 1.82 0 0 1-.492-.528 1.583 1.583 0 0 1-.18-.78c0-.36.096-.672.288-.936.2-.264.464-.468.792-.612.336-.144.7-.216 1.092-.216.224 0 .456.028.696.084.248.048.488.136.72.264.232.12.436.288.612.504.072.08.112.18.12.3.008.12-.044.228-.156.324a.441.441 0 0 1-.564-.036c-.168-.2-.38-.352-.636-.456a1.99 1.99 0 0 0-.828-.168c-.192 0-.38.028-.564.084a1.05 1.05 0 0 0-.468.288c-.12.128-.18.308-.18.54.008.216.08.392.216.528s.32.248.552.336c.232.08.488.16.768.24.256.064.5.14.732.228.24.08.456.188.648.324s.344.312.456.528c.112.208.168.472.168.792 0 .368-.104.688-.312.96a2.024 2.024 0 0 1-.828.612c-.336.136-.7.204-1.092.204-.44 0-.876-.084-1.308-.252a2.617 2.617 0 0 1-1.104-.852zm13.352-5.328a.44.44 0 0 1 .324.132.45.45 0 0 1 .144.348.556.556 0 0 1-.012.108.213.213 0 0 1-.024.096l-1.848 5.316a.462.462 0 0 1-.204.24.458.458 0 0 1-.288.072c-.184-.008-.324-.112-.42-.312l-1.512-3.792.24.036-1.368 3.756c-.088.2-.228.304-.42.312a.507.507 0 0 1-.3-.072.409.409 0 0 1-.192-.24l-1.884-5.316a.646.646 0 0 1-.036-.204c0-.128.044-.24.132-.336a.464.464 0 0 1 .36-.144c.096 0 .184.024.264.072.08.048.136.124.168.228l1.62 4.728-.252-.012 1.404-3.6c.08-.2.228-.3.444-.3.112 0 .2.028.264.084.072.048.124.12.156.216l1.464 3.6-.3.024 1.62-4.74c.072-.2.224-.3.456-.3zm4.63 6.432c-.64 0-1.2-.136-1.68-.408a2.964 2.964 0 0 1-1.128-1.116c-.264-.48-.396-1.032-.396-1.656 0-.696.136-1.288.408-1.776.28-.496.64-.872 1.08-1.128.448-.264.92-.396 1.416-.396.368 0 .724.068 1.068.204.344.136.648.336.912.6.264.256.476.568.636.936.16.36.244.764.252 1.212a.423.423 0 0 1-.144.324.482.482 0 0 1-.336.132h-4.74l-.216-.828h4.62l-.192.168v-.264a1.515 1.515 0 0 0-.336-.84 1.835 1.835 0 0 0-.684-.552 1.9 1.9 0 0 0-.84-.192c-.24 0-.48.044-.72.132-.232.08-.444.216-.636.408a2.14 2.14 0 0 0-.456.72c-.112.296-.168.652-.168 1.068 0 .464.092.872.276 1.224.192.352.456.632.792.84.336.2.728.3 1.176.3.28 0 .524-.036.732-.108.208-.072.388-.16.54-.264.152-.112.28-.224.384-.336a.53.53 0 0 1 .3-.108c.12 0 .216.04.288.12.08.08.12.176.12.288 0 .136-.064.256-.192.36-.224.248-.528.468-.912.66a2.797 2.797 0 0 1-1.224.276zm4.491-.12a.474.474 0 0 1-.348-.144.497.497 0 0 1-.132-.348v-5.232a.474.474 0 0 1 .48-.48.45.45 0 0 1 .348.144c.088.088.132.2.132.336v1.584l-.144-.252a2.51 2.51 0 0 1 .732-1.356c.192-.192.412-.34.66-.444a1.96 1.96 0 0 1 .816-.168c.176 0 .336.044.48.132.152.08.228.196.228.348 0 .168-.044.292-.132.372a.434.434 0 0 1-.3.12.773.773 0 0 1-.3-.06.801.801 0 0 0-.36-.072c-.2 0-.4.056-.6.168a1.887 1.887 0 0 0-.54.456c-.16.2-.292.428-.396.684a2.208 2.208 0 0 0-.144.804v2.916a.474.474 0 0 1-.144.348.436.436 0 0 1-.336.144zm6.935.12c-.64 0-1.2-.136-1.68-.408a2.964 2.964 0 0 1-1.128-1.116c-.264-.48-.396-1.032-.396-1.656 0-.696.136-1.288.408-1.776.28-.496.64-.872 1.08-1.128.448-.264.92-.396 1.416-.396.368 0 .724.068 1.068.204.344.136.648.336.912.6.264.256.476.568.636.936.16.36.244.764.252 1.212a.423.423 0 0 1-.144.324.482.482 0 0 1-.336.132h-4.74l-.216-.828h4.62l-.192.168v-.264a1.515 1.515 0 0 0-.336-.84 1.835 1.835 0 0 0-.684-.552 1.9 1.9 0 0 0-.84-.192c-.24 0-.48.044-.72.132-.232.08-.444.216-.636.408a2.14 2.14 0 0 0-.456.72c-.112.296-.168.652-.168 1.068 0 .464.092.872.276 1.224.192.352.456.632.792.84.336.2.728.3 1.176.3.28 0 .524-.036.732-.108.208-.072.388-.16.54-.264.152-.112.28-.224.384-.336a.53.53 0 0 1 .3-.108c.12 0 .216.04.288.12.08.08.12.176.12.288 0 .136-.064.256-.192.36-.224.248-.528.468-.912.66a2.797 2.797 0 0 1-1.224.276zm9.123-9c.136 0 .248.048.336.144.096.088.144.2.144.336v7.908a.474.474 0 0 1-.144.348.436.436 0 0 1-.336.144.45.45 0 0 1-.348-.144.497.497 0 0 1-.132-.348v-1.14l.228-.084c0 .192-.06.396-.18.612-.12.208-.284.404-.492.588a2.65 2.65 0 0 1-.744.456c-.28.12-.584.18-.912.18-.536 0-1.024-.14-1.464-.42a3.004 3.004 0 0 1-1.032-1.152c-.248-.488-.372-1.044-.372-1.668 0-.632.124-1.192.372-1.68.256-.488.6-.868 1.032-1.14.432-.28.912-.42 1.44-.42.336 0 .652.056.948.168.296.112.552.264.768.456.224.192.4.404.528.636.128.232.192.464.192.696l-.312-.072V49.6c0-.136.044-.248.132-.336a.45.45 0 0 1 .348-.144zm-2.472 8.112c.4 0 .752-.1 1.056-.3.312-.208.552-.488.72-.84.176-.36.264-.764.264-1.212 0-.456-.088-.86-.264-1.212a1.964 1.964 0 0 0-.72-.828 1.825 1.825 0 0 0-1.056-.312 1.86 1.86 0 0 0-1.056.312 2.08 2.08 0 0 0-.72.828 2.675 2.675 0 0 0-.264 1.212c0 .44.088.84.264 1.2.176.352.416.632.72.84a1.86 1.86 0 0 0 1.056.312zM106 69.736c.136 0 .248.048.336.144.096.088.144.2.144.336v5.292a.474.474 0 0 1-.144.348A.436.436 0 0 1 106 76a.45.45 0 0 1-.348-.144.497.497 0 0 1-.132-.348v-1.14l.228-.024c0 .176-.06.368-.18.576-.12.208-.284.404-.492.588a2.822 2.822 0 0 1-.744.444c-.28.112-.584.168-.912.168-.544 0-1.032-.14-1.464-.42a3.1 3.1 0 0 1-1.032-1.164c-.248-.488-.372-1.044-.372-1.668 0-.632.124-1.188.372-1.668.256-.488.6-.868 1.032-1.14.432-.28.912-.42 1.44-.42.344 0 .664.056.96.168.296.112.552.264.768.456.224.192.396.404.516.636.128.232.192.464.192.696l-.312-.072v-1.308c0-.136.044-.248.132-.336a.45.45 0 0 1 .348-.144zm-2.472 5.496c.4 0 .752-.104 1.056-.312.312-.208.552-.488.72-.84.176-.36.264-.764.264-1.212 0-.44-.088-.836-.264-1.188a1.95 1.95 0 0 0-.72-.84 1.825 1.825 0 0 0-1.056-.312c-.392 0-.744.1-1.056.3a2.08 2.08 0 0 0-.72.828 2.675 2.675 0 0 0-.264 1.212c0 .448.084.852.252 1.212.176.352.416.632.72.84.312.208.668.312 1.068.312zm7.815-5.592c.544 0 .972.112 1.284.336.312.224.532.524.66.9.136.376.204.796.204 1.26v3.372a.474.474 0 0 1-.144.348.436.436 0 0 1-.336.144.474.474 0 0 1-.348-.144.497.497 0 0 1-.132-.348V72.16c0-.304-.048-.576-.144-.816a1.15 1.15 0 0 0-.456-.588c-.208-.152-.496-.228-.864-.228-.336 0-.644.076-.924.228-.28.144-.504.34-.672.588-.168.24-.252.512-.252.816v3.348a.474.474 0 0 1-.144.348.436.436 0 0 1-.336.144.474.474 0 0 1-.348-.144.497.497 0 0 1-.132-.348v-5.232a.474.474 0 0 1 .48-.48.45.45 0 0 1 .348.144c.088.088.132.2.132.336v.852l-.24.264c.04-.208.132-.416.276-.624a2.45 2.45 0 0 1 .54-.576c.216-.168.456-.3.72-.396.264-.104.54-.156.828-.156zm9.036-2.52c.136 0 .248.048.336.144.096.088.144.2.144.336v7.908a.474.474 0 0 1-.144.348.436.436 0 0 1-.336.144.45.45 0 0 1-.348-.144.497.497 0 0 1-.132-.348v-1.14l.228-.084c0 .192-.06.396-.18.612-.12.208-.284.404-.492.588a2.65 2.65 0 0 1-.744.456c-.28.12-.584.18-.912.18-.536 0-1.024-.14-1.464-.42a3.004 3.004 0 0 1-1.032-1.152c-.248-.488-.372-1.044-.372-1.668 0-.632.124-1.192.372-1.68.256-.488.6-.868 1.032-1.14.432-.28.912-.42 1.44-.42.336 0 .652.056.948.168.296.112.552.264.768.456.224.192.4.404.528.636.128.232.192.464.192.696l-.312-.072V67.6c0-.136.044-.248.132-.336a.45.45 0 0 1 .348-.144zm-2.472 8.112c.4 0 .752-.1 1.056-.3.312-.208.552-.488.72-.84.176-.36.264-.764.264-1.212 0-.456-.088-.86-.264-1.212a1.964 1.964 0 0 0-.72-.828 1.825 1.825 0 0 0-1.056-.312 1.86 1.86 0 0 0-1.056.312 2.08 2.08 0 0 0-.72.828 2.675 2.675 0 0 0-.264 1.212c0 .44.088.84.264 1.2.176.352.416.632.72.84a1.86 1.86 0 0 0 1.056.312zm7.688-.216a.496.496 0 0 1-.096-.324c.008-.12.076-.224.204-.312a.412.412 0 0 1 .276-.072c.112.008.212.06.3.156.224.264.48.476.768.636.288.152.64.228 1.056.228a2.41 2.41 0 0 0 .576-.096c.192-.056.352-.152.48-.288a.788.788 0 0 0 .204-.564c0-.224-.068-.4-.204-.528a1.442 1.442 0 0 0-.528-.324 5.255 5.255 0 0 0-.708-.228 12.585 12.585 0 0 1-.78-.24 3.535 3.535 0 0 1-.696-.348 1.82 1.82 0 0 1-.492-.528 1.583 1.583 0 0 1-.18-.78c0-.36.096-.672.288-.936.2-.264.464-.468.792-.612.336-.144.7-.216 1.092-.216.224 0 .456.028.696.084.248.048.488.136.72.264.232.12.436.288.612.504.072.08.112.18.12.3.008.12-.044.228-.156.324a.441.441 0 0 1-.564-.036c-.168-.2-.38-.352-.636-.456a1.99 1.99 0 0 0-.828-.168c-.192 0-.38.028-.564.084a1.05 1.05 0 0 0-.468.288c-.12.128-.18.308-.18.54.008.216.08.392.216.528s.32.248.552.336c.232.08.488.16.768.24.256.064.5.14.732.228.24.08.456.188.648.324s.344.312.456.528c.112.208.168.472.168.792 0 .368-.104.688-.312.96a2.024 2.024 0 0 1-.828.612c-.336.136-.7.204-1.092.204-.44 0-.876-.084-1.308-.252a2.617 2.617 0 0 1-1.104-.852zm6.607.984a.45.45 0 0 1-.348-.144.497.497 0 0 1-.132-.348V67.6c0-.136.044-.248.132-.336a.45.45 0 0 1 .348-.144c.136 0 .248.048.336.144.096.088.144.2.144.336v7.908a.474.474 0 0 1-.144.348.436.436 0 0 1-.336.144zm3.984-6.24c.128 0 .236.052.324.156.096.096.144.196.144.3 0 .136-.064.256-.192.36l-3.888 3.396-.036-1.116 3.312-2.952a.46.46 0 0 1 .336-.144zm.132 6.228a.495.495 0 0 1-.36-.156l-2.556-2.724.72-.66 2.532 2.712a.515.515 0 0 1 .144.36c0 .144-.056.26-.168.348a.548.548 0 0 1-.312.12zm2.795-.48a.474.474 0 0 1-.144.348.436.436 0 0 1-.336.144.45.45 0 0 1-.348-.144.497.497 0 0 1-.132-.348V70.18a.474.474 0 0 1 .48-.48c.136 0 .248.048.336.144.096.088.144.2.144.336v5.328zm-.48-6.612c-.2 0-.348-.04-.444-.12-.096-.08-.144-.204-.144-.372v-.168c0-.168.052-.292.156-.372.104-.08.252-.12.444-.12s.336.04.432.12c.096.08.144.204.144.372v.168c0 .168-.052.292-.156.372-.096.08-.24.12-.432.12zm5.264.804a2.69 2.69 0 0 1 1.464.408c.432.272.772.648 1.02 1.128.256.48.384 1.032.384 1.656 0 .616-.128 1.168-.384 1.656-.248.48-.588.86-1.02 1.14a2.61 2.61 0 0 1-1.44.408 2.64 2.64 0 0 1-.84-.132 3.463 3.463 0 0 1-.708-.36 2.648 2.648 0 0 1-.528-.504 2.1 2.1 0 0 1-.312-.564l.264-.168v3.54a.497.497 0 0 1-.132.348.45.45 0 0 1-.348.144.474.474 0 0 1-.48-.492V70.24a.474.474 0 0 1 .48-.48.45.45 0 0 1 .348.144c.088.088.132.2.132.336v1.068l-.18-.096c.056-.2.152-.392.288-.576.144-.184.316-.344.516-.48.208-.144.436-.256.684-.336.256-.08.52-.12.792-.12zm-.108.888c-.4 0-.756.1-1.068.3a2.1 2.1 0 0 0-.72.816c-.168.344-.252.74-.252 1.188 0 .44.084.836.252 1.188.176.352.416.628.72.828.312.2.668.3 1.068.3s.752-.1 1.056-.3c.304-.2.544-.476.72-.828a2.62 2.62 0 0 0 .264-1.188c0-.448-.088-.844-.264-1.188a2.1 2.1 0 0 0-.72-.816c-.304-.2-.656-.3-1.056-.3zm7.479-.888a2.69 2.69 0 0 1 1.464.408c.432.272.772.648 1.02 1.128.256.48.384 1.032.384 1.656 0 .616-.128 1.168-.384 1.656-.248.48-.588.86-1.02 1.14a2.61 2.61 0 0 1-1.44.408 2.64 2.64 0 0 1-.84-.132 3.463 3.463 0 0 1-.708-.36 2.648 2.648 0 0 1-.528-.504 2.1 2.1 0 0 1-.312-.564l.264-.168v3.54a.497.497 0 0 1-.132.348.45.45 0 0 1-.348.144.474.474 0 0 1-.48-.492V70.24a.474.474 0 0 1 .48-.48.45.45 0 0 1 .348.144c.088.088.132.2.132.336v1.068l-.18-.096c.056-.2.152-.392.288-.576.144-.184.316-.344.516-.48.208-.144.436-.256.684-.336.256-.08.52-.12.792-.12zm-.108.888c-.4 0-.756.1-1.068.3a2.1 2.1 0 0 0-.72.816c-.168.344-.252.74-.252 1.188 0 .44.084.836.252 1.188.176.352.416.628.72.828.312.2.668.3 1.068.3s.752-.1 1.056-.3c.304-.2.544-.476.72-.828a2.62 2.62 0 0 0 .264-1.188c0-.448-.088-.844-.264-1.188a2.1 2.1 0 0 0-.72-.816c-.304-.2-.656-.3-1.056-.3zm7.287 5.532c-.64 0-1.2-.136-1.68-.408a2.964 2.964 0 0 1-1.128-1.116c-.264-.48-.396-1.032-.396-1.656 0-.696.136-1.288.408-1.776.28-.496.64-.872 1.08-1.128.448-.264.92-.396 1.416-.396.368 0 .724.068 1.068.204.344.136.648.336.912.6.264.256.476.568.636.936.16.36.244.764.252 1.212a.423.423 0 0 1-.144.324.482.482 0 0 1-.336.132h-4.74l-.216-.828h4.62l-.192.168v-.264a1.515 1.515 0 0 0-.336-.84 1.835 1.835 0 0 0-.684-.552 1.9 1.9 0 0 0-.84-.192c-.24 0-.48.044-.72.132-.232.08-.444.216-.636.408a2.14 2.14 0 0 0-.456.72c-.112.296-.168.652-.168 1.068 0 .464.092.872.276 1.224.192.352.456.632.792.84.336.2.728.3 1.176.3.28 0 .524-.036.732-.108.208-.072.388-.16.54-.264.152-.112.28-.224.384-.336a.53.53 0 0 1 .3-.108c.12 0 .216.04.288.12.08.08.12.176.12.288 0 .136-.064.256-.192.36-.224.248-.528.468-.912.66a2.797 2.797 0 0 1-1.224.276zm9.123-9c.136 0 .248.048.336.144.096.088.144.2.144.336v7.908a.474.474 0 0 1-.144.348.436.436 0 0 1-.336.144.45.45 0 0 1-.348-.144.497.497 0 0 1-.132-.348v-1.14l.228-.084c0 .192-.06.396-.18.612-.12.208-.284.404-.492.588a2.65 2.65 0 0 1-.744.456c-.28.12-.584.18-.912.18-.536 0-1.024-.14-1.464-.42a3.004 3.004 0 0 1-1.032-1.152c-.248-.488-.372-1.044-.372-1.668 0-.632.124-1.192.372-1.68.256-.488.6-.868 1.032-1.14.432-.28.912-.42 1.44-.42.336 0 .652.056.948.168.296.112.552.264.768.456.224.192.4.404.528.636.128.232.192.464.192.696l-.312-.072V67.6c0-.136.044-.248.132-.336a.45.45 0 0 1 .348-.144zm-2.472 8.112c.4 0 .752-.1 1.056-.3.312-.208.552-.488.72-.84.176-.36.264-.764.264-1.212 0-.456-.088-.86-.264-1.212a1.964 1.964 0 0 0-.72-.828 1.825 1.825 0 0 0-1.056-.312 1.86 1.86 0 0 0-1.056.312 2.08 2.08 0 0 0-.72.828 2.675 2.675 0 0 0-.264 1.212c0 .44.088.84.264 1.2.176.352.416.632.72.84a1.86 1.86 0 0 0 1.056.312zm13.148-5.472c.136 0 .248.048.336.144.096.088.144.2.144.336v7.668a.474.474 0 0 1-.144.348.436.436 0 0 1-.336.144.45.45 0 0 1-.348-.144.497.497 0 0 1-.132-.348v-3.54l.228-.084c0 .192-.06.396-.18.612-.12.208-.284.404-.492.588a2.65 2.65 0 0 1-.744.456c-.28.12-.584.18-.912.18-.536 0-1.024-.14-1.464-.42a3.004 3.004 0 0 1-1.032-1.152c-.248-.488-.372-1.044-.372-1.668 0-.632.124-1.192.372-1.68.256-.488.6-.868 1.032-1.14.432-.28.912-.42 1.44-.42.336 0 .652.056.948.168.296.112.552.264.768.456.224.192.4.404.528.636.128.232.192.464.192.696l-.312-.072V70.24c0-.136.044-.248.132-.336a.45.45 0 0 1 .348-.144zm-2.472 5.472c.4 0 .752-.1 1.056-.3.312-.208.552-.488.72-.84.176-.36.264-.764.264-1.212 0-.456-.088-.86-.264-1.212a1.964 1.964 0 0 0-.72-.828 1.825 1.825 0 0 0-1.056-.312 1.86 1.86 0 0 0-1.056.312 2.08 2.08 0 0 0-.72.828 2.675 2.675 0 0 0-.264 1.212c0 .44.088.84.264 1.2.176.352.416.632.72.84a1.86 1.86 0 0 0 1.056.312zm9.375-5.436a.45.45 0 0 1 .348.144c.088.088.132.2.132.336v3.276c0 .808-.228 1.436-.684 1.884-.448.44-1.076.66-1.884.66-.8 0-1.428-.22-1.884-.66-.448-.448-.672-1.076-.672-1.884v-3.276a.474.474 0 0 1 .48-.48.45.45 0 0 1 .348.144c.088.088.132.2.132.336v3.276c0 .544.14.956.42 1.236.28.28.672.42 1.176.42.52 0 .916-.14 1.188-.42.28-.28.42-.692.42-1.236v-3.276a.474.474 0 0 1 .48-.48zm5.127 6.324c-.64 0-1.2-.136-1.68-.408a2.964 2.964 0 0 1-1.128-1.116c-.264-.48-.396-1.032-.396-1.656 0-.696.136-1.288.408-1.776.28-.496.64-.872 1.08-1.128.448-.264.92-.396 1.416-.396.368 0 .724.068 1.068.204.344.136.648.336.912.6.264.256.476.568.636.936.16.36.244.764.252 1.212a.423.423 0 0 1-.144.324.482.482 0 0 1-.336.132h-4.74l-.216-.828h4.62l-.192.168v-.264a1.515 1.515 0 0 0-.336-.84 1.835 1.835 0 0 0-.684-.552 1.9 1.9 0 0 0-.84-.192c-.24 0-.48.044-.72.132-.232.08-.444.216-.636.408a2.14 2.14 0 0 0-.456.72c-.112.296-.168.652-.168 1.068 0 .464.092.872.276 1.224.192.352.456.632.792.84.336.2.728.3 1.176.3.28 0 .524-.036.732-.108.208-.072.388-.16.54-.264.152-.112.28-.224.384-.336a.53.53 0 0 1 .3-.108c.12 0 .216.04.288.12.08.08.12.176.12.288 0 .136-.064.256-.192.36-.224.248-.528.468-.912.66a2.797 2.797 0 0 1-1.224.276zm3.662-1.104a.496.496 0 0 1-.096-.324c.008-.12.076-.224.204-.312a.412.412 0 0 1 .276-.072c.112.008.212.06.3.156.224.264.48.476.768.636.288.152.64.228 1.056.228a2.41 2.41 0 0 0 .576-.096c.192-.056.352-.152.48-.288a.788.788 0 0 0 .204-.564c0-.224-.068-.4-.204-.528a1.442 1.442 0 0 0-.528-.324 5.255 5.255 0 0 0-.708-.228 12.585 12.585 0 0 1-.78-.24 3.535 3.535 0 0 1-.696-.348 1.82 1.82 0 0 1-.492-.528 1.583 1.583 0 0 1-.18-.78c0-.36.096-.672.288-.936.2-.264.464-.468.792-.612.336-.144.7-.216 1.092-.216.224 0 .456.028.696.084.248.048.488.136.72.264.232.12.436.288.612.504.072.08.112.18.12.3.008.12-.044.228-.156.324a.441.441 0 0 1-.564-.036c-.168-.2-.38-.352-.636-.456a1.99 1.99 0 0 0-.828-.168c-.192 0-.38.028-.564.084a1.05 1.05 0 0 0-.468.288c-.12.128-.18.308-.18.54.008.216.08.392.216.528s.32.248.552.336c.232.08.488.16.768.24.256.064.5.14.732.228.24.08.456.188.648.324s.344.312.456.528c.112.208.168.472.168.792 0 .368-.104.688-.312.96a2.024 2.024 0 0 1-.828.612c-.336.136-.7.204-1.092.204-.44 0-.876-.084-1.308-.252a2.617 2.617 0 0 1-1.104-.852zm5.792-5.184h2.82c.128 0 .232.044.312.132a.427.427 0 0 1 .132.312.44.44 0 0 1-.132.324.422.422 0 0 1-.312.12h-2.82a.427.427 0 0 1-.312-.132.44.44 0 0 1-.132-.324c0-.12.044-.22.132-.3a.427.427 0 0 1 .312-.132zm1.26-1.632c.136 0 .248.048.336.144.088.088.132.2.132.336v5.796c0 .192.028.336.084.432a.48.48 0 0 0 .216.204.872.872 0 0 0 .276.048c.08 0 .148-.012.204-.036a.476.476 0 0 1 .216-.048c.08 0 .152.04.216.12a.39.39 0 0 1 .108.288c0 .144-.084.268-.252.372a1.116 1.116 0 0 1-.564.144c-.112 0-.252-.008-.42-.024a1.252 1.252 0 0 1-.48-.156 1.07 1.07 0 0 1-.408-.432c-.104-.208-.156-.496-.156-.864V68.68c0-.136.048-.248.144-.336a.474.474 0 0 1 .348-.144zm4.263 7.308a.474.474 0 0 1-.144.348.436.436 0 0 1-.336.144.45.45 0 0 1-.348-.144.497.497 0 0 1-.132-.348V70.18a.474.474 0 0 1 .48-.48c.136 0 .248.048.336.144.096.088.144.2.144.336v5.328zm-.48-6.612c-.2 0-.348-.04-.444-.12-.096-.08-.144-.204-.144-.372v-.168c0-.168.052-.292.156-.372.104-.08.252-.12.444-.12s.336.04.432.12c.096.08.144.204.144.372v.168c0 .168-.052.292-.156.372-.096.08-.24.12-.432.12zm8.097 3.984c0 .624-.14 1.18-.42 1.668a3.028 3.028 0 0 1-1.116 1.152c-.464.28-.988.42-1.572.42-.584 0-1.112-.14-1.584-.42a3.118 3.118 0 0 1-1.128-1.152c-.272-.488-.408-1.044-.408-1.668 0-.624.136-1.18.408-1.668.28-.488.656-.872 1.128-1.152.472-.28 1-.42 1.584-.42.584 0 1.108.14 1.572.42.472.28.844.664 1.116 1.152.28.488.42 1.044.42 1.668zm-.96 0c0-.464-.096-.872-.288-1.224a2.074 2.074 0 0 0-.768-.828c-.32-.2-.684-.3-1.092-.3-.408 0-.776.1-1.104.3-.32.2-.576.476-.768.828-.192.352-.288.76-.288 1.224 0 .456.096.86.288 1.212.192.352.448.632.768.84.328.2.696.3 1.104.3.408 0 .772-.1 1.092-.3a2.16 2.16 0 0 0 .768-.84 2.49 2.49 0 0 0 .288-1.212zm5.488-3.24c.544 0 .972.112 1.284.336.312.224.532.524.66.9.136.376.204.796.204 1.26v3.372a.474.474 0 0 1-.144.348.436.436 0 0 1-.336.144.474.474 0 0 1-.348-.144.497.497 0 0 1-.132-.348V72.16c0-.304-.048-.576-.144-.816a1.15 1.15 0 0 0-.456-.588c-.208-.152-.496-.228-.864-.228-.336 0-.644.076-.924.228-.28.144-.504.34-.672.588-.168.24-.252.512-.252.816v3.348a.474.474 0 0 1-.144.348.436.436 0 0 1-.336.144.474.474 0 0 1-.348-.144.497.497 0 0 1-.132-.348v-5.232a.474.474 0 0 1 .48-.48.45.45 0 0 1 .348.144c.088.088.132.2.132.336v.852l-.24.264c.04-.208.132-.416.276-.624a2.45 2.45 0 0 1 .54-.576c.216-.168.456-.3.72-.396.264-.104.54-.156.828-.156zm3.576 5.376a.496.496 0 0 1-.096-.324c.008-.12.076-.224.204-.312a.412.412 0 0 1 .276-.072c.112.008.212.06.3.156.224.264.48.476.768.636.288.152.64.228 1.056.228a2.41 2.41 0 0 0 .576-.096c.192-.056.352-.152.48-.288a.788.788 0 0 0 .204-.564c0-.224-.068-.4-.204-.528a1.442 1.442 0 0 0-.528-.324 5.255 5.255 0 0 0-.708-.228 12.585 12.585 0 0 1-.78-.24 3.535 3.535 0 0 1-.696-.348 1.82 1.82 0 0 1-.492-.528 1.583 1.583 0 0 1-.18-.78c0-.36.096-.672.288-.936.2-.264.464-.468.792-.612.336-.144.7-.216 1.092-.216.224 0 .456.028.696.084.248.048.488.136.72.264.232.12.436.288.612.504.072.08.112.18.12.3.008.12-.044.228-.156.324a.441.441 0 0 1-.564-.036c-.168-.2-.38-.352-.636-.456a1.99 1.99 0 0 0-.828-.168c-.192 0-.38.028-.564.084a1.05 1.05 0 0 0-.468.288c-.12.128-.18.308-.18.54.008.216.08.392.216.528s.32.248.552.336c.232.08.488.16.768.24.256.064.5.14.732.228.24.08.456.188.648.324s.344.312.456.528c.112.208.168.472.168.792 0 .368-.104.688-.312.96a2.024 2.024 0 0 1-.828.612c-.336.136-.7.204-1.092.204-.44 0-.876-.084-1.308-.252a2.617 2.617 0 0 1-1.104-.852zm11.928-7.872c.136 0 .276.016.42.048.152.032.28.088.384.168.112.08.168.188.168.324 0 .128-.04.236-.12.324a.393.393 0 0 1-.288.12c-.072 0-.172-.02-.3-.06a1.119 1.119 0 0 0-.396-.072.806.806 0 0 0-.456.12.73.73 0 0 0-.252.324 1.223 1.223 0 0 0-.072.432v6.636a.474.474 0 0 1-.144.348.436.436 0 0 1-.336.144.45.45 0 0 1-.348-.144.497.497 0 0 1-.132-.348v-6.624c0-.536.164-.96.492-1.272.336-.312.796-.468 1.38-.468zm.336 2.748a.44.44 0 0 1 .324.132c.088.08.132.184.132.312a.44.44 0 0 1-.132.324.464.464 0 0 1-.324.12h-3.012a.44.44 0 0 1-.324-.132.427.427 0 0 1-.132-.312c0-.136.044-.244.132-.324a.464.464 0 0 1 .324-.12h3.012zM235.419 76a.474.474 0 0 1-.348-.144.497.497 0 0 1-.132-.348v-5.232a.474.474 0 0 1 .48-.48.45.45 0 0 1 .348.144c.088.088.132.2.132.336v1.584l-.144-.252a2.51 2.51 0 0 1 .732-1.356c.192-.192.412-.34.66-.444a1.96 1.96 0 0 1 .816-.168c.176 0 .336.044.48.132.152.08.228.196.228.348 0 .168-.044.292-.132.372a.434.434 0 0 1-.3.12.773.773 0 0 1-.3-.06.801.801 0 0 0-.36-.072c-.2 0-.4.056-.6.168a1.887 1.887 0 0 0-.54.456c-.16.2-.292.428-.396.684a2.208 2.208 0 0 0-.144.804v2.916a.474.474 0 0 1-.144.348.436.436 0 0 1-.336.144zm9.959-3.12c0 .624-.14 1.18-.42 1.668a3.028 3.028 0 0 1-1.116 1.152c-.464.28-.988.42-1.572.42-.584 0-1.112-.14-1.584-.42a3.118 3.118 0 0 1-1.128-1.152c-.272-.488-.408-1.044-.408-1.668 0-.624.136-1.18.408-1.668.28-.488.656-.872 1.128-1.152.472-.28 1-.42 1.584-.42.584 0 1.108.14 1.572.42.472.28.844.664 1.116 1.152.28.488.42 1.044.42 1.668zm-.96 0c0-.464-.096-.872-.288-1.224a2.074 2.074 0 0 0-.768-.828c-.32-.2-.684-.3-1.092-.3-.408 0-.776.1-1.104.3-.32.2-.576.476-.768.828-.192.352-.288.76-.288 1.224 0 .456.096.86.288 1.212.192.352.448.632.768.84.328.2.696.3 1.104.3.408 0 .772-.1 1.092-.3a2.16 2.16 0 0 0 .768-.84 2.49 2.49 0 0 0 .288-1.212zm5.368-3.18c.544 0 .984.14 1.32.42.344.272.572.66.684 1.164h-.18l.084-.216c.096-.224.26-.44.492-.648.232-.208.5-.38.804-.516.304-.136.62-.204.948-.204.528 0 .944.116 1.248.348.304.224.52.528.648.912.136.376.204.8.204 1.272v3.276a.474.474 0 0 1-.144.348.436.436 0 0 1-.336.144.45.45 0 0 1-.348-.144.497.497 0 0 1-.132-.348v-3.252c0-.312-.048-.592-.144-.84a1.169 1.169 0 0 0-.444-.6c-.2-.152-.476-.228-.828-.228-.328 0-.628.076-.9.228a1.672 1.672 0 0 0-.648.6c-.16.248-.24.528-.24.84v3.252a.497.497 0 0 1-.132.348.45.45 0 0 1-.348.144.474.474 0 0 1-.348-.144.497.497 0 0 1-.132-.348V72.22a2.36 2.36 0 0 0-.132-.816 1.13 1.13 0 0 0-.42-.588c-.2-.152-.476-.228-.828-.228-.32 0-.612.076-.876.228a1.73 1.73 0 0 0-.636.588c-.16.24-.24.512-.24.816v3.288a.474.474 0 0 1-.144.348.436.436 0 0 1-.336.144.474.474 0 0 1-.348-.144.497.497 0 0 1-.132-.348v-5.232a.474.474 0 0 1 .48-.48.45.45 0 0 1 .348.144c.088.088.132.2.132.336v.912l-.264.288c.032-.208.112-.416.24-.624a2.671 2.671 0 0 1 1.212-.996c.256-.104.528-.156.816-.156zm-144.254 18c.136 0 .248.048.336.144.096.088.144.2.144.336v5.232c0 .672-.132 1.228-.396 1.668-.264.448-.62.78-1.068.996-.44.216-.94.324-1.5.324-.312 0-.612-.032-.9-.096a2.59 2.59 0 0 1-.708-.252.703.703 0 0 1-.324-.276.408.408 0 0 1-.024-.336.547.547 0 0 1 .24-.3.381.381 0 0 1 .348 0c.128.056.312.132.552.228.248.104.524.156.828.156.416 0 .772-.08 1.068-.24.296-.16.524-.396.684-.708.16-.304.24-.684.24-1.14v-.852l.144.3c-.128.248-.3.464-.516.648a2.454 2.454 0 0 1-.744.432c-.28.104-.588.156-.924.156-.456 0-.844-.096-1.164-.288a1.98 1.98 0 0 1-.72-.816 2.9 2.9 0 0 1-.24-1.212V88.18a.474.474 0 0 1 .48-.48.45.45 0 0 1 .348.144c.088.088.132.2.132.336v3.408c0 .544.12.956.36 1.236.24.272.612.408 1.116.408.32 0 .608-.072.864-.216.264-.144.472-.34.624-.588.16-.256.24-.536.24-.84V88.18c0-.136.044-.248.132-.336a.45.45 0 0 1 .348-.144zm8.092 3.18c0 .624-.14 1.18-.42 1.668a3.028 3.028 0 0 1-1.116 1.152c-.464.28-.988.42-1.572.42-.584 0-1.112-.14-1.584-.42a3.118 3.118 0 0 1-1.128-1.152c-.272-.488-.408-1.044-.408-1.668 0-.624.136-1.18.408-1.668.28-.488.656-.872 1.128-1.152.472-.28 1-.42 1.584-.42.584 0 1.108.14 1.572.42.472.28.844.664 1.116 1.152.28.488.42 1.044.42 1.668zm-.96 0c0-.464-.096-.872-.288-1.224a2.074 2.074 0 0 0-.768-.828c-.32-.2-.684-.3-1.092-.3-.408 0-.776.1-1.104.3-.32.2-.576.476-.768.828-.192.352-.288.76-.288 1.224 0 .456.096.86.288 1.212.192.352.448.632.768.84.328.2.696.3 1.104.3.408 0 .772-.1 1.092-.3a2.16 2.16 0 0 0 .768-.84 2.49 2.49 0 0 0 .288-1.212zm7.048-3.084a.45.45 0 0 1 .348.144c.088.088.132.2.132.336v3.276c0 .808-.228 1.436-.684 1.884-.448.44-1.076.66-1.884.66-.8 0-1.428-.22-1.884-.66-.448-.448-.672-1.076-.672-1.884v-3.276a.474.474 0 0 1 .48-.48.45.45 0 0 1 .348.144c.088.088.132.2.132.336v3.276c0 .544.14.956.42 1.236.28.28.672.42 1.176.42.52 0 .916-.14 1.188-.42.28-.28.42-.692.42-1.236v-3.276a.474.474 0 0 1 .48-.48zM122.45 94a.474.474 0 0 1-.348-.144.497.497 0 0 1-.132-.348v-5.232a.474.474 0 0 1 .48-.48.45.45 0 0 1 .348.144c.088.088.132.2.132.336v1.584l-.144-.252a2.51 2.51 0 0 1 .732-1.356c.192-.192.412-.34.66-.444a1.96 1.96 0 0 1 .816-.168c.176 0 .336.044.48.132.152.08.228.196.228.348 0 .168-.044.292-.132.372a.434.434 0 0 1-.3.12.773.773 0 0 1-.3-.06.801.801 0 0 0-.36-.072c-.2 0-.4.056-.6.168a1.887 1.887 0 0 0-.54.456c-.16.2-.292.428-.396.684a2.208 2.208 0 0 0-.144.804v2.916a.474.474 0 0 1-.144.348.436.436 0 0 1-.336.144zm12.753-6.264c.136 0 .248.048.336.144.096.088.144.2.144.336v5.292a.474.474 0 0 1-.144.348.436.436 0 0 1-.336.144.45.45 0 0 1-.348-.144.497.497 0 0 1-.132-.348v-1.14l.228-.024c0 .176-.06.368-.18.576-.12.208-.284.404-.492.588a2.822 2.822 0 0 1-.744.444c-.28.112-.584.168-.912.168-.544 0-1.032-.14-1.464-.42a3.1 3.1 0 0 1-1.032-1.164c-.248-.488-.372-1.044-.372-1.668 0-.632.124-1.188.372-1.668.256-.488.6-.868 1.032-1.14.432-.28.912-.42 1.44-.42.344 0 .664.056.96.168.296.112.552.264.768.456.224.192.396.404.516.636.128.232.192.464.192.696l-.312-.072v-1.308c0-.136.044-.248.132-.336a.45.45 0 0 1 .348-.144zm-2.472 5.496c.4 0 .752-.104 1.056-.312.312-.208.552-.488.72-.84.176-.36.264-.764.264-1.212 0-.44-.088-.836-.264-1.188a1.95 1.95 0 0 0-.72-.84 1.825 1.825 0 0 0-1.056-.312c-.392 0-.744.1-1.056.3a2.08 2.08 0 0 0-.72.828 2.675 2.675 0 0 0-.264 1.212c0 .448.084.852.252 1.212.176.352.416.632.72.84.312.208.668.312 1.068.312zm4.491-5.4h2.82c.128 0 .232.044.312.132a.427.427 0 0 1 .132.312.44.44 0 0 1-.132.324.422.422 0 0 1-.312.12h-2.82a.427.427 0 0 1-.312-.132.44.44 0 0 1-.132-.324c0-.12.044-.22.132-.3a.427.427 0 0 1 .312-.132zm1.26-1.632c.136 0 .248.048.336.144.088.088.132.2.132.336v5.796c0 .192.028.336.084.432a.48.48 0 0 0 .216.204.872.872 0 0 0 .276.048c.08 0 .148-.012.204-.036a.476.476 0 0 1 .216-.048c.08 0 .152.04.216.12a.39.39 0 0 1 .108.288c0 .144-.084.268-.252.372a1.116 1.116 0 0 1-.564.144c-.112 0-.252-.008-.42-.024a1.252 1.252 0 0 1-.48-.156 1.07 1.07 0 0 1-.408-.432c-.104-.208-.156-.496-.156-.864V86.68c0-.136.048-.248.144-.336a.474.474 0 0 1 .348-.144zm3.1 1.632h2.82c.128 0 .232.044.312.132a.427.427 0 0 1 .132.312.44.44 0 0 1-.132.324.422.422 0 0 1-.312.12h-2.82a.427.427 0 0 1-.312-.132.44.44 0 0 1-.132-.324c0-.12.044-.22.132-.3a.427.427 0 0 1 .312-.132zm1.26-1.632c.136 0 .248.048.336.144.088.088.132.2.132.336v5.796c0 .192.028.336.084.432a.48.48 0 0 0 .216.204.872.872 0 0 0 .276.048c.08 0 .148-.012.204-.036a.476.476 0 0 1 .216-.048c.08 0 .152.04.216.12a.39.39 0 0 1 .108.288c0 .144-.084.268-.252.372a1.116 1.116 0 0 1-.564.144c-.112 0-.252-.008-.42-.024a1.252 1.252 0 0 1-.48-.156 1.07 1.07 0 0 1-.408-.432c-.104-.208-.156-.496-.156-.864V86.68c0-.136.048-.248.144-.336a.474.474 0 0 1 .348-.144zm6.148 7.92c-.64 0-1.2-.136-1.68-.408a2.964 2.964 0 0 1-1.128-1.116c-.264-.48-.396-1.032-.396-1.656 0-.696.136-1.288.408-1.776.28-.496.64-.872 1.08-1.128.448-.264.92-.396 1.416-.396.368 0 .724.068 1.068.204.344.136.648.336.912.6.264.256.476.568.636.936.16.36.244.764.252 1.212a.423.423 0 0 1-.144.324.482.482 0 0 1-.336.132h-4.74l-.216-.828h4.62l-.192.168v-.264a1.515 1.515 0 0 0-.336-.84 1.835 1.835 0 0 0-.684-.552 1.9 1.9 0 0 0-.84-.192c-.24 0-.48.044-.72.132-.232.08-.444.216-.636.408a2.14 2.14 0 0 0-.456.72c-.112.296-.168.652-.168 1.068 0 .464.092.872.276 1.224.192.352.456.632.792.84.336.2.728.3 1.176.3.28 0 .524-.036.732-.108.208-.072.388-.16.54-.264.152-.112.28-.224.384-.336a.53.53 0 0 1 .3-.108c.12 0 .216.04.288.12.08.08.12.176.12.288 0 .136-.064.256-.192.36-.224.248-.528.468-.912.66a2.797 2.797 0 0 1-1.224.276zm6.975-6.42c.544 0 .984.14 1.32.42.344.272.572.66.684 1.164h-.18l.084-.216c.096-.224.26-.44.492-.648.232-.208.5-.38.804-.516.304-.136.62-.204.948-.204.528 0 .944.116 1.248.348.304.224.52.528.648.912.136.376.204.8.204 1.272v3.276a.474.474 0 0 1-.144.348.436.436 0 0 1-.336.144.45.45 0 0 1-.348-.144.497.497 0 0 1-.132-.348v-3.252c0-.312-.048-.592-.144-.84a1.169 1.169 0 0 0-.444-.6c-.2-.152-.476-.228-.828-.228-.328 0-.628.076-.9.228a1.672 1.672 0 0 0-.648.6c-.16.248-.24.528-.24.84v3.252a.497.497 0 0 1-.132.348.45.45 0 0 1-.348.144.474.474 0 0 1-.348-.144.497.497 0 0 1-.132-.348V90.22a2.36 2.36 0 0 0-.132-.816 1.13 1.13 0 0 0-.42-.588c-.2-.152-.476-.228-.828-.228-.32 0-.612.076-.876.228a1.73 1.73 0 0 0-.636.588c-.16.24-.24.512-.24.816v3.288a.474.474 0 0 1-.144.348.436.436 0 0 1-.336.144.474.474 0 0 1-.348-.144.497.497 0 0 1-.132-.348v-5.232a.474.474 0 0 1 .48-.48.45.45 0 0 1 .348.144c.088.088.132.2.132.336v.912l-.264.288c.032-.208.112-.416.24-.624a2.671 2.671 0 0 1 1.212-.996c.256-.104.528-.156.816-.156zm11.088 0a2.69 2.69 0 0 1 1.464.408c.432.272.772.648 1.02 1.128.256.48.384 1.032.384 1.656 0 .616-.128 1.168-.384 1.656-.248.48-.588.86-1.02 1.14a2.61 2.61 0 0 1-1.44.408 2.64 2.64 0 0 1-.84-.132 3.463 3.463 0 0 1-.708-.36 2.648 2.648 0 0 1-.528-.504 2.1 2.1 0 0 1-.312-.564l.264-.168v3.54a.497.497 0 0 1-.132.348.45.45 0 0 1-.348.144.474.474 0 0 1-.48-.492V88.24a.474.474 0 0 1 .48-.48.45.45 0 0 1 .348.144c.088.088.132.2.132.336v1.068l-.18-.096c.056-.2.152-.392.288-.576.144-.184.316-.344.516-.48.208-.144.436-.256.684-.336.256-.08.52-.12.792-.12zm-.108.888c-.4 0-.756.1-1.068.3a2.1 2.1 0 0 0-.72.816c-.168.344-.252.74-.252 1.188 0 .44.084.836.252 1.188.176.352.416.628.72.828.312.2.668.3 1.068.3s.752-.1 1.056-.3c.304-.2.544-.476.72-.828a2.62 2.62 0 0 0 .264-1.188c0-.448-.088-.844-.264-1.188a2.1 2.1 0 0 0-.72-.816c-.304-.2-.656-.3-1.056-.3zm4.18-.756h2.82c.128 0 .232.044.312.132a.427.427 0 0 1 .132.312.44.44 0 0 1-.132.324.422.422 0 0 1-.312.12h-2.82a.427.427 0 0 1-.312-.132.44.44 0 0 1-.132-.324c0-.12.044-.22.132-.3a.427.427 0 0 1 .312-.132zm1.26-1.632c.136 0 .248.048.336.144.088.088.132.2.132.336v5.796c0 .192.028.336.084.432a.48.48 0 0 0 .216.204.872.872 0 0 0 .276.048c.08 0 .148-.012.204-.036a.476.476 0 0 1 .216-.048c.08 0 .152.04.216.12a.39.39 0 0 1 .108.288c0 .144-.084.268-.252.372a1.116 1.116 0 0 1-.564.144c-.112 0-.252-.008-.42-.024a1.252 1.252 0 0 1-.48-.156 1.07 1.07 0 0 1-.408-.432c-.104-.208-.156-.496-.156-.864V86.68c0-.136.048-.248.144-.336a.474.474 0 0 1 .348-.144zm6.148 7.92c-.64 0-1.2-.136-1.68-.408a2.964 2.964 0 0 1-1.128-1.116c-.264-.48-.396-1.032-.396-1.656 0-.696.136-1.288.408-1.776.28-.496.64-.872 1.08-1.128.448-.264.92-.396 1.416-.396.368 0 .724.068 1.068.204.344.136.648.336.912.6.264.256.476.568.636.936.16.36.244.764.252 1.212a.423.423 0 0 1-.144.324.482.482 0 0 1-.336.132h-4.74l-.216-.828h4.62l-.192.168v-.264a1.515 1.515 0 0 0-.336-.84 1.835 1.835 0 0 0-.684-.552 1.9 1.9 0 0 0-.84-.192c-.24 0-.48.044-.72.132-.232.08-.444.216-.636.408a2.14 2.14 0 0 0-.456.72c-.112.296-.168.652-.168 1.068 0 .464.092.872.276 1.224.192.352.456.632.792.84.336.2.728.3 1.176.3.28 0 .524-.036.732-.108.208-.072.388-.16.54-.264.152-.112.28-.224.384-.336a.53.53 0 0 1 .3-.108c.12 0 .216.04.288.12.08.08.12.176.12.288 0 .136-.064.256-.192.36-.224.248-.528.468-.912.66a2.797 2.797 0 0 1-1.224.276zm9.123-9c.136 0 .248.048.336.144.096.088.144.2.144.336v7.908a.474.474 0 0 1-.144.348.436.436 0 0 1-.336.144.45.45 0 0 1-.348-.144.497.497 0 0 1-.132-.348v-1.14l.228-.084c0 .192-.06.396-.18.612-.12.208-.284.404-.492.588a2.65 2.65 0 0 1-.744.456c-.28.12-.584.18-.912.18-.536 0-1.024-.14-1.464-.42a3.004 3.004 0 0 1-1.032-1.152c-.248-.488-.372-1.044-.372-1.668 0-.632.124-1.192.372-1.68.256-.488.6-.868 1.032-1.14.432-.28.912-.42 1.44-.42.336 0 .652.056.948.168.296.112.552.264.768.456.224.192.4.404.528.636.128.232.192.464.192.696l-.312-.072V85.6c0-.136.044-.248.132-.336a.45.45 0 0 1 .348-.144zm-2.472 8.112c.4 0 .752-.1 1.056-.3.312-.208.552-.488.72-.84.176-.36.264-.764.264-1.212 0-.456-.088-.86-.264-1.212a1.964 1.964 0 0 0-.72-.828 1.825 1.825 0 0 0-1.056-.312 1.86 1.86 0 0 0-1.056.312 2.08 2.08 0 0 0-.72.828 2.675 2.675 0 0 0-.264 1.212c0 .44.088.84.264 1.2.176.352.416.632.72.84a1.86 1.86 0 0 0 1.056.312zm7.796-5.4h2.82c.128 0 .232.044.312.132a.427.427 0 0 1 .132.312.44.44 0 0 1-.132.324.422.422 0 0 1-.312.12h-2.82a.427.427 0 0 1-.312-.132.44.44 0 0 1-.132-.324c0-.12.044-.22.132-.3a.427.427 0 0 1 .312-.132zm1.26-1.632c.136 0 .248.048.336.144.088.088.132.2.132.336v5.796c0 .192.028.336.084.432a.48.48 0 0 0 .216.204.872.872 0 0 0 .276.048c.08 0 .148-.012.204-.036a.476.476 0 0 1 .216-.048c.08 0 .152.04.216.12a.39.39 0 0 1 .108.288c0 .144-.084.268-.252.372a1.116 1.116 0 0 1-.564.144c-.112 0-.252-.008-.42-.024a1.252 1.252 0 0 1-.48-.156 1.07 1.07 0 0 1-.408-.432c-.104-.208-.156-.496-.156-.864V86.68c0-.136.048-.248.144-.336a.474.474 0 0 1 .348-.144zm6.149 7.92c-.64 0-1.2-.136-1.68-.408a2.964 2.964 0 0 1-1.128-1.116c-.264-.48-.396-1.032-.396-1.656 0-.696.136-1.288.408-1.776.28-.496.64-.872 1.08-1.128.448-.264.92-.396 1.416-.396.368 0 .724.068 1.068.204.344.136.648.336.912.6.264.256.476.568.636.936.16.36.244.764.252 1.212a.423.423 0 0 1-.144.324.482.482 0 0 1-.336.132h-4.74l-.216-.828h4.62l-.192.168v-.264a1.515 1.515 0 0 0-.336-.84 1.835 1.835 0 0 0-.684-.552 1.9 1.9 0 0 0-.84-.192c-.24 0-.48.044-.72.132-.232.08-.444.216-.636.408a2.14 2.14 0 0 0-.456.72c-.112.296-.168.652-.168 1.068 0 .464.092.872.276 1.224.192.352.456.632.792.84.336.2.728.3 1.176.3.28 0 .524-.036.732-.108.208-.072.388-.16.54-.264.152-.112.28-.224.384-.336a.53.53 0 0 1 .3-.108c.12 0 .216.04.288.12.08.08.12.176.12.288 0 .136-.064.256-.192.36-.224.248-.528.468-.912.66a2.797 2.797 0 0 1-1.224.276zm3.663-1.104a.496.496 0 0 1-.096-.324c.008-.12.076-.224.204-.312a.412.412 0 0 1 .276-.072c.112.008.212.06.3.156.224.264.48.476.768.636.288.152.64.228 1.056.228a2.41 2.41 0 0 0 .576-.096c.192-.056.352-.152.48-.288a.788.788 0 0 0 .204-.564c0-.224-.068-.4-.204-.528a1.442 1.442 0 0 0-.528-.324 5.255 5.255 0 0 0-.708-.228 12.585 12.585 0 0 1-.78-.24 3.535 3.535 0 0 1-.696-.348 1.82 1.82 0 0 1-.492-.528 1.583 1.583 0 0 1-.18-.78c0-.36.096-.672.288-.936.2-.264.464-.468.792-.612.336-.144.7-.216 1.092-.216.224 0 .456.028.696.084.248.048.488.136.72.264.232.12.436.288.612.504.072.08.112.18.12.3.008.12-.044.228-.156.324a.441.441 0 0 1-.564-.036c-.168-.2-.38-.352-.636-.456a1.99 1.99 0 0 0-.828-.168c-.192 0-.38.028-.564.084a1.05 1.05 0 0 0-.468.288c-.12.128-.18.308-.18.54.008.216.08.392.216.528s.32.248.552.336c.232.08.488.16.768.24.256.064.5.14.732.228.24.08.456.188.648.324s.344.312.456.528c.112.208.168.472.168.792 0 .368-.104.688-.312.96a2.024 2.024 0 0 1-.828.612c-.336.136-.7.204-1.092.204-.44 0-.876-.084-1.308-.252a2.617 2.617 0 0 1-1.104-.852zm5.791-5.184h2.82c.128 0 .232.044.312.132a.427.427 0 0 1 .132.312.44.44 0 0 1-.132.324.422.422 0 0 1-.312.12h-2.82a.427.427 0 0 1-.312-.132.44.44 0 0 1-.132-.324c0-.12.044-.22.132-.3a.427.427 0 0 1 .312-.132zm1.26-1.632c.136 0 .248.048.336.144.088.088.132.2.132.336v5.796c0 .192.028.336.084.432a.48.48 0 0 0 .216.204.872.872 0 0 0 .276.048c.08 0 .148-.012.204-.036a.476.476 0 0 1 .216-.048c.08 0 .152.04.216.12a.39.39 0 0 1 .108.288c0 .144-.084.268-.252.372a1.116 1.116 0 0 1-.564.144c-.112 0-.252-.008-.42-.024a1.252 1.252 0 0 1-.48-.156 1.07 1.07 0 0 1-.408-.432c-.104-.208-.156-.496-.156-.864V86.68c0-.136.048-.248.144-.336a.474.474 0 0 1 .348-.144zm3.226 6.816a.496.496 0 0 1-.096-.324c.008-.12.076-.224.204-.312a.412.412 0 0 1 .276-.072c.112.008.212.06.3.156.224.264.48.476.768.636.288.152.64.228 1.056.228a2.41 2.41 0 0 0 .576-.096c.192-.056.352-.152.48-.288a.788.788 0 0 0 .204-.564c0-.224-.068-.4-.204-.528a1.442 1.442 0 0 0-.528-.324 5.255 5.255 0 0 0-.708-.228 12.585 12.585 0 0 1-.78-.24 3.535 3.535 0 0 1-.696-.348 1.82 1.82 0 0 1-.492-.528 1.583 1.583 0 0 1-.18-.78c0-.36.096-.672.288-.936.2-.264.464-.468.792-.612.336-.144.7-.216 1.092-.216.224 0 .456.028.696.084.248.048.488.136.72.264.232.12.436.288.612.504.072.08.112.18.12.3.008.12-.044.228-.156.324a.441.441 0 0 1-.564-.036c-.168-.2-.38-.352-.636-.456a1.99 1.99 0 0 0-.828-.168c-.192 0-.38.028-.564.084a1.05 1.05 0 0 0-.468.288c-.12.128-.18.308-.18.54.008.216.08.392.216.528s.32.248.552.336c.232.08.488.16.768.24.256.064.5.14.732.228.24.08.456.188.648.324s.344.312.456.528c.112.208.168.472.168.792 0 .368-.104.688-.312.96a2.024 2.024 0 0 1-.828.612c-.336.136-.7.204-1.092.204-.44 0-.876-.084-1.308-.252a2.617 2.617 0 0 1-1.104-.852zm6.32.972a.535.535 0 0 1-.396-.144.564.564 0 0 1-.132-.396v-.24c0-.176.044-.312.132-.408a.535.535 0 0 1 .396-.144h.096c.176 0 .308.048.396.144.088.096.132.232.132.408v.24c0 .168-.044.3-.132.396-.088.096-.22.144-.396.144h-.096z" fill="#404040"/>
    </g>
    <defs>
        <linearGradient id="3r0ba2noqb" x1="0" y1="0" x2="205.388" y2="320.992" gradientUnits="userSpaceOnUse">
            <stop stop-color="#FFE5EA"/>
            <stop offset="1" stop-color="#FFBAC7"/>
        </linearGradient>
        <linearGradient id="n6h80r3r6c" x1="297.686" y1="4.509" x2="20.306" y2="7.17" gradientUnits="userSpaceOnUse">
            <stop stop-color="#fff" stop-opacity="0"/>
            <stop offset="1" stop-color="#fff" stop-opacity=".37"/>
        </linearGradient>
        <linearGradient id="5ev35mm5nd" x1="25.383" y1="32" x2="62.883" y2="96" gradientUnits="userSpaceOnUse">
            <stop stop-color="#FFA3EC"/>
            <stop offset="1" stop-color="#FF6DE1"/>
        </linearGradient>
        <clipPath id="juhydsiefa">
            <rect width="288" height="132" rx="6" fill="#fff"/>
        </clipPath>
    </defs>
</svg>
