<svg width="288" height="132" viewBox="0 0 288 132" fill="none" xmlns="http://www.w3.org/2000/svg">
    <g clip-path="url(#s6wjip89sa)">
        <rect width="288" height="132" rx="6" fill="url(#zn4o4k3s1b)"/>
        <path d="M1-.215 288-5v20.24L79.63 56.055c-15.356 3.008-31.865-1.35-39.623-10.46L1-.215z" fill="url(#lf4h3y8glc)"/>
        <path d="M21.883 36a4 4 0 0 1 4-4h40a4 4 0 0 1 4 4v52a8 8 0 0 1-8 8h-36a4 4 0 0 1-4-4V36z" fill="url(#wwlz36yo6d)"/>
        <path d="M43.383 59h16" stroke="#FFE1F9" stroke-width="3" stroke-linecap="round"/>
        <path d="m31.883 59 1.222 1.297a1 1 0 0 0 1.388.065l4.39-3.862M31.883 48l1.222 1.297a1 1 0 0 0 1.388.065l4.39-3.862" stroke="#FFE1F9" stroke-width="3" stroke-linecap="round" stroke-linejoin="round"/>
        <path d="M43.383 48h16" stroke="#FFE1F9" stroke-width="3" stroke-linecap="round"/>
        <circle cx="64.883" cy="82" r="14" fill="#C455F9"/>
        <path fill-rule="evenodd" clip-rule="evenodd" d="M64.384 77.025c.274-.028.499.199.499.475v2.364a.5.5 0 0 0 .838.368l4.76-4.363a.5.5 0 0 0 0-.737l-4.76-4.364a.5.5 0 0 0-.838.369V73.5a.525.525 0 0 1-.5.516 8 8 0 1 0 8.484 8.484.477.477 0 0 0-.484-.5h-2a.542.542 0 0 0-.525.5 5 5 0 1 1-5.474-5.475z" fill="#FFE5F2"/>
        <path d="M113.792 18.752c.245 0 .48.096.704.288.224.181.336.432.336.752 0 .096-.016.203-.048.32l-3.152 9.28a.816.816 0 0 1-.352.448 1.11 1.11 0 0 1-.512.16c-.181 0-.363-.053-.544-.16a1.069 1.069 0 0 1-.4-.464L107.456 24l.144.096-2.336 5.28a1.04 1.04 0 0 1-.416.464.985.985 0 0 1-.528.16 1.192 1.192 0 0 1-.512-.16.816.816 0 0 1-.352-.448l-3.152-9.28a1.226 1.226 0 0 1-.048-.32c0-.32.112-.57.336-.752.235-.192.475-.288.72-.288.203 0 .389.053.56.16a.8.8 0 0 1 .368.464l2.544 7.712-.352-.016 2.272-5.456a1.02 1.02 0 0 1 .368-.448.82.82 0 0 1 .544-.16.82.82 0 0 1 .544.16c.16.107.277.256.352.448l2.08 5.216-.256.16 2.512-7.616a.8.8 0 0 1 .368-.464c.181-.107.373-.16.576-.16zm9.209 2.528c.277 0 .507.09.688.272a.954.954 0 0 1 .272.704v6.768a.989.989 0 0 1-.272.704.933.933 0 0 1-.688.272.933.933 0 0 1-.688-.272.989.989 0 0 1-.272-.704v-.784l.352.144c0 .139-.075.31-.224.512a3.176 3.176 0 0 1-.608.576c-.256.192-.56.357-.912.496a3.166 3.166 0 0 1-1.12.192 3.696 3.696 0 0 1-2-.56 4.134 4.134 0 0 1-1.424-1.568c-.341-.672-.512-1.44-.512-2.304 0-.875.171-1.643.512-2.304.352-.672.821-1.195 1.408-1.568a3.489 3.489 0 0 1 1.952-.576 3.695 3.695 0 0 1 2.256.736c.288.213.507.432.656.656.16.213.24.395.24.544l-.576.208v-1.168c0-.277.091-.507.272-.688a.906.906 0 0 1 .688-.288zm-3.232 7.12c.469 0 .88-.117 1.232-.352a2.32 2.32 0 0 0 .816-.96c.203-.405.304-.859.304-1.36 0-.512-.101-.97-.304-1.376a2.32 2.32 0 0 0-.816-.96 2.17 2.17 0 0 0-1.232-.352 2.14 2.14 0 0 0-1.216.352 2.44 2.44 0 0 0-.832.96 3.176 3.176 0 0 0-.288 1.376c0 .501.096.955.288 1.36.203.405.48.725.832.96a2.14 2.14 0 0 0 1.216.352zM127 30a.933.933 0 0 1-.688-.272.989.989 0 0 1-.272-.704v-6.608c0-.277.091-.507.272-.688a.906.906 0 0 1 .688-.288c.277 0 .507.096.688.288.181.181.272.41.272.688v1.504l-.112-1.072c.117-.256.267-.48.448-.672.192-.203.405-.368.64-.496.235-.139.485-.24.752-.304s.533-.096.8-.096c.32 0 .587.09.8.272.224.181.336.395.336.64 0 .352-.091.608-.272.768a.912.912 0 0 1-.592.224c-.203 0-.389-.037-.56-.112a1.312 1.312 0 0 0-.56-.112 1.38 1.38 0 0 0-.592.144 1.617 1.617 0 0 0-.544.416c-.16.192-.293.432-.4.72a3.042 3.042 0 0 0-.144.992v3.792a.989.989 0 0 1-.272.704A.933.933 0 0 1 127 30zm10.474-8.72c.853 0 1.482.208 1.888.624.405.405.672.933.799 1.584l-.271-.144.127-.256c.129-.245.326-.507.593-.784.266-.288.586-.528.96-.72.384-.203.81-.304 1.28-.304.768 0 1.349.165 1.744.496.405.33.682.773.832 1.328.149.544.224 1.152.224 1.824v4.096a.989.989 0 0 1-.272.704.934.934 0 0 1-.688.272.931.931 0 0 1-.688-.272.984.984 0 0 1-.272-.704v-4.096c0-.352-.043-.667-.128-.944a1.309 1.309 0 0 0-.464-.688c-.224-.17-.544-.256-.96-.256-.406 0-.752.085-1.04.256-.288.17-.507.4-.656.688a2.078 2.078 0 0 0-.208.944v4.096a.989.989 0 0 1-.272.704.934.934 0 0 1-.688.272.931.931 0 0 1-.688-.272.984.984 0 0 1-.272-.704v-4.096c0-.352-.043-.667-.128-.944a1.309 1.309 0 0 0-.464-.688c-.224-.17-.544-.256-.96-.256-.406 0-.752.085-1.04.256-.288.17-.507.4-.656.688a2.078 2.078 0 0 0-.208.944v4.096a.989.989 0 0 1-.272.704.934.934 0 0 1-.688.272.931.931 0 0 1-.688-.272.984.984 0 0 1-.272-.704v-6.608a.93.93 0 0 1 .272-.688.904.904 0 0 1 .688-.288c.277 0 .506.096.688.288.181.181.272.41.272.688v.688l-.24-.048c.096-.181.229-.373.4-.576a3.277 3.277 0 0 1 1.44-1.024c.298-.117.624-.176.976-.176zm10.99 4.768a.986.986 0 0 1-.704-.272.93.93 0 0 1-.272-.688c0-.277.09-.501.272-.672a.986.986 0 0 1 .704-.272h2.784c.277 0 .506.096.688.288.192.181.288.41.288.688 0 .267-.096.49-.288.672a.966.966 0 0 1-.688.256h-2.784zm11.959-4.608c.278 0 .507.096.688.288a.93.93 0 0 1 .272.688v4.064c0 1.13-.314 2.027-.944 2.688-.629.661-1.536.992-2.72.992-1.184 0-2.09-.33-2.72-.992-.618-.661-.928-1.557-.928-2.688v-4.064c0-.277.091-.507.272-.688a.907.907 0 0 1 .688-.288c.278 0 .507.096.688.288a.93.93 0 0 1 .272.688v4.064c0 .65.144 1.136.432 1.456.288.31.72.464 1.296.464.587 0 1.024-.155 1.312-.464.288-.32.432-.805.432-1.456v-4.064c0-.277.091-.507.272-.688a.907.907 0 0 1 .688-.288zm7.471-.16c.747 0 1.413.192 2 .576.597.373 1.067.89 1.408 1.552.352.661.528 1.43.528 2.304 0 .875-.176 1.648-.528 2.32a4.05 4.05 0 0 1-1.392 1.568 3.512 3.512 0 0 1-1.952.56c-.427 0-.827-.07-1.2-.208a3.996 3.996 0 0 1-.992-.528 3.426 3.426 0 0 1-.656-.64c-.149-.224-.224-.41-.224-.56l.496-.208v4.208a.934.934 0 0 1-.272.688.906.906 0 0 1-.688.288.933.933 0 0 1-.688-.272.954.954 0 0 1-.272-.704v-9.808c0-.277.091-.507.272-.688a.906.906 0 0 1 .688-.288c.277 0 .507.096.688.288.181.181.272.41.272.688v.784l-.272-.144c0-.139.075-.304.224-.496.149-.203.352-.4.608-.592.256-.203.549-.368.88-.496a3.028 3.028 0 0 1 1.072-.192zm-.24 1.76c-.469 0-.88.117-1.232.352a2.44 2.44 0 0 0-.832.96c-.192.395-.288.848-.288 1.36 0 .501.096.96.288 1.376.203.405.48.725.832.96a2.17 2.17 0 0 0 1.232.352c.469 0 .875-.117 1.216-.352a2.32 2.32 0 0 0 .816-.96c.203-.416.304-.875.304-1.376 0-.512-.101-.965-.304-1.36a2.32 2.32 0 0 0-.816-.96c-.341-.235-.747-.352-1.216-.352zm10.435-1.44h3.792c.256 0 .469.085.64.256.171.17.256.384.256.64a.848.848 0 0 1-.256.624.9.9 0 0 1-.64.24h-3.792a.869.869 0 0 1-.64-.256.867.867 0 0 1-.256-.64c0-.245.085-.448.256-.608a.869.869 0 0 1 .64-.256zm1.712-2c.277 0 .501.096.672.288.181.181.272.41.272.688v7.12c0 .15.027.272.08.368a.56.56 0 0 0 .24.208.94.94 0 0 0 .688 0 .813.813 0 0 1 .368-.08c.149 0 .283.07.4.208.128.139.192.33.192.576 0 .299-.165.544-.496.736-.32.192-.667.288-1.04.288-.224 0-.475-.016-.752-.048a2.28 2.28 0 0 1-.768-.272c-.235-.15-.432-.373-.592-.672-.16-.299-.24-.71-.24-1.232v-7.2a.958.958 0 0 1 .976-.976zm8.693 10.56c-.907 0-1.696-.187-2.368-.56a4.054 4.054 0 0 1-1.536-1.552c-.352-.65-.528-1.387-.528-2.208 0-.96.192-1.776.576-2.448.395-.683.907-1.205 1.536-1.568a3.943 3.943 0 0 1 2-.544c.544 0 1.056.112 1.536.336a4.12 4.12 0 0 1 1.296.928c.373.384.667.832.88 1.344.224.512.336 1.056.336 1.632a.823.823 0 0 1-.304.624c-.192.16-.416.24-.672.24h-6.112l-.48-1.6h5.872l-.352.32v-.432a1.429 1.429 0 0 0-.336-.832 1.97 1.97 0 0 0-.736-.576 1.986 1.986 0 0 0-.928-.224c-.32 0-.619.043-.896.128a1.72 1.72 0 0 0-.72.432c-.203.203-.363.475-.48.816-.117.341-.176.773-.176 1.296 0 .576.117 1.067.352 1.472.245.395.555.699.928.912.384.203.789.304 1.216.304.395 0 .709-.032.944-.096s.421-.139.56-.224c.149-.096.283-.176.4-.24a1.22 1.22 0 0 1 .544-.144c.235 0 .427.08.576.24.16.16.24.347.24.56 0 .288-.149.55-.448.784-.277.235-.667.443-1.168.624a4.783 4.783 0 0 1-1.552.256zm4.909-1.488c-.106-.15-.154-.341-.144-.576.011-.235.15-.437.416-.608a.829.829 0 0 1 .544-.128c.192.01.379.107.56.288.31.31.635.55.976.72.342.17.768.256 1.28.256.16-.01.336-.032.528-.064.192-.043.358-.128.496-.256.15-.139.224-.347.224-.624a.703.703 0 0 0-.24-.56 2.004 2.004 0 0 0-.64-.352 9.279 9.279 0 0 0-.864-.272c-.33-.096-.672-.203-1.024-.32a4.533 4.533 0 0 1-.944-.448 2.274 2.274 0 0 1-.704-.752c-.181-.31-.272-.699-.272-1.168 0-.533.15-.987.448-1.36a2.942 2.942 0 0 1 1.152-.864 3.83 3.83 0 0 1 1.504-.304c.331 0 .678.043 1.04.128.363.075.71.203 1.04.384.331.17.608.4.832.688.118.16.187.352.208.576.022.224-.08.427-.304.608a.801.801 0 0 1-.56.176.885.885 0 0 1-.528-.224 1.872 1.872 0 0 0-.736-.56 2.442 2.442 0 0 0-1.04-.208c-.16 0-.336.021-.528.064a.937.937 0 0 0-.48.24c-.138.117-.208.31-.208.576 0 .245.08.443.24.592.16.139.374.256.64.352.278.085.571.17.88.256.32.085.646.187.976.304.331.117.635.272.912.464.278.192.502.443.672.752.171.299.256.683.256 1.152 0 .544-.16 1.008-.48 1.392a3.11 3.11 0 0 1-1.2.88c-.48.192-.97.288-1.472.288a5.855 5.855 0 0 1-1.888-.32 3.32 3.32 0 0 1-1.568-1.168zm8.311-7.072h3.792c.256 0 .469.085.64.256.171.17.256.384.256.64a.848.848 0 0 1-.256.624.9.9 0 0 1-.64.24h-3.792a.869.869 0 0 1-.64-.256.867.867 0 0 1-.256-.64c0-.245.085-.448.256-.608a.869.869 0 0 1 .64-.256zm1.712-2c.277 0 .501.096.672.288.181.181.272.41.272.688v7.12c0 .15.027.272.08.368a.56.56 0 0 0 .24.208.94.94 0 0 0 .688 0 .813.813 0 0 1 .368-.08c.149 0 .283.07.4.208.128.139.192.33.192.576 0 .299-.165.544-.496.736-.32.192-.667.288-1.04.288-.224 0-.475-.016-.752-.048a2.28 2.28 0 0 1-.768-.272c-.235-.15-.432-.373-.592-.672-.16-.299-.24-.71-.24-1.232v-7.2a.958.958 0 0 1 .976-.976zm4.556 9.072c-.107-.15-.155-.341-.144-.576.01-.235.149-.437.416-.608a.827.827 0 0 1 .544-.128c.192.01.378.107.56.288.309.31.634.55.976.72.341.17.768.256 1.28.256.16-.01.336-.032.527-.064.193-.043.358-.128.497-.256.149-.139.224-.347.224-.624a.703.703 0 0 0-.24-.56 2.015 2.015 0 0 0-.64-.352 9.279 9.279 0 0 0-.864-.272 27.268 27.268 0 0 1-1.024-.32 4.509 4.509 0 0 1-.944-.448 2.264 2.264 0 0 1-.704-.752c-.182-.31-.272-.699-.272-1.168 0-.533.149-.987.448-1.36a2.928 2.928 0 0 1 1.152-.864c.48-.203.981-.304 1.504-.304.33 0 .677.043 1.04.128a3.72 3.72 0 0 1 1.04.384c.33.17.608.4.832.688.117.16.186.352.208.576.021.224-.08.427-.304.608a.803.803 0 0 1-.56.176.88.88 0 0 1-.528-.224 1.886 1.886 0 0 0-.736-.56 2.449 2.449 0 0 0-1.04-.208c-.16 0-.336.021-.528.064a.93.93 0 0 0-.48.24c-.139.117-.208.31-.208.576 0 .245.08.443.24.592.16.139.373.256.64.352.277.085.57.17.88.256.32.085.645.187.976.304.33.117.634.272.912.464.277.192.501.443.672.752.17.299.256.683.256 1.152 0 .544-.16 1.008-.48 1.392a3.11 3.11 0 0 1-1.2.88c-.48.192-.971.288-1.472.288-.63 0-1.259-.107-1.889-.32a3.318 3.318 0 0 1-1.567-1.168zM104.884 58.12a4.488 4.488 0 0 1-1.716-.324 4.494 4.494 0 0 1-1.38-.924 4.347 4.347 0 0 1-.924-1.368 4.457 4.457 0 0 1-.324-1.704c0-.616.108-1.184.324-1.704.224-.528.532-.988.924-1.38.4-.392.86-.696 1.38-.912a4.488 4.488 0 0 1 1.716-.324c.408 0 .8.048 1.176.144.384.088.732.228 1.044.42.08.04.136.096.168.168a.474.474 0 0 1-.084.576.41.41 0 0 1-.456.12 2.402 2.402 0 0 0-.132-.048 3.706 3.706 0 0 0-.804-.3 3.393 3.393 0 0 0-.912-.12c-.632 0-1.2.148-1.704.444a3.254 3.254 0 0 0-1.176 1.2c-.288.504-.432 1.076-.432 1.716 0 .632.144 1.204.432 1.716.288.504.68.904 1.176 1.2a3.301 3.301 0 0 0 1.704.444c.32 0 .648-.044.984-.132.344-.088.636-.2.876-.336l-.084.288v-2.532l.192.168h-1.836a.497.497 0 0 1-.348-.132.497.497 0 0 1-.132-.348.474.474 0 0 1 .48-.48h2.184a.45.45 0 0 1 .348.144.497.497 0 0 1 .132.348v2.772c0 .096-.024.18-.072.252a.516.516 0 0 1-.168.18c-.36.232-.76.42-1.2.564a4.489 4.489 0 0 1-1.356.204zm7.216 0c-.64 0-1.2-.136-1.68-.408a2.964 2.964 0 0 1-1.128-1.116c-.264-.48-.396-1.032-.396-1.656 0-.696.136-1.288.408-1.776.28-.496.64-.872 1.08-1.128.448-.264.92-.396 1.416-.396.368 0 .724.068 1.068.204.344.136.648.336.912.6.264.256.476.568.636.936.16.36.244.764.252 1.212a.423.423 0 0 1-.144.324.482.482 0 0 1-.336.132h-4.74l-.216-.828h4.62l-.192.168v-.264a1.515 1.515 0 0 0-.336-.84 1.835 1.835 0 0 0-.684-.552 1.9 1.9 0 0 0-.84-.192c-.24 0-.48.044-.72.132-.232.08-.444.216-.636.408a2.14 2.14 0 0 0-.456.72c-.112.296-.168.652-.168 1.068 0 .464.092.872.276 1.224.192.352.456.632.792.84.336.2.728.3 1.176.3.28 0 .524-.036.732-.108.208-.072.388-.16.54-.264.152-.112.28-.224.384-.336a.53.53 0 0 1 .3-.108c.12 0 .216.04.288.12.08.08.12.176.12.288 0 .136-.064.256-.192.36-.224.248-.528.468-.912.66a2.797 2.797 0 0 1-1.224.276zm3.771-6.288h2.82c.128 0 .232.044.312.132a.427.427 0 0 1 .132.312.44.44 0 0 1-.132.324.422.422 0 0 1-.312.12h-2.82a.427.427 0 0 1-.312-.132.44.44 0 0 1-.132-.324c0-.12.044-.22.132-.3a.427.427 0 0 1 .312-.132zm1.26-1.632c.136 0 .248.048.336.144.088.088.132.2.132.336v5.796c0 .192.028.336.084.432a.48.48 0 0 0 .216.204.872.872 0 0 0 .276.048c.08 0 .148-.012.204-.036a.476.476 0 0 1 .216-.048c.08 0 .152.04.216.12a.39.39 0 0 1 .108.288c0 .144-.084.268-.252.372a1.116 1.116 0 0 1-.564.144c-.112 0-.252-.008-.42-.024a1.252 1.252 0 0 1-.48-.156 1.07 1.07 0 0 1-.408-.432c-.104-.208-.156-.496-.156-.864V50.68c0-.136.048-.248.144-.336a.474.474 0 0 1 .348-.144zm7.124 7.8a.474.474 0 0 1-.348-.144.497.497 0 0 1-.132-.348v-5.232a.474.474 0 0 1 .48-.48.45.45 0 0 1 .348.144c.088.088.132.2.132.336v1.584l-.144-.252a2.51 2.51 0 0 1 .732-1.356c.192-.192.412-.34.66-.444a1.96 1.96 0 0 1 .816-.168c.176 0 .336.044.48.132.152.08.228.196.228.348 0 .168-.044.292-.132.372a.434.434 0 0 1-.3.12.773.773 0 0 1-.3-.06.801.801 0 0 0-.36-.072c-.2 0-.4.056-.6.168a1.887 1.887 0 0 0-.54.456c-.16.2-.292.428-.396.684a2.208 2.208 0 0 0-.144.804v2.916a.474.474 0 0 1-.144.348.436.436 0 0 1-.336.144zm6.935.12c-.64 0-1.2-.136-1.68-.408a2.964 2.964 0 0 1-1.128-1.116c-.264-.48-.396-1.032-.396-1.656 0-.696.136-1.288.408-1.776.28-.496.64-.872 1.08-1.128.448-.264.92-.396 1.416-.396.368 0 .724.068 1.068.204.344.136.648.336.912.6.264.256.476.568.636.936.16.36.244.764.252 1.212a.423.423 0 0 1-.144.324.482.482 0 0 1-.336.132h-4.74l-.216-.828h4.62l-.192.168v-.264a1.515 1.515 0 0 0-.336-.84 1.835 1.835 0 0 0-.684-.552 1.9 1.9 0 0 0-.84-.192c-.24 0-.48.044-.72.132-.232.08-.444.216-.636.408a2.14 2.14 0 0 0-.456.72c-.112.296-.168.652-.168 1.068 0 .464.092.872.276 1.224.192.352.456.632.792.84.336.2.728.3 1.176.3.28 0 .524-.036.732-.108.208-.072.388-.16.54-.264.152-.112.28-.224.384-.336a.53.53 0 0 1 .3-.108c.12 0 .216.04.288.12.08.08.12.176.12.288 0 .136-.064.256-.192.36-.224.248-.528.468-.912.66a2.797 2.797 0 0 1-1.224.276zm9.169-6.384c.136 0 .248.048.336.144.096.088.144.2.144.336v5.292a.474.474 0 0 1-.144.348.436.436 0 0 1-.336.144.45.45 0 0 1-.348-.144.497.497 0 0 1-.132-.348v-1.14l.228-.024c0 .176-.06.368-.18.576-.12.208-.284.404-.492.588a2.822 2.822 0 0 1-.744.444c-.28.112-.584.168-.912.168-.544 0-1.032-.14-1.464-.42a3.1 3.1 0 0 1-1.032-1.164c-.248-.488-.372-1.044-.372-1.668 0-.632.124-1.188.372-1.668.256-.488.6-.868 1.032-1.14.432-.28.912-.42 1.44-.42.344 0 .664.056.96.168.296.112.552.264.768.456.224.192.396.404.516.636.128.232.192.464.192.696l-.312-.072v-1.308c0-.136.044-.248.132-.336a.45.45 0 0 1 .348-.144zm-2.472 5.496c.4 0 .752-.104 1.056-.312.312-.208.552-.488.72-.84.176-.36.264-.764.264-1.212 0-.44-.088-.836-.264-1.188a1.95 1.95 0 0 0-.72-.84 1.825 1.825 0 0 0-1.056-.312c-.392 0-.744.1-1.056.3a2.08 2.08 0 0 0-.72.828 2.675 2.675 0 0 0-.264 1.212c0 .448.084.852.252 1.212.176.352.416.632.72.84.312.208.668.312 1.068.312zm9.843-8.112c.136 0 .248.048.336.144.096.088.144.2.144.336v7.908a.474.474 0 0 1-.144.348.436.436 0 0 1-.336.144.45.45 0 0 1-.348-.144.497.497 0 0 1-.132-.348v-1.14l.228-.084c0 .192-.06.396-.18.612-.12.208-.284.404-.492.588a2.65 2.65 0 0 1-.744.456c-.28.12-.584.18-.912.18-.536 0-1.024-.14-1.464-.42a3.004 3.004 0 0 1-1.032-1.152c-.248-.488-.372-1.044-.372-1.668 0-.632.124-1.192.372-1.68.256-.488.6-.868 1.032-1.14.432-.28.912-.42 1.44-.42.336 0 .652.056.948.168.296.112.552.264.768.456.224.192.4.404.528.636.128.232.192.464.192.696l-.312-.072V49.6c0-.136.044-.248.132-.336a.45.45 0 0 1 .348-.144zm-2.472 8.112c.4 0 .752-.1 1.056-.3.312-.208.552-.488.72-.84.176-.36.264-.764.264-1.212 0-.456-.088-.86-.264-1.212a1.964 1.964 0 0 0-.72-.828 1.825 1.825 0 0 0-1.056-.312 1.86 1.86 0 0 0-1.056.312 2.08 2.08 0 0 0-.72.828 2.675 2.675 0 0 0-.264 1.212c0 .44.088.84.264 1.2.176.352.416.632.72.84a1.86 1.86 0 0 0 1.056.312zm9.376-5.532c.136 0 .248.048.336.144.096.088.144.2.144.336v5.232c0 .672-.132 1.228-.396 1.668-.264.448-.62.78-1.068.996-.44.216-.94.324-1.5.324-.312 0-.612-.032-.9-.096a2.59 2.59 0 0 1-.708-.252.703.703 0 0 1-.324-.276.408.408 0 0 1-.024-.336.547.547 0 0 1 .24-.3.381.381 0 0 1 .348 0c.128.056.312.132.552.228.248.104.524.156.828.156.416 0 .772-.08 1.068-.24.296-.16.524-.396.684-.708.16-.304.24-.684.24-1.14v-.852l.144.3c-.128.248-.3.464-.516.648a2.454 2.454 0 0 1-.744.432c-.28.104-.588.156-.924.156-.456 0-.844-.096-1.164-.288a1.98 1.98 0 0 1-.72-.816 2.9 2.9 0 0 1-.24-1.212V52.18a.474.474 0 0 1 .48-.48.45.45 0 0 1 .348.144c.088.088.132.2.132.336v3.408c0 .544.12.956.36 1.236.24.272.612.408 1.116.408.32 0 .608-.072.864-.216.264-.144.472-.34.624-.588.16-.256.24-.536.24-.84V52.18c0-.136.044-.248.132-.336a.45.45 0 0 1 .348-.144zm8.155-2.556c.136 0 .276.016.42.048.152.032.28.088.384.168.112.08.168.188.168.324 0 .128-.04.236-.12.324a.393.393 0 0 1-.288.12c-.072 0-.172-.02-.3-.06a1.119 1.119 0 0 0-.396-.072.806.806 0 0 0-.456.12.73.73 0 0 0-.252.324 1.223 1.223 0 0 0-.072.432v6.636a.474.474 0 0 1-.144.348.436.436 0 0 1-.336.144.45.45 0 0 1-.348-.144.497.497 0 0 1-.132-.348v-6.624c0-.536.164-.96.492-1.272.336-.312.796-.468 1.38-.468zm.336 2.748a.44.44 0 0 1 .324.132c.088.08.132.184.132.312a.44.44 0 0 1-.132.324.464.464 0 0 1-.324.12h-3.012a.44.44 0 0 1-.324-.132.427.427 0 0 1-.132-.312c0-.136.044-.244.132-.324a.464.464 0 0 1 .324-.12h3.012zm7.171 2.988c0 .624-.14 1.18-.42 1.668a3.028 3.028 0 0 1-1.116 1.152c-.464.28-.988.42-1.572.42-.584 0-1.112-.14-1.584-.42a3.118 3.118 0 0 1-1.128-1.152c-.272-.488-.408-1.044-.408-1.668 0-.624.136-1.18.408-1.668.28-.488.656-.872 1.128-1.152.472-.28 1-.42 1.584-.42.584 0 1.108.14 1.572.42.472.28.844.664 1.116 1.152.28.488.42 1.044.42 1.668zm-.96 0c0-.464-.096-.872-.288-1.224a2.074 2.074 0 0 0-.768-.828c-.32-.2-.684-.3-1.092-.3-.408 0-.776.1-1.104.3-.32.2-.576.476-.768.828-.192.352-.288.76-.288 1.224 0 .456.096.86.288 1.212.192.352.448.632.768.84.328.2.696.3 1.104.3.408 0 .772-.1 1.092-.3a2.16 2.16 0 0 0 .768-.84 2.49 2.49 0 0 0 .288-1.212zM172.22 58a.474.474 0 0 1-.348-.144.497.497 0 0 1-.132-.348v-5.232a.474.474 0 0 1 .48-.48.45.45 0 0 1 .348.144c.088.088.132.2.132.336v1.584l-.144-.252a2.51 2.51 0 0 1 .732-1.356c.192-.192.412-.34.66-.444a1.96 1.96 0 0 1 .816-.168c.176 0 .336.044.48.132.152.08.228.196.228.348 0 .168-.044.292-.132.372a.434.434 0 0 1-.3.12.773.773 0 0 1-.3-.06.801.801 0 0 0-.36-.072c-.2 0-.4.056-.6.168a1.887 1.887 0 0 0-.54.456c-.16.2-.292.428-.396.684a2.208 2.208 0 0 0-.144.804v2.916a.474.474 0 0 1-.144.348.436.436 0 0 1-.336.144zm12.285-6.204a.45.45 0 0 1 .348.144c.088.088.132.2.132.336v3.276c0 .808-.228 1.436-.684 1.884-.448.44-1.076.66-1.884.66-.8 0-1.428-.22-1.884-.66-.448-.448-.672-1.076-.672-1.884v-3.276a.474.474 0 0 1 .48-.48.45.45 0 0 1 .348.144c.088.088.132.2.132.336v3.276c0 .544.14.956.42 1.236.28.28.672.42 1.176.42.52 0 .916-.14 1.188-.42.28-.28.42-.692.42-1.236v-3.276a.474.474 0 0 1 .48-.48zm5.318-.096a2.69 2.69 0 0 1 1.464.408c.432.272.772.648 1.02 1.128.256.48.384 1.032.384 1.656 0 .616-.128 1.168-.384 1.656-.248.48-.588.86-1.02 1.14a2.61 2.61 0 0 1-1.44.408 2.64 2.64 0 0 1-.84-.132 3.463 3.463 0 0 1-.708-.36 2.648 2.648 0 0 1-.528-.504 2.1 2.1 0 0 1-.312-.564l.264-.168v3.54a.497.497 0 0 1-.132.348.45.45 0 0 1-.348.144.474.474 0 0 1-.48-.492V52.24a.474.474 0 0 1 .48-.48.45.45 0 0 1 .348.144c.088.088.132.2.132.336v1.068l-.18-.096c.056-.2.152-.392.288-.576.144-.184.316-.344.516-.48.208-.144.436-.256.684-.336.256-.08.52-.12.792-.12zm-.108.888c-.4 0-.756.1-1.068.3a2.1 2.1 0 0 0-.72.816c-.168.344-.252.74-.252 1.188 0 .44.084.836.252 1.188.176.352.416.628.72.828.312.2.668.3 1.068.3s.752-.1 1.056-.3c.304-.2.544-.476.72-.828a2.62 2.62 0 0 0 .264-1.188c0-.448-.088-.844-.264-1.188a2.1 2.1 0 0 0-.72-.816c-.304-.2-.656-.3-1.056-.3zm7.179-.948c.408 0 .776.044 1.104.132.328.088.588.208.78.36.192.152.288.324.288.516a.493.493 0 0 1-.108.3.342.342 0 0 1-.288.144.564.564 0 0 1-.276-.06 1.096 1.096 0 0 1-.192-.156.708.708 0 0 0-.24-.168 1.298 1.298 0 0 0-.42-.132 3.216 3.216 0 0 0-.552-.048c-.44 0-.828.104-1.164.312a2.253 2.253 0 0 0-.78.84 2.465 2.465 0 0 0-.288 1.2c0 .448.092.848.276 1.2a2.083 2.083 0 0 0 1.908 1.152c.28 0 .504-.024.672-.072.168-.048.308-.104.42-.168.144-.08.252-.16.324-.24.08-.08.184-.12.312-.12.136 0 .24.044.312.132.08.088.12.196.12.324 0 .144-.1.296-.3.456-.2.16-.472.296-.816.408-.336.112-.72.168-1.152.168-.608 0-1.14-.14-1.596-.42a2.997 2.997 0 0 1-1.068-1.164 3.65 3.65 0 0 1-.372-1.656c0-.608.128-1.156.384-1.644a3.057 3.057 0 0 1 1.092-1.164c.464-.288 1.004-.432 1.62-.432zm9.355 3.24c0 .624-.14 1.18-.42 1.668a3.028 3.028 0 0 1-1.116 1.152c-.464.28-.988.42-1.572.42-.584 0-1.112-.14-1.584-.42a3.118 3.118 0 0 1-1.128-1.152c-.272-.488-.408-1.044-.408-1.668 0-.624.136-1.18.408-1.668.28-.488.656-.872 1.128-1.152.472-.28 1-.42 1.584-.42.584 0 1.108.14 1.572.42.472.28.844.664 1.116 1.152.28.488.42 1.044.42 1.668zm-.96 0c0-.464-.096-.872-.288-1.224a2.074 2.074 0 0 0-.768-.828c-.32-.2-.684-.3-1.092-.3-.408 0-.776.1-1.104.3-.32.2-.576.476-.768.828-.192.352-.288.76-.288 1.224 0 .456.096.86.288 1.212.192.352.448.632.768.84.328.2.696.3 1.104.3.408 0 .772-.1 1.092-.3a2.16 2.16 0 0 0 .768-.84 2.49 2.49 0 0 0 .288-1.212zm5.368-3.18c.544 0 .984.14 1.32.42.344.272.572.66.684 1.164h-.18l.084-.216c.096-.224.26-.44.492-.648.232-.208.5-.38.804-.516.304-.136.62-.204.948-.204.528 0 .944.116 1.248.348.304.224.52.528.648.912.136.376.204.8.204 1.272v3.276a.474.474 0 0 1-.144.348.436.436 0 0 1-.336.144.45.45 0 0 1-.348-.144.497.497 0 0 1-.132-.348v-3.252c0-.312-.048-.592-.144-.84a1.169 1.169 0 0 0-.444-.6c-.2-.152-.476-.228-.828-.228-.328 0-.628.076-.9.228a1.672 1.672 0 0 0-.648.6c-.16.248-.24.528-.24.84v3.252a.497.497 0 0 1-.132.348.45.45 0 0 1-.348.144.474.474 0 0 1-.348-.144.497.497 0 0 1-.132-.348V54.22a2.36 2.36 0 0 0-.132-.816 1.13 1.13 0 0 0-.42-.588c-.2-.152-.476-.228-.828-.228-.32 0-.612.076-.876.228a1.73 1.73 0 0 0-.636.588c-.16.24-.24.512-.24.816v3.288a.474.474 0 0 1-.144.348.436.436 0 0 1-.336.144.474.474 0 0 1-.348-.144.497.497 0 0 1-.132-.348v-5.232a.474.474 0 0 1 .48-.48.45.45 0 0 1 .348.144c.088.088.132.2.132.336v.912l-.264.288c.032-.208.112-.416.24-.624a2.671 2.671 0 0 1 1.212-.996c.256-.104.528-.156.816-.156zm8.952 5.808a.474.474 0 0 1-.144.348.436.436 0 0 1-.336.144.45.45 0 0 1-.348-.144.497.497 0 0 1-.132-.348V52.18a.474.474 0 0 1 .48-.48c.136 0 .248.048.336.144.096.088.144.2.144.336v5.328zm-.48-6.612c-.2 0-.348-.04-.444-.12-.096-.08-.144-.204-.144-.372v-.168c0-.168.052-.292.156-.372.104-.08.252-.12.444-.12s.336.04.432.12c.096.08.144.204.144.372v.168c0 .168-.052.292-.156.372-.096.08-.24.12-.432.12zm5.288.744c.544 0 .972.112 1.284.336.312.224.532.524.66.9.136.376.204.796.204 1.26v3.372a.474.474 0 0 1-.144.348.436.436 0 0 1-.336.144.474.474 0 0 1-.348-.144.497.497 0 0 1-.132-.348V54.16c0-.304-.048-.576-.144-.816a1.15 1.15 0 0 0-.456-.588c-.208-.152-.496-.228-.864-.228-.336 0-.644.076-.924.228-.28.144-.504.34-.672.588-.168.24-.252.512-.252.816v3.348a.474.474 0 0 1-.144.348.436.436 0 0 1-.336.144.474.474 0 0 1-.348-.144.497.497 0 0 1-.132-.348v-5.232a.474.474 0 0 1 .48-.48.45.45 0 0 1 .348.144c.088.088.132.2.132.336v.852l-.24.264c.04-.208.132-.416.276-.624a2.45 2.45 0 0 1 .54-.576c.216-.168.456-.3.72-.396.264-.104.54-.156.828-.156zm6.528 0c.344 0 .664.06.96.18.296.112.552.26.768.444.224.184.396.376.516.576.128.2.192.388.192.564l-.228-.144v-1.044c0-.136.044-.248.132-.336a.45.45 0 0 1 .348-.144c.136 0 .248.048.336.144.096.088.144.2.144.336v5.256c0 .656-.14 1.2-.42 1.632a2.55 2.55 0 0 1-1.104.972 3.653 3.653 0 0 1-1.56.324c-.24 0-.504-.032-.792-.096a4.347 4.347 0 0 1-.768-.24c-.224-.088-.368-.18-.432-.276a.526.526 0 0 1-.228-.276.32.32 0 0 1 .06-.276c.072-.112.164-.168.276-.168.12 0 .268.036.444.108.072.024.184.064.336.12.16.056.336.104.528.144.2.048.396.072.588.072.68 0 1.2-.18 1.56-.54.368-.352.552-.82.552-1.404v-1.116l.132.06a1.505 1.505 0 0 1-.3.624 2.377 2.377 0 0 1-.54.516c-.208.144-.44.26-.696.348a2.6 2.6 0 0 1-.78.12c-.56 0-1.064-.14-1.512-.42a3.028 3.028 0 0 1-1.068-1.152c-.256-.488-.384-1.044-.384-1.668 0-.632.128-1.192.384-1.68a2.968 2.968 0 0 1 1.056-1.14c.448-.28.948-.42 1.5-.42zm.12.888c-.408 0-.776.104-1.104.312-.32.2-.572.476-.756.828a2.675 2.675 0 0 0-.264 1.212c0 .44.088.84.264 1.2.184.352.436.632.756.84.328.208.696.312 1.104.312.416 0 .784-.1 1.104-.3.32-.208.572-.488.756-.84.184-.352.276-.756.276-1.212 0-.464-.092-.872-.276-1.224a2.103 2.103 0 0 0-.756-.828c-.32-.2-.688-.3-1.104-.3zm7.888-.696h2.82c.128 0 .232.044.312.132a.427.427 0 0 1 .132.312.44.44 0 0 1-.132.324.422.422 0 0 1-.312.12h-2.82a.427.427 0 0 1-.312-.132.44.44 0 0 1-.132-.324c0-.12.044-.22.132-.3a.427.427 0 0 1 .312-.132zm1.26-1.632c.136 0 .248.048.336.144.088.088.132.2.132.336v5.796c0 .192.028.336.084.432a.48.48 0 0 0 .216.204.872.872 0 0 0 .276.048c.08 0 .148-.012.204-.036a.476.476 0 0 1 .216-.048c.08 0 .152.04.216.12a.39.39 0 0 1 .108.288c0 .144-.084.268-.252.372a1.116 1.116 0 0 1-.564.144c-.112 0-.252-.008-.42-.024a1.252 1.252 0 0 1-.48-.156 1.07 1.07 0 0 1-.408-.432c-.104-.208-.156-.496-.156-.864V50.68c0-.136.048-.248.144-.336a.474.474 0 0 1 .348-.144zm6.148 7.92c-.64 0-1.2-.136-1.68-.408a2.964 2.964 0 0 1-1.128-1.116c-.264-.48-.396-1.032-.396-1.656 0-.696.136-1.288.408-1.776.28-.496.64-.872 1.08-1.128.448-.264.92-.396 1.416-.396.368 0 .724.068 1.068.204.344.136.648.336.912.6.264.256.476.568.636.936.16.36.244.764.252 1.212a.423.423 0 0 1-.144.324.482.482 0 0 1-.336.132h-4.74l-.216-.828h4.62l-.192.168v-.264a1.515 1.515 0 0 0-.336-.84 1.835 1.835 0 0 0-.684-.552 1.9 1.9 0 0 0-.84-.192c-.24 0-.48.044-.72.132-.232.08-.444.216-.636.408a2.14 2.14 0 0 0-.456.72c-.112.296-.168.652-.168 1.068 0 .464.092.872.276 1.224.192.352.456.632.792.84.336.2.728.3 1.176.3.28 0 .524-.036.732-.108.208-.072.388-.16.54-.264.152-.112.28-.224.384-.336a.53.53 0 0 1 .3-.108c.12 0 .216.04.288.12.08.08.12.176.12.288 0 .136-.064.256-.192.36-.224.248-.528.468-.912.66a2.797 2.797 0 0 1-1.224.276zm3.663-1.104a.496.496 0 0 1-.096-.324c.008-.12.076-.224.204-.312a.412.412 0 0 1 .276-.072c.112.008.212.06.3.156.224.264.48.476.768.636.288.152.64.228 1.056.228a2.41 2.41 0 0 0 .576-.096c.192-.056.352-.152.48-.288a.788.788 0 0 0 .204-.564c0-.224-.068-.4-.204-.528a1.442 1.442 0 0 0-.528-.324 5.255 5.255 0 0 0-.708-.228 12.585 12.585 0 0 1-.78-.24 3.535 3.535 0 0 1-.696-.348 1.82 1.82 0 0 1-.492-.528 1.583 1.583 0 0 1-.18-.78c0-.36.096-.672.288-.936.2-.264.464-.468.792-.612.336-.144.7-.216 1.092-.216.224 0 .456.028.696.084.248.048.488.136.72.264.232.12.436.288.612.504.072.08.112.18.12.3.008.12-.044.228-.156.324a.441.441 0 0 1-.564-.036c-.168-.2-.38-.352-.636-.456a1.99 1.99 0 0 0-.828-.168c-.192 0-.38.028-.564.084a1.05 1.05 0 0 0-.468.288c-.12.128-.18.308-.18.54.008.216.08.392.216.528s.32.248.552.336c.232.08.488.16.768.24.256.064.5.14.732.228.24.08.456.188.648.324s.344.312.456.528c.112.208.168.472.168.792 0 .368-.104.688-.312.96a2.024 2.024 0 0 1-.828.612c-.336.136-.7.204-1.092.204-.44 0-.876-.084-1.308-.252a2.617 2.617 0 0 1-1.104-.852zm5.792-5.184h2.82c.128 0 .232.044.312.132a.427.427 0 0 1 .132.312.44.44 0 0 1-.132.324.422.422 0 0 1-.312.12h-2.82a.427.427 0 0 1-.312-.132.44.44 0 0 1-.132-.324c0-.12.044-.22.132-.3a.427.427 0 0 1 .312-.132zm1.26-1.632c.136 0 .248.048.336.144.088.088.132.2.132.336v5.796c0 .192.028.336.084.432a.48.48 0 0 0 .216.204.872.872 0 0 0 .276.048c.08 0 .148-.012.204-.036a.476.476 0 0 1 .216-.048c.08 0 .152.04.216.12a.39.39 0 0 1 .108.288c0 .144-.084.268-.252.372a1.116 1.116 0 0 1-.564.144c-.112 0-.252-.008-.42-.024a1.252 1.252 0 0 1-.48-.156 1.07 1.07 0 0 1-.408-.432c-.104-.208-.156-.496-.156-.864V50.68c0-.136.048-.248.144-.336a.474.474 0 0 1 .348-.144zm3.226 6.816a.496.496 0 0 1-.096-.324c.008-.12.076-.224.204-.312a.412.412 0 0 1 .276-.072c.112.008.212.06.3.156.224.264.48.476.768.636.288.152.64.228 1.056.228a2.41 2.41 0 0 0 .576-.096c.192-.056.352-.152.48-.288a.788.788 0 0 0 .204-.564c0-.224-.068-.4-.204-.528a1.442 1.442 0 0 0-.528-.324 5.255 5.255 0 0 0-.708-.228 12.585 12.585 0 0 1-.78-.24 3.535 3.535 0 0 1-.696-.348 1.82 1.82 0 0 1-.492-.528 1.583 1.583 0 0 1-.18-.78c0-.36.096-.672.288-.936.2-.264.464-.468.792-.612.336-.144.7-.216 1.092-.216.224 0 .456.028.696.084.248.048.488.136.72.264.232.12.436.288.612.504.072.08.112.18.12.3.008.12-.044.228-.156.324a.441.441 0 0 1-.564-.036c-.168-.2-.38-.352-.636-.456a1.99 1.99 0 0 0-.828-.168c-.192 0-.38.028-.564.084a1.05 1.05 0 0 0-.468.288c-.12.128-.18.308-.18.54.008.216.08.392.216.528s.32.248.552.336c.232.08.488.16.768.24.256.064.5.14.732.228.24.08.456.188.648.324s.344.312.456.528c.112.208.168.472.168.792 0 .368-.104.688-.312.96a2.024 2.024 0 0 1-.828.612c-.336.136-.7.204-1.092.204-.44 0-.876-.084-1.308-.252a2.617 2.617 0 0 1-1.104-.852zM108.208 69.688a.44.44 0 0 1 .324.132.45.45 0 0 1 .144.348.556.556 0 0 1-.012.108.213.213 0 0 1-.024.096l-1.848 5.316a.462.462 0 0 1-.204.24.458.458 0 0 1-.288.072c-.184-.008-.324-.112-.42-.312l-1.512-3.792.24.036-1.368 3.756c-.088.2-.228.304-.42.312a.507.507 0 0 1-.3-.072.409.409 0 0 1-.192-.24l-1.884-5.316a.646.646 0 0 1-.036-.204c0-.128.044-.24.132-.336a.464.464 0 0 1 .36-.144c.096 0 .184.024.264.072.08.048.136.124.168.228l1.62 4.728-.252-.012 1.404-3.6c.08-.2.228-.3.444-.3.112 0 .2.028.264.084.072.048.124.12.156.216l1.464 3.6-.3.024 1.62-4.74c.072-.2.224-.3.456-.3zm2.686 5.82a.474.474 0 0 1-.144.348.436.436 0 0 1-.336.144.45.45 0 0 1-.348-.144.497.497 0 0 1-.132-.348V70.18a.474.474 0 0 1 .48-.48c.136 0 .248.048.336.144.096.088.144.2.144.336v5.328zm-.48-6.612c-.2 0-.348-.04-.444-.12-.096-.08-.144-.204-.144-.372v-.168c0-.168.052-.292.156-.372.104-.08.252-.12.444-.12s.336.04.432.12c.096.08.144.204.144.372v.168c0 .168-.052.292-.156.372-.096.08-.24.12-.432.12zm1.964.936h2.82c.128 0 .232.044.312.132a.427.427 0 0 1 .132.312.44.44 0 0 1-.132.324.422.422 0 0 1-.312.12h-2.82a.427.427 0 0 1-.312-.132.44.44 0 0 1-.132-.324c0-.12.044-.22.132-.3a.427.427 0 0 1 .312-.132zm1.26-1.632c.136 0 .248.048.336.144.088.088.132.2.132.336v5.796c0 .192.028.336.084.432a.48.48 0 0 0 .216.204.872.872 0 0 0 .276.048c.08 0 .148-.012.204-.036a.476.476 0 0 1 .216-.048c.08 0 .152.04.216.12a.39.39 0 0 1 .108.288c0 .144-.084.268-.252.372a1.116 1.116 0 0 1-.564.144c-.112 0-.252-.008-.42-.024a1.252 1.252 0 0 1-.48-.156 1.07 1.07 0 0 1-.408-.432c-.104-.208-.156-.496-.156-.864V68.68c0-.136.048-.248.144-.336a.474.474 0 0 1 .348-.144zm6.34 1.5c.528 0 .944.116 1.248.348.312.224.532.528.66.912.136.376.204.796.204 1.26v3.288a.474.474 0 0 1-.144.348.436.436 0 0 1-.336.144.474.474 0 0 1-.348-.144.497.497 0 0 1-.132-.348V72.22a2.36 2.36 0 0 0-.132-.816 1.172 1.172 0 0 0-.444-.588c-.2-.152-.476-.228-.828-.228-.328 0-.628.076-.9.228-.272.144-.488.34-.648.588-.16.24-.24.512-.24.816v3.288a.474.474 0 0 1-.144.348.436.436 0 0 1-.336.144.474.474 0 0 1-.348-.144.497.497 0 0 1-.132-.348V67.6a.474.474 0 0 1 .48-.48.45.45 0 0 1 .348.144c.088.088.132.2.132.336v3.588l-.24.264c.04-.208.128-.416.264-.624.136-.216.308-.408.516-.576.208-.168.44-.3.696-.396.256-.104.524-.156.804-.156zm7.063-1.704c.032-.264.18-.396.444-.396h.372c.144 0 .24.044.288.132.056.08.064.188.024.324l-.78 2.556c-.064.2-.196.3-.396.3-.168 0-.24-.124-.216-.372l.264-2.544zm2.4 0c.032-.264.18-.396.444-.396h.372c.144 0 .24.044.288.132.056.08.06.188.012.324l-.78 2.556c-.064.2-.192.3-.384.3-.176 0-.252-.124-.228-.372l.276-2.544zm12.317-.432c.128 0 .244.044.348.132a.446.446 0 0 1 .168.372.744.744 0 0 1-.024.18l-2.556 7.44a.422.422 0 0 1-.18.228.589.589 0 0 1-.252.084.569.569 0 0 1-.276-.072.548.548 0 0 1-.204-.24l-2.004-4.848.096.036-1.992 4.812a.548.548 0 0 1-.204.24.569.569 0 0 1-.276.072.678.678 0 0 1-.264-.084.44.44 0 0 1-.168-.228l-2.556-7.44a.705.705 0 0 1-.024-.168c0-.16.056-.284.168-.372a.576.576 0 0 1 .36-.144c.096 0 .188.028.276.084a.422.422 0 0 1 .18.228l2.244 6.624h-.168l1.956-4.836c.04-.096.1-.172.18-.228a.47.47 0 0 1 .54 0 .422.422 0 0 1 .18.228l1.896 4.764-.144.06 2.232-6.612a.422.422 0 0 1 .18-.228.526.526 0 0 1 .288-.084zm6.722 2.172c.136 0 .248.048.336.144.096.088.144.2.144.336v5.292a.474.474 0 0 1-.144.348.436.436 0 0 1-.336.144.45.45 0 0 1-.348-.144.497.497 0 0 1-.132-.348v-1.14l.228-.024c0 .176-.06.368-.18.576-.12.208-.284.404-.492.588a2.822 2.822 0 0 1-.744.444c-.28.112-.584.168-.912.168-.544 0-1.032-.14-1.464-.42a3.1 3.1 0 0 1-1.032-1.164c-.248-.488-.372-1.044-.372-1.668 0-.632.124-1.188.372-1.668.256-.488.6-.868 1.032-1.14.432-.28.912-.42 1.44-.42.344 0 .664.056.96.168.296.112.552.264.768.456.224.192.396.404.516.636.128.232.192.464.192.696l-.312-.072v-1.308c0-.136.044-.248.132-.336a.45.45 0 0 1 .348-.144zm-2.472 5.496c.4 0 .752-.104 1.056-.312.312-.208.552-.488.72-.84.176-.36.264-.764.264-1.212 0-.44-.088-.836-.264-1.188a1.95 1.95 0 0 0-.72-.84 1.825 1.825 0 0 0-1.056-.312c-.392 0-.744.1-1.056.3a2.08 2.08 0 0 0-.72.828 2.675 2.675 0 0 0-.264 1.212c0 .448.084.852.252 1.212.176.352.416.632.72.84.312.208.668.312 1.068.312zm5.212.768a.474.474 0 0 1-.348-.144.497.497 0 0 1-.132-.348v-5.232a.474.474 0 0 1 .48-.48.45.45 0 0 1 .348.144c.088.088.132.2.132.336v1.584l-.144-.252a2.51 2.51 0 0 1 .732-1.356c.192-.192.412-.34.66-.444a1.96 1.96 0 0 1 .816-.168c.176 0 .336.044.48.132.152.08.228.196.228.348 0 .168-.044.292-.132.372a.434.434 0 0 1-.3.12.773.773 0 0 1-.3-.06.801.801 0 0 0-.36-.072c-.2 0-.4.056-.6.168a1.887 1.887 0 0 0-.54.456c-.16.2-.292.428-.396.684a2.208 2.208 0 0 0-.144.804v2.916a.474.474 0 0 1-.144.348.436.436 0 0 1-.336.144zm7.3-6.3c.544 0 .984.14 1.32.42.344.272.572.66.684 1.164h-.18l.084-.216c.096-.224.26-.44.492-.648.232-.208.5-.38.804-.516.304-.136.62-.204.948-.204.528 0 .944.116 1.248.348.304.224.52.528.648.912.136.376.204.8.204 1.272v3.276a.474.474 0 0 1-.144.348.436.436 0 0 1-.336.144.45.45 0 0 1-.348-.144.497.497 0 0 1-.132-.348v-3.252c0-.312-.048-.592-.144-.84a1.169 1.169 0 0 0-.444-.6c-.2-.152-.476-.228-.828-.228-.328 0-.628.076-.9.228a1.672 1.672 0 0 0-.648.6c-.16.248-.24.528-.24.84v3.252a.497.497 0 0 1-.132.348.45.45 0 0 1-.348.144.474.474 0 0 1-.348-.144.497.497 0 0 1-.132-.348V72.22a2.36 2.36 0 0 0-.132-.816 1.13 1.13 0 0 0-.42-.588c-.2-.152-.476-.228-.828-.228-.32 0-.612.076-.876.228a1.73 1.73 0 0 0-.636.588c-.16.24-.24.512-.24.816v3.288a.474.474 0 0 1-.144.348.436.436 0 0 1-.336.144.474.474 0 0 1-.348-.144.497.497 0 0 1-.132-.348v-5.232a.474.474 0 0 1 .48-.48.45.45 0 0 1 .348.144c.088.088.132.2.132.336v.912l-.264.288c.032-.208.112-.416.24-.624a2.671 2.671 0 0 1 1.212-.996c.256-.104.528-.156.816-.156zm8.28 3.048a.497.497 0 0 1-.348-.132.513.513 0 0 1-.132-.36c0-.136.044-.248.132-.336a.497.497 0 0 1 .348-.132h2.424c.136 0 .248.048.336.144a.474.474 0 0 1 .144.348.436.436 0 0 1-.144.336.455.455 0 0 1-.336.132H166.8zm9.091-2.952a.45.45 0 0 1 .348.144c.088.088.132.2.132.336v3.276c0 .808-.228 1.436-.684 1.884-.448.44-1.076.66-1.884.66-.8 0-1.428-.22-1.884-.66-.448-.448-.672-1.076-.672-1.884v-3.276a.474.474 0 0 1 .48-.48.45.45 0 0 1 .348.144c.088.088.132.2.132.336v3.276c0 .544.14.956.42 1.236.28.28.672.42 1.176.42.52 0 .916-.14 1.188-.42.28-.28.42-.692.42-1.236v-3.276a.474.474 0 0 1 .48-.48zm5.319-.096a2.69 2.69 0 0 1 1.464.408c.432.272.772.648 1.02 1.128.256.48.384 1.032.384 1.656 0 .616-.128 1.168-.384 1.656-.248.48-.588.86-1.02 1.14a2.61 2.61 0 0 1-1.44.408 2.64 2.64 0 0 1-.84-.132 3.463 3.463 0 0 1-.708-.36 2.648 2.648 0 0 1-.528-.504 2.1 2.1 0 0 1-.312-.564l.264-.168v3.54a.497.497 0 0 1-.132.348.45.45 0 0 1-.348.144.474.474 0 0 1-.48-.492V70.24a.474.474 0 0 1 .48-.48.45.45 0 0 1 .348.144c.088.088.132.2.132.336v1.068l-.18-.096c.056-.2.152-.392.288-.576.144-.184.316-.344.516-.48.208-.144.436-.256.684-.336.256-.08.52-.12.792-.12zm-.108.888c-.4 0-.756.1-1.068.3a2.1 2.1 0 0 0-.72.816c-.168.344-.252.74-.252 1.188 0 .44.084.836.252 1.188.176.352.416.628.72.828.312.2.668.3 1.068.3s.752-.1 1.056-.3c.304-.2.544-.476.72-.828a2.62 2.62 0 0 0 .264-1.188c0-.448-.088-.844-.264-1.188a2.1 2.1 0 0 0-.72-.816c-.304-.2-.656-.3-1.056-.3zm7.484-.756h2.82c.128 0 .232.044.312.132a.427.427 0 0 1 .132.312.44.44 0 0 1-.132.324.422.422 0 0 1-.312.12h-2.82a.427.427 0 0 1-.312-.132.44.44 0 0 1-.132-.324c0-.12.044-.22.132-.3a.427.427 0 0 1 .312-.132zm1.26-1.632c.136 0 .248.048.336.144.088.088.132.2.132.336v5.796c0 .192.028.336.084.432a.48.48 0 0 0 .216.204.872.872 0 0 0 .276.048c.08 0 .148-.012.204-.036a.476.476 0 0 1 .216-.048c.08 0 .152.04.216.12a.39.39 0 0 1 .108.288c0 .144-.084.268-.252.372a1.116 1.116 0 0 1-.564.144c-.112 0-.252-.008-.42-.024a1.252 1.252 0 0 1-.48-.156 1.07 1.07 0 0 1-.408-.432c-.104-.208-.156-.496-.156-.864V68.68c0-.136.048-.248.144-.336a.474.474 0 0 1 .348-.144zm6.148 7.92c-.64 0-1.2-.136-1.68-.408a2.964 2.964 0 0 1-1.128-1.116c-.264-.48-.396-1.032-.396-1.656 0-.696.136-1.288.408-1.776.28-.496.64-.872 1.08-1.128.448-.264.92-.396 1.416-.396.368 0 .724.068 1.068.204.344.136.648.336.912.6.264.256.476.568.636.936.16.36.244.764.252 1.212a.423.423 0 0 1-.144.324.482.482 0 0 1-.336.132h-4.74l-.216-.828h4.62l-.192.168v-.264a1.515 1.515 0 0 0-.336-.84 1.835 1.835 0 0 0-.684-.552 1.9 1.9 0 0 0-.84-.192c-.24 0-.48.044-.72.132-.232.08-.444.216-.636.408a2.14 2.14 0 0 0-.456.72c-.112.296-.168.652-.168 1.068 0 .464.092.872.276 1.224.192.352.456.632.792.84.336.2.728.3 1.176.3.28 0 .524-.036.732-.108.208-.072.388-.16.54-.264.152-.112.28-.224.384-.336a.53.53 0 0 1 .3-.108c.12 0 .216.04.288.12.08.08.12.176.12.288 0 .136-.064.256-.192.36-.224.248-.528.468-.912.66a2.797 2.797 0 0 1-1.224.276zm3.663-1.104a.496.496 0 0 1-.096-.324c.008-.12.076-.224.204-.312a.412.412 0 0 1 .276-.072c.112.008.212.06.3.156.224.264.48.476.768.636.288.152.64.228 1.056.228a2.41 2.41 0 0 0 .576-.096c.192-.056.352-.152.48-.288a.788.788 0 0 0 .204-.564c0-.224-.068-.4-.204-.528a1.442 1.442 0 0 0-.528-.324 5.255 5.255 0 0 0-.708-.228 12.585 12.585 0 0 1-.78-.24 3.535 3.535 0 0 1-.696-.348 1.82 1.82 0 0 1-.492-.528 1.583 1.583 0 0 1-.18-.78c0-.36.096-.672.288-.936.2-.264.464-.468.792-.612.336-.144.7-.216 1.092-.216.224 0 .456.028.696.084.248.048.488.136.72.264.232.12.436.288.612.504.072.08.112.18.12.3.008.12-.044.228-.156.324a.441.441 0 0 1-.564-.036c-.168-.2-.38-.352-.636-.456a1.99 1.99 0 0 0-.828-.168c-.192 0-.38.028-.564.084a1.05 1.05 0 0 0-.468.288c-.12.128-.18.308-.18.54.008.216.08.392.216.528s.32.248.552.336c.232.08.488.16.768.24.256.064.5.14.732.228.24.08.456.188.648.324s.344.312.456.528c.112.208.168.472.168.792 0 .368-.104.688-.312.96a2.024 2.024 0 0 1-.828.612c-.336.136-.7.204-1.092.204-.44 0-.876-.084-1.308-.252a2.617 2.617 0 0 1-1.104-.852zm5.792-5.184h2.82c.128 0 .232.044.312.132a.427.427 0 0 1 .132.312.44.44 0 0 1-.132.324.422.422 0 0 1-.312.12h-2.82a.427.427 0 0 1-.312-.132.44.44 0 0 1-.132-.324c0-.12.044-.22.132-.3a.427.427 0 0 1 .312-.132zm1.26-1.632c.136 0 .248.048.336.144.088.088.132.2.132.336v5.796c0 .192.028.336.084.432a.48.48 0 0 0 .216.204.872.872 0 0 0 .276.048c.08 0 .148-.012.204-.036a.476.476 0 0 1 .216-.048c.08 0 .152.04.216.12a.39.39 0 0 1 .108.288c0 .144-.084.268-.252.372a1.116 1.116 0 0 1-.564.144c-.112 0-.252-.008-.42-.024a1.252 1.252 0 0 1-.48-.156 1.07 1.07 0 0 1-.408-.432c-.104-.208-.156-.496-.156-.864V68.68c0-.136.048-.248.144-.336a.474.474 0 0 1 .348-.144zm3.226 6.816a.496.496 0 0 1-.096-.324c.008-.12.076-.224.204-.312a.412.412 0 0 1 .276-.072c.112.008.212.06.3.156.224.264.48.476.768.636.288.152.64.228 1.056.228a2.41 2.41 0 0 0 .576-.096c.192-.056.352-.152.48-.288a.788.788 0 0 0 .204-.564c0-.224-.068-.4-.204-.528a1.442 1.442 0 0 0-.528-.324 5.255 5.255 0 0 0-.708-.228 12.585 12.585 0 0 1-.78-.24 3.535 3.535 0 0 1-.696-.348 1.82 1.82 0 0 1-.492-.528 1.583 1.583 0 0 1-.18-.78c0-.36.096-.672.288-.936.2-.264.464-.468.792-.612.336-.144.7-.216 1.092-.216.224 0 .456.028.696.084.248.048.488.136.72.264.232.12.436.288.612.504.072.08.112.18.12.3.008.12-.044.228-.156.324a.441.441 0 0 1-.564-.036c-.168-.2-.38-.352-.636-.456a1.99 1.99 0 0 0-.828-.168c-.192 0-.38.028-.564.084a1.05 1.05 0 0 0-.468.288c-.12.128-.18.308-.18.54.008.216.08.392.216.528s.32.248.552.336c.232.08.488.16.768.24.256.064.5.14.732.228.24.08.456.188.648.324s.344.312.456.528c.112.208.168.472.168.792 0 .368-.104.688-.312.96a2.024 2.024 0 0 1-.828.612c-.336.136-.7.204-1.092.204-.44 0-.876-.084-1.308-.252a2.617 2.617 0 0 1-1.104-.852zm5.899-7.02c.032-.264.18-.396.444-.396h.372c.144 0 .24.044.288.132.056.08.064.188.024.324l-.78 2.556c-.064.2-.196.3-.396.3-.168 0-.24-.124-.216-.372l.264-2.544zm2.4 0c.032-.264.18-.396.444-.396h.372c.144 0 .24.044.288.132.056.08.06.188.012.324l-.78 2.556c-.064.2-.192.3-.384.3-.176 0-.252-.124-.228-.372l.276-2.544zm2.885 3.108a.535.535 0 0 1-.396-.144.61.61 0 0 1-.132-.408v-.24c0-.168.044-.3.132-.396a.535.535 0 0 1 .396-.144h.096c.176 0 .308.048.396.144a.564.564 0 0 1 .132.396v.24a.61.61 0 0 1-.132.408c-.088.096-.22.144-.396.144h-.096zm0 4.896a.535.535 0 0 1-.396-.144.61.61 0 0 1-.132-.408v-.24c0-.168.044-.3.132-.396a.535.535 0 0 1 .396-.144h.096c.176 0 .308.048.396.144a.564.564 0 0 1 .132.396v.24a.61.61 0 0 1-.132.408c-.088.096-.22.144-.396.144h-.096zm8.595-6.3a2.69 2.69 0 0 1 1.464.408c.432.272.772.648 1.02 1.128.256.48.384 1.032.384 1.656 0 .616-.128 1.168-.384 1.656-.248.48-.588.86-1.02 1.14a2.61 2.61 0 0 1-1.44.408 2.64 2.64 0 0 1-.84-.132 3.463 3.463 0 0 1-.708-.36 2.648 2.648 0 0 1-.528-.504 2.1 2.1 0 0 1-.312-.564l.264-.168v3.54a.497.497 0 0 1-.132.348.45.45 0 0 1-.348.144.474.474 0 0 1-.48-.492V70.24a.474.474 0 0 1 .48-.48.45.45 0 0 1 .348.144c.088.088.132.2.132.336v1.068l-.18-.096c.056-.2.152-.392.288-.576.144-.184.316-.344.516-.48.208-.144.436-.256.684-.336.256-.08.52-.12.792-.12zm-.108.888c-.4 0-.756.1-1.068.3a2.1 2.1 0 0 0-.72.816c-.168.344-.252.74-.252 1.188 0 .44.084.836.252 1.188.176.352.416.628.72.828.312.2.668.3 1.068.3s.752-.1 1.056-.3c.304-.2.544-.476.72-.828a2.62 2.62 0 0 0 .264-1.188c0-.448-.088-.844-.264-1.188a2.1 2.1 0 0 0-.72-.816c-.304-.2-.656-.3-1.056-.3zM234.505 76a.474.474 0 0 1-.348-.144.497.497 0 0 1-.132-.348v-5.232a.474.474 0 0 1 .48-.48.45.45 0 0 1 .348.144c.088.088.132.2.132.336v1.584l-.144-.252a2.51 2.51 0 0 1 .732-1.356c.192-.192.412-.34.66-.444a1.96 1.96 0 0 1 .816-.168c.176 0 .336.044.48.132.152.08.228.196.228.348 0 .168-.044.292-.132.372a.434.434 0 0 1-.3.12.773.773 0 0 1-.3-.06.801.801 0 0 0-.36-.072c-.2 0-.4.056-.6.168a1.887 1.887 0 0 0-.54.456c-.16.2-.292.428-.396.684a2.208 2.208 0 0 0-.144.804v2.916a.474.474 0 0 1-.144.348.436.436 0 0 1-.336.144zm6.935.12c-.64 0-1.2-.136-1.68-.408a2.964 2.964 0 0 1-1.128-1.116c-.264-.48-.396-1.032-.396-1.656 0-.696.136-1.288.408-1.776.28-.496.64-.872 1.08-1.128.448-.264.92-.396 1.416-.396.368 0 .724.068 1.068.204.344.136.648.336.912.6.264.256.476.568.636.936.16.36.244.764.252 1.212a.423.423 0 0 1-.144.324.482.482 0 0 1-.336.132h-4.74l-.216-.828h4.62l-.192.168v-.264a1.515 1.515 0 0 0-.336-.84 1.835 1.835 0 0 0-.684-.552 1.9 1.9 0 0 0-.84-.192c-.24 0-.48.044-.72.132-.232.08-.444.216-.636.408a2.14 2.14 0 0 0-.456.72c-.112.296-.168.652-.168 1.068 0 .464.092.872.276 1.224.192.352.456.632.792.84.336.2.728.3 1.176.3.28 0 .524-.036.732-.108.208-.072.388-.16.54-.264.152-.112.28-.224.384-.336a.53.53 0 0 1 .3-.108c.12 0 .216.04.288.12.08.08.12.176.12.288 0 .136-.064.256-.192.36-.224.248-.528.468-.912.66a2.797 2.797 0 0 1-1.224.276zm6.771-6.48c.408 0 .776.044 1.104.132.328.088.588.208.78.36.192.152.288.324.288.516a.493.493 0 0 1-.108.3.342.342 0 0 1-.288.144.564.564 0 0 1-.276-.06 1.096 1.096 0 0 1-.192-.156.708.708 0 0 0-.24-.168 1.298 1.298 0 0 0-.42-.132 3.216 3.216 0 0 0-.552-.048c-.44 0-.828.104-1.164.312a2.253 2.253 0 0 0-.78.84 2.465 2.465 0 0 0-.288 1.2c0 .448.092.848.276 1.2a2.083 2.083 0 0 0 1.908 1.152c.28 0 .504-.024.672-.072.168-.048.308-.104.42-.168.144-.08.252-.16.324-.24.08-.08.184-.12.312-.12.136 0 .24.044.312.132.08.088.12.196.12.324 0 .144-.1.296-.3.456-.2.16-.472.296-.816.408-.336.112-.72.168-1.152.168-.608 0-1.14-.14-1.596-.42a2.997 2.997 0 0 1-1.068-1.164 3.65 3.65 0 0 1-.372-1.656c0-.608.128-1.156.384-1.644a3.057 3.057 0 0 1 1.092-1.164c.464-.288 1.004-.432 1.62-.432zm4.386 5.868a.474.474 0 0 1-.144.348.436.436 0 0 1-.336.144.45.45 0 0 1-.348-.144.497.497 0 0 1-.132-.348V70.18a.474.474 0 0 1 .48-.48c.136 0 .248.048.336.144.096.088.144.2.144.336v5.328zm-.48-6.612c-.2 0-.348-.04-.444-.12-.096-.08-.144-.204-.144-.372v-.168c0-.168.052-.292.156-.372.104-.08.252-.12.444-.12s.336.04.432.12c.096.08.144.204.144.372v.168c0 .168-.052.292-.156.372-.096.08-.24.12-.432.12zm1.857 6.12a.496.496 0 0 1-.096-.324c.008-.12.076-.224.204-.312a.412.412 0 0 1 .276-.072c.112.008.212.06.3.156.224.264.48.476.768.636.288.152.64.228 1.056.228a2.41 2.41 0 0 0 .576-.096c.192-.056.352-.152.48-.288a.788.788 0 0 0 .204-.564c0-.224-.068-.4-.204-.528a1.442 1.442 0 0 0-.528-.324 5.255 5.255 0 0 0-.708-.228 12.585 12.585 0 0 1-.78-.24 3.535 3.535 0 0 1-.696-.348 1.82 1.82 0 0 1-.492-.528 1.583 1.583 0 0 1-.18-.78c0-.36.096-.672.288-.936.2-.264.464-.468.792-.612.336-.144.7-.216 1.092-.216.224 0 .456.028.696.084.248.048.488.136.72.264.232.12.436.288.612.504.072.08.112.18.12.3.008.12-.044.228-.156.324a.441.441 0 0 1-.564-.036c-.168-.2-.38-.352-.636-.456a1.99 1.99 0 0 0-.828-.168c-.192 0-.38.028-.564.084a1.05 1.05 0 0 0-.468.288c-.12.128-.18.308-.18.54.008.216.08.392.216.528s.32.248.552.336c.232.08.488.16.768.24.256.064.5.14.732.228.24.08.456.188.648.324s.344.312.456.528c.112.208.168.472.168.792 0 .368-.104.688-.312.96a2.024 2.024 0 0 1-.828.612c-.336.136-.7.204-1.092.204-.44 0-.876-.084-1.308-.252a2.617 2.617 0 0 1-1.104-.852zm8.899 1.104c-.64 0-1.2-.136-1.68-.408a2.964 2.964 0 0 1-1.128-1.116c-.264-.48-.396-1.032-.396-1.656 0-.696.136-1.288.408-1.776.28-.496.64-.872 1.08-1.128.448-.264.92-.396 1.416-.396.368 0 .724.068 1.068.204.344.136.648.336.912.6.264.256.476.568.636.936.16.36.244.764.252 1.212a.423.423 0 0 1-.144.324.482.482 0 0 1-.336.132h-4.74l-.216-.828h4.62l-.192.168v-.264a1.515 1.515 0 0 0-.336-.84 1.835 1.835 0 0 0-.684-.552 1.9 1.9 0 0 0-.84-.192c-.24 0-.48.044-.72.132-.232.08-.444.216-.636.408a2.14 2.14 0 0 0-.456.72c-.112.296-.168.652-.168 1.068 0 .464.092.872.276 1.224.192.352.456.632.792.84.336.2.728.3 1.176.3.28 0 .524-.036.732-.108.208-.072.388-.16.54-.264.152-.112.28-.224.384-.336a.53.53 0 0 1 .3-.108c.12 0 .216.04.288.12.08.08.12.176.12.288 0 .136-.064.256-.192.36-.224.248-.528.468-.912.66a2.797 2.797 0 0 1-1.224.276zM106 87.736c.136 0 .248.048.336.144.096.088.144.2.144.336v5.292a.474.474 0 0 1-.144.348A.436.436 0 0 1 106 94a.45.45 0 0 1-.348-.144.497.497 0 0 1-.132-.348v-1.14l.228-.024c0 .176-.06.368-.18.576-.12.208-.284.404-.492.588a2.822 2.822 0 0 1-.744.444c-.28.112-.584.168-.912.168-.544 0-1.032-.14-1.464-.42a3.1 3.1 0 0 1-1.032-1.164c-.248-.488-.372-1.044-.372-1.668 0-.632.124-1.188.372-1.668.256-.488.6-.868 1.032-1.14.432-.28.912-.42 1.44-.42.344 0 .664.056.96.168.296.112.552.264.768.456.224.192.396.404.516.636.128.232.192.464.192.696l-.312-.072v-1.308c0-.136.044-.248.132-.336a.45.45 0 0 1 .348-.144zm-2.472 5.496c.4 0 .752-.104 1.056-.312.312-.208.552-.488.72-.84.176-.36.264-.764.264-1.212 0-.44-.088-.836-.264-1.188a1.95 1.95 0 0 0-.72-.84 1.825 1.825 0 0 0-1.056-.312c-.392 0-.744.1-1.056.3a2.08 2.08 0 0 0-.72.828 2.675 2.675 0 0 0-.264 1.212c0 .448.084.852.252 1.212.176.352.416.632.72.84.312.208.668.312 1.068.312zm7.815-5.592c.544 0 .972.112 1.284.336.312.224.532.524.66.9.136.376.204.796.204 1.26v3.372a.474.474 0 0 1-.144.348.436.436 0 0 1-.336.144.474.474 0 0 1-.348-.144.497.497 0 0 1-.132-.348V90.16c0-.304-.048-.576-.144-.816a1.15 1.15 0 0 0-.456-.588c-.208-.152-.496-.228-.864-.228-.336 0-.644.076-.924.228-.28.144-.504.34-.672.588-.168.24-.252.512-.252.816v3.348a.474.474 0 0 1-.144.348.436.436 0 0 1-.336.144.474.474 0 0 1-.348-.144.497.497 0 0 1-.132-.348v-5.232a.474.474 0 0 1 .48-.48.45.45 0 0 1 .348.144c.088.088.132.2.132.336v.852l-.24.264c.04-.208.132-.416.276-.624a2.45 2.45 0 0 1 .54-.576c.216-.168.456-.3.72-.396.264-.104.54-.156.828-.156zm9.036.096c.136 0 .248.048.336.144.096.088.144.2.144.336v5.292a.474.474 0 0 1-.144.348.436.436 0 0 1-.336.144.45.45 0 0 1-.348-.144.497.497 0 0 1-.132-.348v-1.14l.228-.024c0 .176-.06.368-.18.576-.12.208-.284.404-.492.588a2.822 2.822 0 0 1-.744.444c-.28.112-.584.168-.912.168-.544 0-1.032-.14-1.464-.42a3.1 3.1 0 0 1-1.032-1.164c-.248-.488-.372-1.044-.372-1.668 0-.632.124-1.188.372-1.668.256-.488.6-.868 1.032-1.14.432-.28.912-.42 1.44-.42.344 0 .664.056.96.168.296.112.552.264.768.456.224.192.396.404.516.636.128.232.192.464.192.696l-.312-.072v-1.308c0-.136.044-.248.132-.336a.45.45 0 0 1 .348-.144zm-2.472 5.496c.4 0 .752-.104 1.056-.312.312-.208.552-.488.72-.84.176-.36.264-.764.264-1.212 0-.44-.088-.836-.264-1.188a1.95 1.95 0 0 0-.72-.84 1.825 1.825 0 0 0-1.056-.312c-.392 0-.744.1-1.056.3a2.08 2.08 0 0 0-.72.828 2.675 2.675 0 0 0-.264 1.212c0 .448.084.852.252 1.212.176.352.416.632.72.84.312.208.668.312 1.068.312zm5.787.276a.474.474 0 0 1-.144.348.474.474 0 0 1-.348.144.436.436 0 0 1-.336-.144.497.497 0 0 1-.132-.348V85.6a.474.474 0 0 1 .48-.48.45.45 0 0 1 .348.144c.088.088.132.2.132.336v7.908zm6.33-5.808c.136 0 .248.048.336.144.096.088.144.2.144.336v5.232c0 .672-.132 1.228-.396 1.668-.264.448-.62.78-1.068.996-.44.216-.94.324-1.5.324-.312 0-.612-.032-.9-.096a2.59 2.59 0 0 1-.708-.252.703.703 0 0 1-.324-.276.408.408 0 0 1-.024-.336.547.547 0 0 1 .24-.3.381.381 0 0 1 .348 0c.128.056.312.132.552.228.248.104.524.156.828.156.416 0 .772-.08 1.068-.24.296-.16.524-.396.684-.708.16-.304.24-.684.24-1.14v-.852l.144.3c-.128.248-.3.464-.516.648a2.454 2.454 0 0 1-.744.432c-.28.104-.588.156-.924.156-.456 0-.844-.096-1.164-.288a1.98 1.98 0 0 1-.72-.816 2.9 2.9 0 0 1-.24-1.212V88.18a.474.474 0 0 1 .48-.48.45.45 0 0 1 .348.144c.088.088.132.2.132.336v3.408c0 .544.12.956.36 1.236.24.272.612.408 1.116.408.32 0 .608-.072.864-.216.264-.144.472-.34.624-.588.16-.256.24-.536.24-.84V88.18c0-.136.044-.248.132-.336a.45.45 0 0 1 .348-.144zm2.019.132h2.82c.128 0 .232.044.312.132a.427.427 0 0 1 .132.312.44.44 0 0 1-.132.324.422.422 0 0 1-.312.12h-2.82a.427.427 0 0 1-.312-.132.44.44 0 0 1-.132-.324c0-.12.044-.22.132-.3a.427.427 0 0 1 .312-.132zm1.26-1.632c.136 0 .248.048.336.144.088.088.132.2.132.336v5.796c0 .192.028.336.084.432a.48.48 0 0 0 .216.204.872.872 0 0 0 .276.048c.08 0 .148-.012.204-.036a.476.476 0 0 1 .216-.048c.08 0 .152.04.216.12a.39.39 0 0 1 .108.288c0 .144-.084.268-.252.372a1.116 1.116 0 0 1-.564.144c-.112 0-.252-.008-.42-.024a1.252 1.252 0 0 1-.48-.156 1.07 1.07 0 0 1-.408-.432c-.104-.208-.156-.496-.156-.864V86.68c0-.136.048-.248.144-.336a.474.474 0 0 1 .348-.144zm4.263 7.308a.474.474 0 0 1-.144.348.436.436 0 0 1-.336.144.45.45 0 0 1-.348-.144.497.497 0 0 1-.132-.348V88.18a.474.474 0 0 1 .48-.48c.136 0 .248.048.336.144.096.088.144.2.144.336v5.328zm-.48-6.612c-.2 0-.348-.04-.444-.12-.096-.08-.144-.204-.144-.372v-.168c0-.168.052-.292.156-.372.104-.08.252-.12.444-.12s.336.04.432.12c.096.08.144.204.144.372v.168c0 .168-.052.292-.156.372-.096.08-.24.12-.432.12zm4.964.744c.408 0 .776.044 1.104.132.328.088.588.208.78.36.192.152.288.324.288.516a.493.493 0 0 1-.108.3.342.342 0 0 1-.288.144.564.564 0 0 1-.276-.06 1.096 1.096 0 0 1-.192-.156.708.708 0 0 0-.24-.168 1.298 1.298 0 0 0-.42-.132 3.216 3.216 0 0 0-.552-.048c-.44 0-.828.104-1.164.312a2.253 2.253 0 0 0-.78.84 2.465 2.465 0 0 0-.288 1.2c0 .448.092.848.276 1.2a2.083 2.083 0 0 0 1.908 1.152c.28 0 .504-.024.672-.072.168-.048.308-.104.42-.168.144-.08.252-.16.324-.24.08-.08.184-.12.312-.12.136 0 .24.044.312.132.08.088.12.196.12.324 0 .144-.1.296-.3.456-.2.16-.472.296-.816.408-.336.112-.72.168-1.152.168-.608 0-1.14-.14-1.596-.42a2.997 2.997 0 0 1-1.068-1.164 3.65 3.65 0 0 1-.372-1.656c0-.608.128-1.156.384-1.644a3.057 3.057 0 0 1 1.092-1.164c.464-.288 1.004-.432 1.62-.432zm3.115 5.376a.496.496 0 0 1-.096-.324c.008-.12.076-.224.204-.312a.412.412 0 0 1 .276-.072c.112.008.212.06.3.156.224.264.48.476.768.636.288.152.64.228 1.056.228a2.41 2.41 0 0 0 .576-.096c.192-.056.352-.152.48-.288a.788.788 0 0 0 .204-.564c0-.224-.068-.4-.204-.528a1.442 1.442 0 0 0-.528-.324 5.255 5.255 0 0 0-.708-.228 12.585 12.585 0 0 1-.78-.24 3.535 3.535 0 0 1-.696-.348 1.82 1.82 0 0 1-.492-.528 1.583 1.583 0 0 1-.18-.78c0-.36.096-.672.288-.936.2-.264.464-.468.792-.612.336-.144.7-.216 1.092-.216.224 0 .456.028.696.084.248.048.488.136.72.264.232.12.436.288.612.504.072.08.112.18.12.3.008.12-.044.228-.156.324a.441.441 0 0 1-.564-.036c-.168-.2-.38-.352-.636-.456a1.99 1.99 0 0 0-.828-.168c-.192 0-.38.028-.564.084a1.05 1.05 0 0 0-.468.288c-.12.128-.18.308-.18.54.008.216.08.392.216.528s.32.248.552.336c.232.08.488.16.768.24.256.064.5.14.732.228.24.08.456.188.648.324s.344.312.456.528c.112.208.168.472.168.792 0 .368-.104.688-.312.96a2.024 2.024 0 0 1-.828.612c-.336.136-.7.204-1.092.204-.44 0-.876-.084-1.308-.252a2.617 2.617 0 0 1-1.104-.852zm7.28 1.008c0 .232-.068.46-.204.684-.128.232-.292.42-.492.564-.2.152-.404.228-.612.228a.351.351 0 0 1-.216-.084c-.072-.048-.108-.136-.108-.264 0-.136.044-.216.132-.24.088-.024.184-.06.288-.108a.742.742 0 0 0 .276-.24.477.477 0 0 0 .108-.312.308.308 0 0 0-.108-.24.351.351 0 0 0-.24-.084.744.744 0 0 0-.18.024.406.406 0 0 0-.144.072.615.615 0 0 1-.144-.144.363.363 0 0 1-.06-.216c.008-.176.096-.324.264-.444a.925.925 0 0 1 .576-.192c.256 0 .464.096.624.288.16.192.24.428.24.708zm4.465-6.192h2.82c.128 0 .232.044.312.132a.427.427 0 0 1 .132.312.44.44 0 0 1-.132.324.422.422 0 0 1-.312.12h-2.82a.427.427 0 0 1-.312-.132.44.44 0 0 1-.132-.324c0-.12.044-.22.132-.3a.427.427 0 0 1 .312-.132zm1.26-1.632c.136 0 .248.048.336.144.088.088.132.2.132.336v5.796c0 .192.028.336.084.432a.48.48 0 0 0 .216.204.872.872 0 0 0 .276.048c.08 0 .148-.012.204-.036a.476.476 0 0 1 .216-.048c.08 0 .152.04.216.12a.39.39 0 0 1 .108.288c0 .144-.084.268-.252.372a1.116 1.116 0 0 1-.564.144c-.112 0-.252-.008-.42-.024a1.252 1.252 0 0 1-.48-.156 1.07 1.07 0 0 1-.408-.432c-.104-.208-.156-.496-.156-.864V86.68c0-.136.048-.248.144-.336a.474.474 0 0 1 .348-.144zm6.339 1.5c.528 0 .944.116 1.248.348.312.224.532.528.66.912.136.376.204.796.204 1.26v3.288a.474.474 0 0 1-.144.348.436.436 0 0 1-.336.144.474.474 0 0 1-.348-.144.497.497 0 0 1-.132-.348V90.22a2.36 2.36 0 0 0-.132-.816 1.172 1.172 0 0 0-.444-.588c-.2-.152-.476-.228-.828-.228-.328 0-.628.076-.9.228-.272.144-.488.34-.648.588-.16.24-.24.512-.24.816v3.288a.474.474 0 0 1-.144.348.436.436 0 0 1-.336.144.474.474 0 0 1-.348-.144.497.497 0 0 1-.132-.348V85.6a.474.474 0 0 1 .48-.48.45.45 0 0 1 .348.144c.088.088.132.2.132.336v3.588l-.24.264c.04-.208.128-.416.264-.624.136-.216.308-.408.516-.576.208-.168.44-.3.696-.396.256-.104.524-.156.804-.156zm9.783 3.18c0 .624-.14 1.18-.42 1.668a3.028 3.028 0 0 1-1.116 1.152c-.464.28-.988.42-1.572.42-.584 0-1.112-.14-1.584-.42a3.118 3.118 0 0 1-1.128-1.152c-.272-.488-.408-1.044-.408-1.668 0-.624.136-1.18.408-1.668.28-.488.656-.872 1.128-1.152.472-.28 1-.42 1.584-.42.584 0 1.108.14 1.572.42.472.28.844.664 1.116 1.152.28.488.42 1.044.42 1.668zm-.96 0c0-.464-.096-.872-.288-1.224a2.074 2.074 0 0 0-.768-.828c-.32-.2-.684-.3-1.092-.3-.408 0-.776.1-1.104.3-.32.2-.576.476-.768.828-.192.352-.288.76-.288 1.224 0 .456.096.86.288 1.212.192.352.448.632.768.84.328.2.696.3 1.104.3.408 0 .772-.1 1.092-.3a2.16 2.16 0 0 0 .768-.84 2.49 2.49 0 0 0 .288-1.212zm7.048-3.084a.45.45 0 0 1 .348.144c.088.088.132.2.132.336v3.276c0 .808-.228 1.436-.684 1.884-.448.44-1.076.66-1.884.66-.8 0-1.428-.22-1.884-.66-.448-.448-.672-1.076-.672-1.884v-3.276a.474.474 0 0 1 .48-.48.45.45 0 0 1 .348.144c.088.088.132.2.132.336v3.276c0 .544.14.956.42 1.236.28.28.672.42 1.176.42.52 0 .916-.14 1.188-.42.28-.28.42-.692.42-1.236v-3.276a.474.474 0 0 1 .48-.48zm1.91 5.22a.496.496 0 0 1-.096-.324c.008-.12.076-.224.204-.312a.412.412 0 0 1 .276-.072c.112.008.212.06.3.156.224.264.48.476.768.636.288.152.64.228 1.056.228a2.41 2.41 0 0 0 .576-.096c.192-.056.352-.152.48-.288a.788.788 0 0 0 .204-.564c0-.224-.068-.4-.204-.528a1.442 1.442 0 0 0-.528-.324 5.255 5.255 0 0 0-.708-.228 12.585 12.585 0 0 1-.78-.24 3.535 3.535 0 0 1-.696-.348 1.82 1.82 0 0 1-.492-.528 1.583 1.583 0 0 1-.18-.78c0-.36.096-.672.288-.936.2-.264.464-.468.792-.612.336-.144.7-.216 1.092-.216.224 0 .456.028.696.084.248.048.488.136.72.264.232.12.436.288.612.504.072.08.112.18.12.3.008.12-.044.228-.156.324a.441.441 0 0 1-.564-.036c-.168-.2-.38-.352-.636-.456a1.99 1.99 0 0 0-.828-.168c-.192 0-.38.028-.564.084a1.05 1.05 0 0 0-.468.288c-.12.128-.18.308-.18.54.008.216.08.392.216.528s.32.248.552.336c.232.08.488.16.768.24.256.064.5.14.732.228.24.08.456.188.648.324s.344.312.456.528c.112.208.168.472.168.792 0 .368-.104.688-.312.96a2.024 2.024 0 0 1-.828.612c-.336.136-.7.204-1.092.204-.44 0-.876-.084-1.308-.252a2.617 2.617 0 0 1-1.104-.852zm11.237-5.28c.136 0 .248.048.336.144.096.088.144.2.144.336v5.292a.474.474 0 0 1-.144.348.436.436 0 0 1-.336.144.45.45 0 0 1-.348-.144.497.497 0 0 1-.132-.348v-1.14l.228-.024c0 .176-.06.368-.18.576-.12.208-.284.404-.492.588a2.822 2.822 0 0 1-.744.444c-.28.112-.584.168-.912.168-.544 0-1.032-.14-1.464-.42a3.1 3.1 0 0 1-1.032-1.164c-.248-.488-.372-1.044-.372-1.668 0-.632.124-1.188.372-1.668.256-.488.6-.868 1.032-1.14.432-.28.912-.42 1.44-.42.344 0 .664.056.96.168.296.112.552.264.768.456.224.192.396.404.516.636.128.232.192.464.192.696l-.312-.072v-1.308c0-.136.044-.248.132-.336a.45.45 0 0 1 .348-.144zm-2.472 5.496c.4 0 .752-.104 1.056-.312.312-.208.552-.488.72-.84.176-.36.264-.764.264-1.212 0-.44-.088-.836-.264-1.188a1.95 1.95 0 0 0-.72-.84 1.825 1.825 0 0 0-1.056-.312c-.392 0-.744.1-1.056.3a2.08 2.08 0 0 0-.72.828 2.675 2.675 0 0 0-.264 1.212c0 .448.084.852.252 1.212.176.352.416.632.72.84.312.208.668.312 1.068.312zm7.815-5.592c.544 0 .972.112 1.284.336.312.224.532.524.66.9.136.376.204.796.204 1.26v3.372a.474.474 0 0 1-.144.348.436.436 0 0 1-.336.144.474.474 0 0 1-.348-.144.497.497 0 0 1-.132-.348V90.16c0-.304-.048-.576-.144-.816a1.15 1.15 0 0 0-.456-.588c-.208-.152-.496-.228-.864-.228-.336 0-.644.076-.924.228-.28.144-.504.34-.672.588-.168.24-.252.512-.252.816v3.348a.474.474 0 0 1-.144.348.436.436 0 0 1-.336.144.474.474 0 0 1-.348-.144.497.497 0 0 1-.132-.348v-5.232a.474.474 0 0 1 .48-.48.45.45 0 0 1 .348.144c.088.088.132.2.132.336v.852l-.24.264c.04-.208.132-.416.276-.624a2.45 2.45 0 0 1 .54-.576c.216-.168.456-.3.72-.396.264-.104.54-.156.828-.156zm9.036-2.52c.136 0 .248.048.336.144.096.088.144.2.144.336v7.908a.474.474 0 0 1-.144.348.436.436 0 0 1-.336.144.45.45 0 0 1-.348-.144.497.497 0 0 1-.132-.348v-1.14l.228-.084c0 .192-.06.396-.18.612-.12.208-.284.404-.492.588a2.65 2.65 0 0 1-.744.456c-.28.12-.584.18-.912.18-.536 0-1.024-.14-1.464-.42a3.004 3.004 0 0 1-1.032-1.152c-.248-.488-.372-1.044-.372-1.668 0-.632.124-1.192.372-1.68.256-.488.6-.868 1.032-1.14.432-.28.912-.42 1.44-.42.336 0 .652.056.948.168.296.112.552.264.768.456.224.192.4.404.528.636.128.232.192.464.192.696l-.312-.072V85.6c0-.136.044-.248.132-.336a.45.45 0 0 1 .348-.144zm-2.472 8.112c.4 0 .752-.1 1.056-.3.312-.208.552-.488.72-.84.176-.36.264-.764.264-1.212 0-.456-.088-.86-.264-1.212a1.964 1.964 0 0 0-.72-.828 1.825 1.825 0 0 0-1.056-.312 1.86 1.86 0 0 0-1.056.312 2.08 2.08 0 0 0-.72.828 2.675 2.675 0 0 0-.264 1.212c0 .44.088.84.264 1.2.176.352.416.632.72.84a1.86 1.86 0 0 0 1.056.312zm4.383-.216a.496.496 0 0 1-.096-.324c.008-.12.076-.224.204-.312a.412.412 0 0 1 .276-.072c.112.008.212.06.3.156.224.264.48.476.768.636.288.152.64.228 1.056.228a2.41 2.41 0 0 0 .576-.096c.192-.056.352-.152.48-.288a.788.788 0 0 0 .204-.564c0-.224-.068-.4-.204-.528a1.442 1.442 0 0 0-.528-.324 5.255 5.255 0 0 0-.708-.228 12.585 12.585 0 0 1-.78-.24 3.535 3.535 0 0 1-.696-.348 1.82 1.82 0 0 1-.492-.528 1.583 1.583 0 0 1-.18-.78c0-.36.096-.672.288-.936.2-.264.464-.468.792-.612.336-.144.7-.216 1.092-.216.224 0 .456.028.696.084.248.048.488.136.72.264.232.12.436.288.612.504.072.08.112.18.12.3.008.12-.044.228-.156.324a.441.441 0 0 1-.564-.036c-.168-.2-.38-.352-.636-.456a1.99 1.99 0 0 0-.828-.168c-.192 0-.38.028-.564.084a1.05 1.05 0 0 0-.468.288c-.12.128-.18.308-.18.54.008.216.08.392.216.528s.32.248.552.336c.232.08.488.16.768.24.256.064.5.14.732.228.24.08.456.188.648.324s.344.312.456.528c.112.208.168.472.168.792 0 .368-.104.688-.312.96a2.024 2.024 0 0 1-.828.612c-.336.136-.7.204-1.092.204-.44 0-.876-.084-1.308-.252a2.617 2.617 0 0 1-1.104-.852zm15.229-2.136c0 .624-.14 1.18-.42 1.668a3.028 3.028 0 0 1-1.116 1.152c-.464.28-.988.42-1.572.42-.584 0-1.112-.14-1.584-.42a3.118 3.118 0 0 1-1.128-1.152c-.272-.488-.408-1.044-.408-1.668 0-.624.136-1.18.408-1.668.28-.488.656-.872 1.128-1.152.472-.28 1-.42 1.584-.42.584 0 1.108.14 1.572.42.472.28.844.664 1.116 1.152.28.488.42 1.044.42 1.668zm-.96 0c0-.464-.096-.872-.288-1.224a2.074 2.074 0 0 0-.768-.828c-.32-.2-.684-.3-1.092-.3-.408 0-.776.1-1.104.3-.32.2-.576.476-.768.828-.192.352-.288.76-.288 1.224 0 .456.096.86.288 1.212.192.352.448.632.768.84.328.2.696.3 1.104.3.408 0 .772-.1 1.092-.3a2.16 2.16 0 0 0 .768-.84 2.49 2.49 0 0 0 .288-1.212zm4.996-5.736c.136 0 .276.016.42.048.152.032.28.088.384.168.112.08.168.188.168.324 0 .128-.04.236-.12.324a.393.393 0 0 1-.288.12c-.072 0-.172-.02-.3-.06a1.119 1.119 0 0 0-.396-.072.806.806 0 0 0-.456.12.73.73 0 0 0-.252.324 1.223 1.223 0 0 0-.072.432v6.636a.474.474 0 0 1-.144.348.436.436 0 0 1-.336.144.45.45 0 0 1-.348-.144.497.497 0 0 1-.132-.348v-6.624c0-.536.164-.96.492-1.272.336-.312.796-.468 1.38-.468zm.336 2.748a.44.44 0 0 1 .324.132c.088.08.132.184.132.312a.44.44 0 0 1-.132.324.464.464 0 0 1-.324.12h-3.012a.44.44 0 0 1-.324-.132.427.427 0 0 1-.132-.312c0-.136.044-.244.132-.324a.464.464 0 0 1 .324-.12h3.012zM103.948 105.7a2.69 2.69 0 0 1 1.464.408c.432.272.772.648 1.02 1.128.256.48.384 1.032.384 1.656 0 .616-.128 1.168-.384 1.656-.248.48-.588.86-1.02 1.14a2.61 2.61 0 0 1-1.44.408 2.64 2.64 0 0 1-.84-.132 3.463 3.463 0 0 1-.708-.36 2.648 2.648 0 0 1-.528-.504 2.1 2.1 0 0 1-.312-.564l.264-.168v3.54a.497.497 0 0 1-.132.348.45.45 0 0 1-.348.144.474.474 0 0 1-.48-.492v-7.668a.474.474 0 0 1 .48-.48.45.45 0 0 1 .348.144c.088.088.132.2.132.336v1.068l-.18-.096c.056-.2.152-.392.288-.576.144-.184.316-.344.516-.48.208-.144.436-.256.684-.336.256-.08.52-.12.792-.12zm-.108.888c-.4 0-.756.1-1.068.3a2.1 2.1 0 0 0-.72.816c-.168.344-.252.74-.252 1.188 0 .44.084.836.252 1.188.176.352.416.628.72.828.312.2.668.3 1.068.3s.752-.1 1.056-.3c.304-.2.544-.476.72-.828a2.62 2.62 0 0 0 .264-1.188c0-.448-.088-.844-.264-1.188a2.1 2.1 0 0 0-.72-.816c-.304-.2-.656-.3-1.056-.3zm4.899 5.412a.474.474 0 0 1-.348-.144.497.497 0 0 1-.132-.348v-5.232a.474.474 0 0 1 .48-.48.45.45 0 0 1 .348.144c.088.088.132.2.132.336v1.584l-.144-.252a2.51 2.51 0 0 1 .732-1.356c.192-.192.412-.34.66-.444a1.96 1.96 0 0 1 .816-.168c.176 0 .336.044.48.132.152.08.228.196.228.348 0 .168-.044.292-.132.372a.434.434 0 0 1-.3.12.773.773 0 0 1-.3-.06.801.801 0 0 0-.36-.072c-.2 0-.4.056-.6.168a1.887 1.887 0 0 0-.54.456c-.16.2-.292.428-.396.684a2.208 2.208 0 0 0-.144.804v2.916a.474.474 0 0 1-.144.348.436.436 0 0 1-.336.144zm9.308-6.264c.136 0 .248.048.336.144.096.088.144.2.144.336v5.292a.474.474 0 0 1-.144.348.436.436 0 0 1-.336.144.45.45 0 0 1-.348-.144.497.497 0 0 1-.132-.348v-1.14l.228-.024c0 .176-.06.368-.18.576-.12.208-.284.404-.492.588a2.822 2.822 0 0 1-.744.444c-.28.112-.584.168-.912.168-.544 0-1.032-.14-1.464-.42a3.1 3.1 0 0 1-1.032-1.164c-.248-.488-.372-1.044-.372-1.668 0-.632.124-1.188.372-1.668.256-.488.6-.868 1.032-1.14.432-.28.912-.42 1.44-.42.344 0 .664.056.96.168.296.112.552.264.768.456.224.192.396.404.516.636.128.232.192.464.192.696l-.312-.072v-1.308c0-.136.044-.248.132-.336a.45.45 0 0 1 .348-.144zm-2.472 5.496c.4 0 .752-.104 1.056-.312.312-.208.552-.488.72-.84.176-.36.264-.764.264-1.212 0-.44-.088-.836-.264-1.188a1.95 1.95 0 0 0-.72-.84 1.825 1.825 0 0 0-1.056-.312c-.392 0-.744.1-1.056.3a2.08 2.08 0 0 0-.72.828 2.675 2.675 0 0 0-.264 1.212c0 .448.084.852.252 1.212.176.352.416.632.72.84.312.208.668.312 1.068.312zm7.491-5.592c.408 0 .776.044 1.104.132.328.088.588.208.78.36.192.152.288.324.288.516a.493.493 0 0 1-.108.3.342.342 0 0 1-.288.144.564.564 0 0 1-.276-.06 1.096 1.096 0 0 1-.192-.156.708.708 0 0 0-.24-.168 1.298 1.298 0 0 0-.42-.132 3.216 3.216 0 0 0-.552-.048c-.44 0-.828.104-1.164.312a2.253 2.253 0 0 0-.78.84 2.465 2.465 0 0 0-.288 1.2c0 .448.092.848.276 1.2a2.083 2.083 0 0 0 1.908 1.152c.28 0 .504-.024.672-.072.168-.048.308-.104.42-.168.144-.08.252-.16.324-.24.08-.08.184-.12.312-.12.136 0 .24.044.312.132.08.088.12.196.12.324 0 .144-.1.296-.3.456-.2.16-.472.296-.816.408-.336.112-.72.168-1.152.168-.608 0-1.14-.14-1.596-.42a2.997 2.997 0 0 1-1.068-1.164 3.65 3.65 0 0 1-.372-1.656c0-.608.128-1.156.384-1.644a3.057 3.057 0 0 1 1.092-1.164c.464-.288 1.004-.432 1.62-.432zm3.223.192h2.82c.128 0 .232.044.312.132a.427.427 0 0 1 .132.312.44.44 0 0 1-.132.324.422.422 0 0 1-.312.12h-2.82a.427.427 0 0 1-.312-.132.44.44 0 0 1-.132-.324c0-.12.044-.22.132-.3a.427.427 0 0 1 .312-.132zm1.26-1.632c.136 0 .248.048.336.144.088.088.132.2.132.336v5.796c0 .192.028.336.084.432a.48.48 0 0 0 .216.204.872.872 0 0 0 .276.048c.08 0 .148-.012.204-.036a.476.476 0 0 1 .216-.048c.08 0 .152.04.216.12a.39.39 0 0 1 .108.288c0 .144-.084.268-.252.372a1.116 1.116 0 0 1-.564.144c-.112 0-.252-.008-.42-.024a1.252 1.252 0 0 1-.48-.156 1.07 1.07 0 0 1-.408-.432c-.104-.208-.156-.496-.156-.864v-5.844c0-.136.048-.248.144-.336a.474.474 0 0 1 .348-.144zm4.263 7.308a.474.474 0 0 1-.144.348.436.436 0 0 1-.336.144.45.45 0 0 1-.348-.144.497.497 0 0 1-.132-.348v-5.328a.474.474 0 0 1 .48-.48c.136 0 .248.048.336.144.096.088.144.2.144.336v5.328zm-.48-6.612c-.2 0-.348-.04-.444-.12-.096-.08-.144-.204-.144-.372v-.168c0-.168.052-.292.156-.372.104-.08.252-.12.444-.12s.336.04.432.12c.096.08.144.204.144.372v.168c0 .168-.052.292-.156.372-.096.08-.24.12-.432.12zm4.964.744c.408 0 .776.044 1.104.132.328.088.588.208.78.36.192.152.288.324.288.516a.493.493 0 0 1-.108.3.342.342 0 0 1-.288.144.564.564 0 0 1-.276-.06 1.096 1.096 0 0 1-.192-.156.708.708 0 0 0-.24-.168 1.298 1.298 0 0 0-.42-.132 3.216 3.216 0 0 0-.552-.048c-.44 0-.828.104-1.164.312a2.253 2.253 0 0 0-.78.84 2.465 2.465 0 0 0-.288 1.2c0 .448.092.848.276 1.2a2.083 2.083 0 0 0 1.908 1.152c.28 0 .504-.024.672-.072.168-.048.308-.104.42-.168.144-.08.252-.16.324-.24.08-.08.184-.12.312-.12.136 0 .24.044.312.132.08.088.12.196.12.324 0 .144-.1.296-.3.456-.2.16-.472.296-.816.408-.336.112-.72.168-1.152.168-.608 0-1.14-.14-1.596-.42a2.997 2.997 0 0 1-1.068-1.164 3.65 3.65 0 0 1-.372-1.656c0-.608.128-1.156.384-1.644a3.057 3.057 0 0 1 1.092-1.164c.464-.288 1.004-.432 1.62-.432zm6.331 6.48c-.64 0-1.2-.136-1.68-.408a2.964 2.964 0 0 1-1.128-1.116c-.264-.48-.396-1.032-.396-1.656 0-.696.136-1.288.408-1.776.28-.496.64-.872 1.08-1.128.448-.264.92-.396 1.416-.396.368 0 .724.068 1.068.204.344.136.648.336.912.6.264.256.476.568.636.936.16.36.244.764.252 1.212a.423.423 0 0 1-.144.324.482.482 0 0 1-.336.132h-4.74l-.216-.828h4.62l-.192.168v-.264a1.515 1.515 0 0 0-.336-.84 1.835 1.835 0 0 0-.684-.552 1.9 1.9 0 0 0-.84-.192c-.24 0-.48.044-.72.132-.232.08-.444.216-.636.408a2.14 2.14 0 0 0-.456.72c-.112.296-.168.652-.168 1.068 0 .464.092.872.276 1.224.192.352.456.632.792.84.336.2.728.3 1.176.3.28 0 .524-.036.732-.108.208-.072.388-.16.54-.264.152-.112.28-.224.384-.336a.53.53 0 0 1 .3-.108c.12 0 .216.04.288.12.08.08.12.176.12.288 0 .136-.064.256-.192.36-.224.248-.528.468-.912.66a2.797 2.797 0 0 1-1.224.276zm12.428-6.36c.136 0 .248.048.336.144.096.088.144.2.144.336v7.668a.474.474 0 0 1-.144.348.436.436 0 0 1-.336.144.45.45 0 0 1-.348-.144.497.497 0 0 1-.132-.348v-3.54l.228-.084c0 .192-.06.396-.18.612-.12.208-.284.404-.492.588a2.65 2.65 0 0 1-.744.456c-.28.12-.584.18-.912.18-.536 0-1.024-.14-1.464-.42a3.004 3.004 0 0 1-1.032-1.152c-.248-.488-.372-1.044-.372-1.668 0-.632.124-1.192.372-1.68.256-.488.6-.868 1.032-1.14.432-.28.912-.42 1.44-.42.336 0 .652.056.948.168.296.112.552.264.768.456.224.192.4.404.528.636.128.232.192.464.192.696l-.312-.072v-1.284c0-.136.044-.248.132-.336a.45.45 0 0 1 .348-.144zm-2.472 5.472c.4 0 .752-.1 1.056-.3.312-.208.552-.488.72-.84.176-.36.264-.764.264-1.212 0-.456-.088-.86-.264-1.212a1.964 1.964 0 0 0-.72-.828 1.825 1.825 0 0 0-1.056-.312 1.86 1.86 0 0 0-1.056.312 2.08 2.08 0 0 0-.72.828 2.675 2.675 0 0 0-.264 1.212c0 .44.088.84.264 1.2.176.352.416.632.72.84a1.86 1.86 0 0 0 1.056.312zm9.375-5.436a.45.45 0 0 1 .348.144c.088.088.132.2.132.336v3.276c0 .808-.228 1.436-.684 1.884-.448.44-1.076.66-1.884.66-.8 0-1.428-.22-1.884-.66-.448-.448-.672-1.076-.672-1.884v-3.276a.474.474 0 0 1 .48-.48.45.45 0 0 1 .348.144c.088.088.132.2.132.336v3.276c0 .544.14.956.42 1.236.28.28.672.42 1.176.42.52 0 .916-.14 1.188-.42.28-.28.42-.692.42-1.236v-3.276a.474.474 0 0 1 .48-.48zm5.126 6.324c-.64 0-1.2-.136-1.68-.408a2.964 2.964 0 0 1-1.128-1.116c-.264-.48-.396-1.032-.396-1.656 0-.696.136-1.288.408-1.776.28-.496.64-.872 1.08-1.128.448-.264.92-.396 1.416-.396.368 0 .724.068 1.068.204.344.136.648.336.912.6.264.256.476.568.636.936.16.36.244.764.252 1.212a.423.423 0 0 1-.144.324.482.482 0 0 1-.336.132h-4.74l-.216-.828h4.62l-.192.168v-.264a1.515 1.515 0 0 0-.336-.84 1.835 1.835 0 0 0-.684-.552 1.9 1.9 0 0 0-.84-.192c-.24 0-.48.044-.72.132-.232.08-.444.216-.636.408a2.14 2.14 0 0 0-.456.72c-.112.296-.168.652-.168 1.068 0 .464.092.872.276 1.224.192.352.456.632.792.84.336.2.728.3 1.176.3.28 0 .524-.036.732-.108.208-.072.388-.16.54-.264.152-.112.28-.224.384-.336a.53.53 0 0 1 .3-.108c.12 0 .216.04.288.12.08.08.12.176.12.288 0 .136-.064.256-.192.36-.224.248-.528.468-.912.66a2.797 2.797 0 0 1-1.224.276zm3.663-1.104a.496.496 0 0 1-.096-.324c.008-.12.076-.224.204-.312a.412.412 0 0 1 .276-.072c.112.008.212.06.3.156.224.264.48.476.768.636.288.152.64.228 1.056.228a2.41 2.41 0 0 0 .576-.096c.192-.056.352-.152.48-.288a.788.788 0 0 0 .204-.564c0-.224-.068-.4-.204-.528a1.442 1.442 0 0 0-.528-.324 5.255 5.255 0 0 0-.708-.228 12.585 12.585 0 0 1-.78-.24 3.535 3.535 0 0 1-.696-.348 1.82 1.82 0 0 1-.492-.528 1.583 1.583 0 0 1-.18-.78c0-.36.096-.672.288-.936.2-.264.464-.468.792-.612.336-.144.7-.216 1.092-.216.224 0 .456.028.696.084.248.048.488.136.72.264.232.12.436.288.612.504.072.08.112.18.12.3.008.12-.044.228-.156.324a.441.441 0 0 1-.564-.036c-.168-.2-.38-.352-.636-.456a1.99 1.99 0 0 0-.828-.168c-.192 0-.38.028-.564.084a1.05 1.05 0 0 0-.468.288c-.12.128-.18.308-.18.54.008.216.08.392.216.528s.32.248.552.336c.232.08.488.16.768.24.256.064.5.14.732.228.24.08.456.188.648.324s.344.312.456.528c.112.208.168.472.168.792 0 .368-.104.688-.312.96a2.024 2.024 0 0 1-.828.612c-.336.136-.7.204-1.092.204-.44 0-.876-.084-1.308-.252a2.617 2.617 0 0 1-1.104-.852zm5.792-5.184h2.82c.128 0 .232.044.312.132a.427.427 0 0 1 .132.312.44.44 0 0 1-.132.324.422.422 0 0 1-.312.12h-2.82a.427.427 0 0 1-.312-.132.44.44 0 0 1-.132-.324c0-.12.044-.22.132-.3a.427.427 0 0 1 .312-.132zm1.26-1.632c.136 0 .248.048.336.144.088.088.132.2.132.336v5.796c0 .192.028.336.084.432a.48.48 0 0 0 .216.204.872.872 0 0 0 .276.048c.08 0 .148-.012.204-.036a.476.476 0 0 1 .216-.048c.08 0 .152.04.216.12a.39.39 0 0 1 .108.288c0 .144-.084.268-.252.372a1.116 1.116 0 0 1-.564.144c-.112 0-.252-.008-.42-.024a1.252 1.252 0 0 1-.48-.156 1.07 1.07 0 0 1-.408-.432c-.104-.208-.156-.496-.156-.864v-5.844c0-.136.048-.248.144-.336a.474.474 0 0 1 .348-.144zm4.263 7.308a.474.474 0 0 1-.144.348.436.436 0 0 1-.336.144.45.45 0 0 1-.348-.144.497.497 0 0 1-.132-.348v-5.328a.474.474 0 0 1 .48-.48c.136 0 .248.048.336.144.096.088.144.2.144.336v5.328zm-.48-6.612c-.2 0-.348-.04-.444-.12-.096-.08-.144-.204-.144-.372v-.168c0-.168.052-.292.156-.372.104-.08.252-.12.444-.12s.336.04.432.12c.096.08.144.204.144.372v.168c0 .168-.052.292-.156.372-.096.08-.24.12-.432.12zm8.096 3.984c0 .624-.14 1.18-.42 1.668a3.028 3.028 0 0 1-1.116 1.152c-.464.28-.988.42-1.572.42-.584 0-1.112-.14-1.584-.42a3.118 3.118 0 0 1-1.128-1.152c-.272-.488-.408-1.044-.408-1.668 0-.624.136-1.18.408-1.668.28-.488.656-.872 1.128-1.152.472-.28 1-.42 1.584-.42.584 0 1.108.14 1.572.42.472.28.844.664 1.116 1.152.28.488.42 1.044.42 1.668zm-.96 0c0-.464-.096-.872-.288-1.224a2.074 2.074 0 0 0-.768-.828c-.32-.2-.684-.3-1.092-.3-.408 0-.776.1-1.104.3-.32.2-.576.476-.768.828-.192.352-.288.76-.288 1.224 0 .456.096.86.288 1.212.192.352.448.632.768.84.328.2.696.3 1.104.3.408 0 .772-.1 1.092-.3a2.16 2.16 0 0 0 .768-.84 2.49 2.49 0 0 0 .288-1.212zm5.488-3.24c.544 0 .972.112 1.284.336.312.224.532.524.66.9.136.376.204.796.204 1.26v3.372a.474.474 0 0 1-.144.348.436.436 0 0 1-.336.144.474.474 0 0 1-.348-.144.497.497 0 0 1-.132-.348v-3.348c0-.304-.048-.576-.144-.816a1.15 1.15 0 0 0-.456-.588c-.208-.152-.496-.228-.864-.228-.336 0-.644.076-.924.228-.28.144-.504.34-.672.588-.168.24-.252.512-.252.816v3.348a.474.474 0 0 1-.144.348.436.436 0 0 1-.336.144.474.474 0 0 1-.348-.144.497.497 0 0 1-.132-.348v-5.232a.474.474 0 0 1 .48-.48.45.45 0 0 1 .348.144c.088.088.132.2.132.336v.852l-.24.264c.04-.208.132-.416.276-.624a2.45 2.45 0 0 1 .54-.576c.216-.168.456-.3.72-.396.264-.104.54-.156.828-.156zm3.576 5.376a.496.496 0 0 1-.096-.324c.008-.12.076-.224.204-.312a.412.412 0 0 1 .276-.072c.112.008.212.06.3.156.224.264.48.476.768.636.288.152.64.228 1.056.228a2.41 2.41 0 0 0 .576-.096c.192-.056.352-.152.48-.288a.788.788 0 0 0 .204-.564c0-.224-.068-.4-.204-.528a1.442 1.442 0 0 0-.528-.324 5.255 5.255 0 0 0-.708-.228 12.585 12.585 0 0 1-.78-.24 3.535 3.535 0 0 1-.696-.348 1.82 1.82 0 0 1-.492-.528 1.583 1.583 0 0 1-.18-.78c0-.36.096-.672.288-.936.2-.264.464-.468.792-.612.336-.144.7-.216 1.092-.216.224 0 .456.028.696.084.248.048.488.136.72.264.232.12.436.288.612.504.072.08.112.18.12.3.008.12-.044.228-.156.324a.441.441 0 0 1-.564-.036c-.168-.2-.38-.352-.636-.456a1.99 1.99 0 0 0-.828-.168c-.192 0-.38.028-.564.084a1.05 1.05 0 0 0-.468.288c-.12.128-.18.308-.18.54.008.216.08.392.216.528s.32.248.552.336c.232.08.488.16.768.24.256.064.5.14.732.228.24.08.456.188.648.324s.344.312.456.528c.112.208.168.472.168.792 0 .368-.104.688-.312.96a2.024 2.024 0 0 1-.828.612c-.336.136-.7.204-1.092.204-.44 0-.876-.084-1.308-.252a2.617 2.617 0 0 1-1.104-.852z" fill="#404040"/>
    </g>
    <defs>
        <linearGradient id="zn4o4k3s1b" x1="0" y1="0" x2="205.388" y2="320.992" gradientUnits="userSpaceOnUse">
            <stop stop-color="#FFE5EA"/>
            <stop offset="1" stop-color="#FFBAC7"/>
        </linearGradient>
        <linearGradient id="lf4h3y8glc" x1="297.686" y1="4.509" x2="20.306" y2="7.17" gradientUnits="userSpaceOnUse">
            <stop stop-color="#fff" stop-opacity="0"/>
            <stop offset="1" stop-color="#fff" stop-opacity=".37"/>
        </linearGradient>
        <linearGradient id="wwlz36yo6d" x1="25.383" y1="32" x2="62.883" y2="96" gradientUnits="userSpaceOnUse">
            <stop stop-color="#FFA3EC"/>
            <stop offset="1" stop-color="#FF6DE1"/>
        </linearGradient>
        <clipPath id="s6wjip89sa">
            <rect width="288" height="132" rx="6" fill="#fff"/>
        </clipPath>
    </defs>
</svg>
